{"glyphs":{"0":{"ha":547,"x_min":65,"x_max":482,"o":"m 482 497 q 472 292 482 385 q 438 132 461 199 q 376 28 415 65 q 279 -8 338 -8 q 156 54 203 -8 q 87 230 108 117 q 65 493 65 343 q 86 760 65 644 q 154 940 107 875 q 279 1006 201 1006 q 401 940 357 1006 q 463 759 444 874 q 482 497 482 644 m 103 497 q 121 252 103 358 q 178 86 139 146 q 281 26 218 26 q 379 87 343 26 q 430 253 415 147 q 444 496 444 360 q 429 740 444 633 q 378 909 414 847 q 279 971 342 971 q 176 910 215 971 q 120 744 138 850 q 103 497 103 638 z "},"1":{"ha":547,"x_min":107,"x_max":332,"o":"m 332 0 l 294 0 l 294 786 q 294 840 294 815 q 295 890 294 865 q 296 946 296 915 q 269 916 282 928 q 240 889 257 904 l 131 790 l 107 817 l 301 992 l 332 992 l 332 0 z "},"2":{"ha":547,"x_min":56,"x_max":482,"o":"m 482 0 l 56 0 l 56 26 l 260 325 q 343 462 307 394 q 400 599 379 529 q 421 747 421 669 q 374 919 421 867 q 254 971 328 971 q 169 956 210 971 q 97 917 128 940 l 76 946 q 126 976 99 963 q 187 997 154 989 q 254 1006 219 1006 q 363 976 318 1006 q 433 890 408 947 q 458 749 458 833 q 435 589 458 664 q 374 444 413 514 q 288 306 336 375 l 104 38 l 104 35 l 482 35 l 482 0 z "},"3":{"ha":547,"x_min":51,"x_max":478,"o":"m 465 769 q 442 649 465 700 q 381 565 418 597 q 304 518 344 533 l 304 514 q 430 431 382 494 q 478 254 478 368 q 451 115 478 175 q 372 20 425 54 q 235 -14 318 -14 q 142 -3 188 -14 q 57 26 97 8 l 57 65 q 139 35 92 49 q 235 21 186 21 q 387 83 333 21 q 440 256 440 146 q 408 399 440 346 q 326 474 376 451 q 215 497 275 497 l 157 497 l 157 532 l 218 532 q 323 560 275 532 q 399 642 371 589 q 428 769 428 696 q 377 918 428 865 q 244 971 326 971 q 179 962 210 971 q 123 936 149 953 q 74 899 97 919 l 51 925 q 134 982 88 958 q 244 1006 181 1006 q 404 943 343 1006 q 465 769 465 881 z "},"4":{"ha":547,"x_min":19,"x_max":533,"o":"m 533 244 l 408 244 l 408 0 l 372 0 l 372 244 l 19 244 l 19 279 l 369 997 l 408 997 l 408 279 l 533 279 l 533 244 m 372 857 q 372 880 372 869 q 372 900 372 890 q 373 919 372 910 q 374 940 374 929 l 372 940 q 343 868 360 904 q 311 800 326 832 l 58 279 l 372 279 l 372 857 z "},"5":{"ha":547,"x_min":67,"x_max":486,"o":"m 253 590 q 388 554 336 590 q 463 455 439 518 q 486 308 486 392 q 458 145 486 218 q 373 30 431 72 q 225 -12 315 -12 q 136 -1 178 -12 q 67 26 94 10 l 67 68 q 135 36 94 50 q 225 22 176 22 q 353 61 304 22 q 426 165 403 100 q 449 308 449 229 q 405 488 449 421 q 250 556 361 556 q 166 546 207 556 q 99 524 125 536 l 76 544 l 110 992 l 435 992 l 435 957 l 143 957 l 114 567 q 174 583 138 575 q 253 590 210 590 z "},"6":{"ha":547,"x_min":68,"x_max":486,"o":"m 68 426 q 82 657 68 560 q 121 820 96 754 q 181 926 146 886 q 257 983 215 965 q 344 1000 299 1000 q 399 995 372 1000 q 444 982 426 990 l 444 947 q 398 960 425 954 q 344 965 371 965 q 242 933 286 965 q 167 836 197 900 q 121 679 136 772 q 106 464 106 586 l 107 464 q 132 522 113 489 q 190 581 151 556 q 288 606 228 606 q 401 567 357 606 q 465 460 444 529 q 486 301 486 392 q 462 128 486 200 q 392 19 438 57 q 283 -19 347 -19 q 184 8 225 -19 q 117 91 143 36 q 80 230 92 146 q 68 426 68 314 m 281 15 q 406 88 364 15 q 449 304 449 161 q 413 497 449 424 q 286 571 378 571 q 190 542 231 571 q 129 458 150 513 q 108 329 108 404 q 115 237 108 290 q 138 133 121 183 q 190 49 156 82 q 281 15 225 15 z "},"7":{"ha":547,"x_min":61,"x_max":475,"o":"m 143 0 l 438 957 l 61 957 l 61 992 l 475 992 l 475 961 l 181 0 l 143 0 z "},"8":{"ha":547,"x_min":50,"x_max":496,"o":"m 276 1004 q 382 976 338 1004 q 451 899 426 949 q 475 785 475 850 q 451 670 475 717 q 389 590 428 624 q 301 525 350 556 q 400 451 356 492 q 470 358 444 410 q 496 239 496 306 q 469 111 496 168 q 394 20 443 54 q 272 -14 344 -14 q 156 18 206 -14 q 78 106 106 50 q 50 236 50 163 q 76 363 50 310 q 146 456 103 417 q 240 526 189 496 q 153 597 192 560 q 94 682 115 635 q 74 788 74 729 q 99 899 74 850 q 169 976 124 947 q 276 1004 214 1004 m 88 235 q 140 78 88 136 q 274 21 193 21 q 410 84 361 21 q 458 236 458 147 q 442 327 458 283 q 390 413 426 371 q 290 494 353 456 l 271 507 q 179 441 221 478 q 113 354 138 404 q 88 235 88 304 m 276 969 q 155 919 199 969 q 111 786 111 869 q 131 691 111 733 q 186 613 150 649 q 272 546 222 578 q 357 606 319 575 q 416 679 394 638 q 438 783 438 721 q 394 920 438 871 q 276 969 351 969 z "},"9":{"ha":547,"x_min":56,"x_max":474,"o":"m 474 560 q 460 329 474 426 q 421 166 446 232 q 361 60 396 100 q 285 3 326 21 q 197 -14 243 -14 q 143 -9 171 -14 q 97 4 115 -4 l 97 39 q 144 26 117 32 q 197 21 171 21 q 300 53 256 21 q 375 150 344 86 q 421 307 406 214 q 436 522 436 400 l 435 522 q 410 465 429 499 q 353 406 390 431 q 256 381 315 381 q 142 419 186 381 q 76 526 97 457 q 56 685 56 594 q 80 858 56 786 q 150 967 104 929 q 258 1006 196 1006 q 356 978 315 1006 q 423 895 397 950 q 461 756 449 840 q 474 560 474 672 m 261 971 q 135 897 178 971 q 93 682 93 822 q 128 490 93 564 q 256 415 164 415 q 352 444 313 415 q 413 528 392 474 q 433 657 433 582 q 427 752 433 699 q 403 856 421 806 q 352 938 386 906 q 261 971 318 971 z "},"\u0000":{"ha":0,"x_min":0,"x_max":0,"o":""},"\r":{"ha":261,"x_min":0,"x_max":0,"o":""}," ":{"ha":261,"x_min":0,"x_max":0,"o":""},"!":{"ha":269,"x_min":100,"x_max":171,"o":"m 151 236 l 118 236 l 114 992 l 158 992 l 151 236 m 100 42 q 107 76 100 61 q 135 90 114 90 q 163 78 154 90 q 171 42 171 65 q 163 5 171 18 q 135 -8 154 -8 q 107 6 114 -8 q 100 42 100 19 z "},"\"":{"ha":407,"x_min":90,"x_max":317,"o":"m 135 992 l 128 633 l 97 633 l 90 992 l 135 992 m 317 992 l 310 633 l 279 633 l 272 992 l 317 992 z "},"#":{"ha":589,"x_min":25,"x_max":563,"o":"m 436 665 l 403 360 l 526 360 l 526 325 l 400 325 l 361 0 l 326 0 l 365 325 l 183 325 l 144 0 l 111 0 l 149 325 l 25 325 l 25 360 l 151 360 l 186 665 l 57 665 l 57 699 l 190 699 l 224 992 l 257 992 l 225 699 l 406 699 l 438 992 l 469 992 l 439 699 l 563 699 l 563 665 l 436 665 m 186 360 l 369 360 l 403 665 l 221 665 l 186 360 z "},"$":{"ha":547,"x_min":43,"x_max":504,"o":"m 246 29 q 136 45 190 32 q 46 75 82 58 l 46 115 q 141 81 83 97 q 246 65 199 65 l 246 492 q 139 556 185 522 q 68 636 93 590 q 43 747 43 682 q 69 866 43 815 q 142 947 96 917 q 246 981 188 976 l 246 1056 l 279 1056 l 279 982 q 376 969 331 981 q 461 933 421 957 l 444 899 q 366 933 407 921 q 279 946 325 946 l 279 515 q 406 444 356 481 q 480 365 456 408 q 504 261 504 321 q 447 103 504 165 q 279 31 390 42 l 279 -81 l 246 -81 l 246 29 m 279 67 q 415 122 363 72 q 468 260 468 171 q 448 347 468 311 q 386 414 428 383 q 279 476 344 444 l 279 67 m 246 944 q 163 916 200 940 q 103 849 125 892 q 81 746 81 806 q 101 652 81 690 q 158 586 121 614 q 246 532 194 558 l 246 944 z "},"%":{"ha":794,"x_min":64,"x_max":732,"o":"m 196 1006 q 297 930 263 1006 q 332 696 332 854 q 298 463 332 543 q 197 383 264 383 q 97 463 129 383 q 64 697 64 543 q 96 926 64 846 q 196 1006 128 1006 m 197 976 q 124 907 150 976 q 97 696 97 838 q 124 487 97 557 q 197 417 150 417 q 272 488 246 417 q 297 696 297 558 q 272 905 297 833 q 197 976 246 976 m 576 992 l 253 0 l 218 0 l 542 992 l 576 992 m 597 610 q 697 534 663 610 q 732 300 732 458 q 696 62 732 136 q 599 -12 660 -12 q 501 60 539 -12 q 464 301 464 132 q 499 533 464 457 q 597 610 533 610 m 597 581 q 524 510 550 581 q 497 299 497 440 q 523 92 497 164 q 599 19 549 19 q 674 94 650 19 q 697 299 697 168 q 672 509 697 438 q 597 581 646 581 z "},"&":{"ha":535,"x_min":44,"x_max":536,"o":"m 246 1006 q 311 984 283 1006 q 355 919 339 963 q 371 807 371 875 q 338 641 371 711 q 243 526 304 571 l 426 196 q 463 301 447 236 q 476 424 479 365 l 508 424 q 492 288 510 361 q 447 163 475 214 l 536 0 l 500 0 l 429 131 q 379 59 408 92 q 313 6 350 26 q 229 -14 275 -14 q 131 18 172 -14 q 67 107 89 50 q 44 240 44 164 q 60 355 44 303 q 111 453 76 407 q 201 540 146 499 q 159 633 178 589 q 131 722 140 676 q 121 815 121 767 q 136 919 121 876 q 179 983 151 961 q 246 1006 207 1006 m 217 510 q 134 428 164 471 q 92 340 104 386 q 79 240 79 293 q 119 80 79 139 q 229 21 158 21 q 333 61 288 21 q 410 164 378 101 l 217 510 m 246 972 q 176 930 200 972 q 153 815 153 888 q 176 678 153 743 q 229 558 199 614 q 314 667 290 601 q 338 807 338 733 q 315 928 338 885 q 246 972 293 972 z "},"'":{"ha":224,"x_min":90,"x_max":135,"o":"m 135 992 l 129 633 l 99 633 l 90 992 l 135 992 z "},"(":{"ha":365,"x_min":71,"x_max":310,"o":"m 71 386 q 93 610 71 501 q 160 815 115 718 q 271 992 206 913 l 310 992 q 163 719 217 874 q 108 386 108 564 q 135 151 108 263 q 207 -53 161 40 q 310 -219 253 -146 l 269 -219 q 166 -55 211 -147 q 96 149 121 38 q 71 386 71 260 z "},")":{"ha":365,"x_min":56,"x_max":294,"o":"m 294 393 q 271 165 294 279 q 203 -48 247 51 q 96 -219 158 -147 l 56 -219 q 160 -48 115 -147 q 231 165 206 51 q 257 392 257 279 q 231 617 257 508 q 158 822 204 726 q 56 992 113 917 l 96 992 q 201 820 157 915 q 270 617 246 725 q 294 393 294 510 z "},"*":{"ha":471,"x_min":63,"x_max":407,"o":"m 253 1056 l 247 881 l 399 942 l 407 917 l 256 858 l 368 718 l 347 700 l 238 844 l 124 700 l 101 717 l 219 858 l 63 917 l 72 940 l 228 881 l 224 1056 l 253 1056 z "},"+":{"ha":554,"x_min":40,"x_max":513,"o":"m 294 504 l 513 504 l 513 471 l 294 471 l 294 171 l 261 171 l 261 471 l 40 471 l 40 504 l 261 504 l 261 810 l 294 810 l 294 504 z "},",":{"ha":244,"x_min":53,"x_max":167,"o":"m 167 122 q 148 28 160 79 q 120 -76 136 -24 q 83 -179 104 -129 l 53 -179 q 86 -62 72 -115 q 109 41 100 -8 q 124 140 118 90 l 161 140 l 167 122 z "},"-":{"ha":365,"x_min":36,"x_max":329,"o":"m 36 360 l 36 397 l 329 397 l 329 360 l 36 360 z "},".":{"ha":250,"x_min":90,"x_max":161,"o":"m 90 42 q 97 76 90 61 q 125 90 104 90 q 153 78 144 90 q 161 42 161 65 q 153 5 161 18 q 125 -8 144 -8 q 97 6 104 -8 q 90 42 90 19 z "},"/":{"ha":456,"x_min":35,"x_max":431,"o":"m 431 992 l 74 0 l 35 0 l 394 992 l 431 992 z "},":":{"ha":250,"x_min":90,"x_max":161,"o":"m 90 43 q 97 77 90 63 q 125 92 103 92 q 155 77 149 92 q 161 43 161 63 q 155 8 161 22 q 125 -7 149 -7 q 96 8 101 -7 q 90 43 90 24 m 90 689 q 97 724 90 710 q 126 739 104 739 q 153 727 146 739 q 161 690 161 715 q 153 653 161 667 q 125 640 144 640 q 97 654 104 640 q 90 689 90 668 z "},";":{"ha":246,"x_min":53,"x_max":168,"o":"m 168 122 q 149 28 161 79 q 119 -76 136 -24 q 82 -179 103 -129 l 53 -179 q 82 -76 71 -118 q 101 0 93 -33 q 113 66 108 33 q 124 140 118 99 l 163 140 l 168 122 m 97 690 q 104 724 97 710 q 132 739 111 739 q 160 726 151 739 q 168 690 168 714 q 160 653 168 667 q 132 640 151 640 q 104 654 111 640 q 97 690 97 668 z "},"<":{"ha":554,"x_min":40,"x_max":513,"o":"m 513 206 l 40 493 l 40 524 l 513 775 l 513 736 l 81 508 l 513 244 l 513 206 z "},"=":{"ha":554,"x_min":40,"x_max":513,"o":"m 40 621 l 40 657 l 513 657 l 513 621 l 40 621 m 40 322 l 40 358 l 513 358 l 513 322 l 40 322 z "},">":{"ha":554,"x_min":40,"x_max":513,"o":"m 40 244 l 475 507 l 40 736 l 40 775 l 513 524 l 513 493 l 40 206 l 40 244 z "},"?":{"ha":365,"x_min":24,"x_max":333,"o":"m 118 268 q 124 365 118 325 q 147 440 131 404 q 192 518 163 476 q 246 602 222 563 q 283 685 269 642 q 296 788 296 729 q 260 926 296 882 q 158 971 224 971 q 97 961 126 971 q 42 933 67 951 l 24 963 q 83 993 47 981 q 160 1006 119 1006 q 285 952 238 1006 q 333 785 333 899 q 317 669 333 718 q 276 583 301 621 q 224 504 251 544 q 176 421 192 457 q 156 349 160 385 q 151 267 151 314 l 151 236 l 118 236 l 118 268 m 100 40 q 107 76 100 61 q 136 90 114 90 q 163 78 156 90 q 171 43 171 67 q 163 5 171 18 q 135 -8 154 -8 q 107 6 114 -8 q 100 40 100 19 z "},"@":{"ha":838,"x_min":75,"x_max":768,"o":"m 768 474 q 758 336 768 396 q 729 236 749 276 q 681 176 710 196 q 615 156 653 156 q 535 197 560 156 q 511 304 511 238 l 508 304 q 465 189 494 222 q 396 156 435 156 q 307 216 340 156 q 274 400 274 276 q 297 572 274 503 q 360 677 319 642 q 454 713 401 713 q 508 706 482 713 q 549 693 535 699 l 538 435 q 535 383 536 414 q 533 332 533 351 q 554 230 533 268 q 615 192 575 192 q 675 220 649 192 q 716 311 701 249 q 731 474 731 374 q 694 737 731 628 q 592 904 658 846 q 435 963 526 963 q 301 924 360 963 q 199 812 242 885 q 135 636 157 739 q 113 406 113 533 q 146 140 113 251 q 244 -32 179 28 q 403 -92 310 -92 q 490 -80 446 -92 q 560 -50 535 -68 l 560 -87 q 492 -117 533 -106 q 406 -128 450 -128 q 221 -61 294 -128 q 111 126 147 6 q 75 407 75 246 q 101 656 75 546 q 174 842 126 765 q 289 958 222 918 q 436 997 356 997 q 577 960 515 997 q 681 853 639 922 q 746 688 724 785 q 768 474 768 592 m 310 400 q 333 247 310 303 q 397 192 356 192 q 465 251 436 192 q 500 451 493 310 l 511 668 q 484 676 499 672 q 454 679 469 679 q 381 647 414 679 q 328 553 347 615 q 310 400 310 490 z "},"A":{"ha":524,"x_min":0,"x_max":524,"o":"m 488 0 l 394 390 l 131 390 l 36 0 l 0 0 l 236 992 l 289 992 l 524 0 l 488 0 m 289 850 q 279 892 283 874 q 271 928 275 910 q 263 965 267 946 q 254 928 258 946 q 246 892 250 911 q 236 850 242 874 l 139 425 l 386 425 l 289 850 z "},"B":{"ha":597,"x_min":108,"x_max":543,"o":"m 301 992 q 467 935 413 992 q 522 764 522 878 q 506 649 522 700 q 458 566 489 599 q 381 524 426 533 l 381 522 q 473 475 438 508 q 526 391 508 442 q 543 274 543 340 q 517 128 543 189 q 438 33 490 67 q 311 0 386 0 l 108 0 l 108 992 l 301 992 m 292 539 q 435 594 386 539 q 485 764 485 650 q 441 910 485 863 q 282 957 397 957 l 144 957 l 144 539 l 292 539 m 144 504 l 144 35 l 301 35 q 451 94 396 35 q 506 275 506 153 q 478 411 506 361 q 404 483 451 461 q 296 504 357 504 l 144 504 z "},"C":{"ha":576,"x_min":75,"x_max":543,"o":"m 396 971 q 264 931 318 971 q 176 823 210 890 q 128 671 143 756 q 113 496 113 586 q 148 247 113 354 q 248 81 183 140 q 401 21 313 21 q 485 34 449 21 q 542 60 521 47 l 542 22 q 478 -3 515 7 q 401 -14 442 -14 q 229 48 303 -14 q 115 224 156 110 q 75 497 75 339 q 92 688 75 596 q 148 851 110 779 q 247 964 186 922 q 396 1006 308 1006 q 472 996 436 1006 q 543 967 508 986 l 525 935 q 458 963 492 956 q 396 971 424 971 z "},"D":{"ha":656,"x_min":108,"x_max":581,"o":"m 581 506 q 547 226 581 339 q 444 57 514 114 q 263 0 374 0 l 108 0 l 108 992 l 264 992 q 444 938 375 992 q 547 775 514 883 q 581 506 581 667 m 543 503 q 516 749 543 647 q 428 903 489 850 q 261 957 367 957 l 144 957 l 144 35 l 260 35 q 476 153 410 35 q 543 503 543 272 z "},"E":{"ha":529,"x_min":108,"x_max":463,"o":"m 463 0 l 108 0 l 108 992 l 463 992 l 463 957 l 144 957 l 144 539 l 444 539 l 444 504 l 144 504 l 144 35 l 463 35 l 463 0 z "},"F":{"ha":489,"x_min":108,"x_max":464,"o":"m 144 0 l 108 0 l 108 992 l 464 992 l 464 957 l 144 957 l 144 492 l 447 492 l 447 457 l 144 457 l 144 0 z "},"G":{"ha":722,"x_min":75,"x_max":644,"o":"m 414 488 l 644 488 l 644 33 q 535 -2 593 10 q 428 -14 476 -14 q 228 51 306 -14 q 113 231 150 117 q 75 492 75 346 q 115 760 75 644 q 234 941 154 876 q 436 1006 314 1006 q 535 992 486 1006 q 635 944 583 979 l 615 914 q 524 959 568 947 q 436 971 479 971 q 251 910 324 971 q 145 740 179 849 q 111 492 111 632 q 144 248 111 354 q 248 81 178 142 q 429 21 318 21 q 524 31 476 21 q 610 56 571 42 l 610 453 l 414 453 l 414 488 z "},"H":{"ha":675,"x_min":108,"x_max":567,"o":"m 567 0 l 531 0 l 531 504 l 144 504 l 144 0 l 108 0 l 108 992 l 144 992 l 144 539 l 531 539 l 531 992 l 567 992 l 567 0 z "},"I":{"ha":304,"x_min":53,"x_max":251,"o":"m 251 0 l 53 0 l 53 26 l 136 31 l 136 960 l 53 965 l 53 992 l 251 992 l 251 965 l 171 960 l 171 31 l 251 26 l 251 0 z "},"J":{"ha":258,"x_min":-62,"x_max":153,"o":"m 18 -243 q -24 -239 -4 -243 q -62 -226 -44 -235 l -62 -192 q -23 -202 -43 -197 q 18 -207 -3 -207 q 80 -186 58 -207 q 109 -126 101 -165 q 117 -32 117 -86 l 117 992 l 153 992 l 153 -42 q 140 -155 153 -110 q 97 -222 126 -200 q 18 -243 68 -243 z "},"K":{"ha":526,"x_min":108,"x_max":528,"o":"m 528 0 l 489 0 l 229 522 l 144 392 l 144 0 l 108 0 l 108 992 l 144 992 l 144 442 q 173 494 153 461 q 222 575 193 528 l 472 992 l 513 992 l 253 557 l 528 0 z "},"L":{"ha":474,"x_min":108,"x_max":447,"o":"m 108 0 l 108 992 l 144 992 l 144 35 l 447 35 l 447 0 l 108 0 z "},"M":{"ha":906,"x_min":108,"x_max":799,"o":"m 425 0 l 144 928 l 142 928 q 144 861 143 886 q 144 824 144 836 q 144 804 144 811 l 144 0 l 108 0 l 108 992 l 161 992 l 450 44 l 454 44 l 743 992 l 799 992 l 799 0 l 763 0 l 763 799 q 763 819 763 806 q 763 858 763 832 q 763 926 763 885 l 760 926 l 479 0 l 425 0 z "},"N":{"ha":700,"x_min":108,"x_max":593,"o":"m 593 0 l 551 0 l 146 922 l 143 922 q 144 881 144 904 q 144 829 144 858 q 144 761 144 800 l 144 0 l 108 0 l 108 992 l 151 992 l 556 75 l 558 75 q 558 140 558 107 q 558 202 558 172 q 557 251 557 232 l 557 992 l 593 992 l 593 0 z "},"O":{"ha":710,"x_min":75,"x_max":635,"o":"m 635 497 q 622 305 635 397 q 578 141 610 213 q 494 28 547 69 q 357 -14 440 -14 q 219 29 274 -14 q 133 145 164 72 q 88 310 101 218 q 75 497 75 401 q 108 780 75 667 q 203 949 140 893 q 357 1006 267 1006 q 520 940 460 1006 q 608 759 581 874 q 635 497 635 644 m 111 497 q 140 240 111 347 q 223 77 168 133 q 357 21 278 21 q 492 76 439 21 q 572 237 546 131 q 599 497 599 343 q 539 848 599 725 q 357 971 479 971 q 219 915 274 971 q 138 753 164 860 q 111 497 111 647 z "},"P":{"ha":549,"x_min":108,"x_max":503,"o":"m 239 992 q 438 931 372 992 q 503 721 503 871 q 487 585 503 642 q 439 494 471 529 q 357 442 407 458 q 239 425 307 425 l 144 425 l 144 0 l 108 0 l 108 992 l 239 992 m 238 957 l 144 957 l 144 460 l 247 460 q 370 486 322 460 q 442 571 418 513 q 465 722 465 629 q 409 905 465 853 q 238 957 353 957 z "},"Q":{"ha":710,"x_min":75,"x_max":635,"o":"m 635 497 q 612 244 635 347 q 544 81 589 142 q 433 -1 499 21 l 549 -236 l 508 -236 l 399 -11 q 374 -13 385 -12 q 354 -14 364 -14 q 225 26 278 -14 q 139 135 172 65 q 90 299 106 206 q 75 499 75 392 q 108 781 75 668 q 204 949 140 893 q 363 1006 268 1006 q 506 953 444 1006 q 601 788 567 900 q 635 497 635 675 m 111 499 q 139 240 111 347 q 222 77 167 133 q 356 21 276 21 q 492 76 439 21 q 572 237 546 131 q 599 497 599 343 q 538 850 599 729 q 363 971 478 971 q 219 915 275 971 q 138 753 164 858 q 111 499 111 647 z "},"R":{"ha":561,"x_min":108,"x_max":533,"o":"m 235 992 q 381 967 321 992 q 472 886 440 943 q 504 729 504 829 q 484 596 504 651 q 424 506 464 540 q 325 456 385 471 l 533 0 l 492 0 l 289 447 l 144 447 l 144 0 l 108 0 l 108 992 l 235 992 m 231 957 l 144 957 l 144 483 l 264 483 q 412 540 356 483 q 468 732 468 597 q 444 862 468 813 q 369 934 421 911 q 231 957 317 957 z "},"S":{"ha":540,"x_min":58,"x_max":481,"o":"m 481 257 q 453 109 481 169 q 371 17 425 49 q 239 -14 317 -14 q 181 -10 213 -14 q 117 1 149 -7 q 58 21 86 10 l 58 61 q 144 33 94 44 q 239 22 194 22 q 353 51 308 22 q 421 133 399 81 q 443 257 443 186 q 424 363 443 324 q 364 431 404 403 q 263 492 324 460 q 188 535 224 513 q 124 586 151 557 q 81 656 97 615 q 65 757 65 697 q 96 894 65 839 q 180 978 126 950 q 304 1006 233 1006 q 396 994 351 1006 q 468 967 440 982 l 453 936 q 372 964 413 957 q 304 971 332 971 q 194 945 239 971 q 126 872 149 919 q 103 757 103 824 q 127 647 103 689 q 192 576 151 604 q 279 522 232 549 q 388 458 343 489 q 456 382 432 428 q 481 257 481 336 z "},"T":{"ha":467,"x_min":10,"x_max":456,"o":"m 250 0 l 214 0 l 214 957 l 10 957 l 10 992 l 456 992 l 456 957 l 250 957 l 250 0 z "},"U":{"ha":675,"x_min":100,"x_max":575,"o":"m 575 301 q 543 112 575 181 q 458 15 511 43 q 338 -14 404 -14 q 162 62 224 -14 q 100 301 100 138 l 100 992 l 136 992 l 136 307 q 190 86 136 151 q 338 21 243 21 q 442 47 397 21 q 513 135 488 72 q 539 307 539 197 l 539 992 l 575 992 l 575 301 z "},"V":{"ha":508,"x_min":0,"x_max":508,"o":"m 508 992 l 275 0 l 229 0 l 0 992 l 35 992 l 221 189 q 233 140 228 163 q 243 93 238 117 q 253 43 249 69 q 263 93 258 69 q 274 140 268 117 q 285 189 279 164 l 472 992 l 508 992 z "},"W":{"ha":899,"x_min":7,"x_max":892,"o":"m 892 992 l 674 0 l 624 0 l 469 779 q 463 814 465 799 q 458 844 460 829 q 453 877 456 860 q 447 918 450 894 q 442 877 444 894 q 438 844 440 860 q 432 814 435 829 q 425 779 429 799 l 271 0 l 218 0 l 7 992 l 44 992 l 213 210 q 224 151 219 178 q 233 103 229 124 q 240 66 238 82 q 244 40 243 50 q 253 90 249 64 q 263 140 258 117 q 270 183 267 164 q 275 210 274 201 l 429 992 l 465 992 l 619 210 q 628 165 624 185 q 635 125 632 144 q 641 84 638 106 q 649 36 644 63 q 660 97 654 68 q 672 154 665 126 q 683 210 678 182 l 853 992 l 892 992 z "},"X":{"ha":460,"x_min":14,"x_max":446,"o":"m 446 0 l 407 0 l 242 479 l 53 0 l 14 0 l 221 518 l 47 992 l 86 992 l 243 557 l 407 992 l 446 992 l 264 518 l 446 0 z "},"Y":{"ha":438,"x_min":0,"x_max":438,"o":"m 219 438 l 400 992 l 438 992 l 238 386 l 238 0 l 201 0 l 201 386 l 0 992 l 38 992 l 219 438 z "},"Z":{"ha":449,"x_min":39,"x_max":421,"o":"m 421 0 l 39 0 l 39 33 l 374 957 l 56 957 l 56 992 l 411 992 l 411 957 l 79 35 l 421 35 l 421 0 z "},"[":{"ha":425,"x_min":117,"x_max":375,"o":"m 375 -219 l 117 -219 l 117 992 l 375 992 l 375 958 l 151 958 l 151 -186 l 375 -186 l 375 -219 z "},"\\":{"ha":454,"x_min":35,"x_max":429,"o":"m 71 992 l 429 0 l 390 0 l 35 992 l 71 992 z "},"]":{"ha":425,"x_min":50,"x_max":308,"o":"m 50 -186 l 274 -186 l 274 958 l 50 958 l 50 992 l 308 992 l 308 -219 l 50 -219 l 50 -186 z "},"^":{"ha":549,"x_min":25,"x_max":525,"o":"m 25 517 l 268 990 l 301 990 l 525 517 l 481 517 l 283 946 l 68 517 l 25 517 z "},"_":{"ha":544,"x_min":-3,"x_max":547,"o":"m 547 -162 l -3 -162 l -3 -126 l 547 -126 l 547 -162 z "},"`":{"ha":313,"x_min":56,"x_max":257,"o":"m 99 1060 q 149 988 124 1022 q 203 921 175 953 q 257 857 231 889 l 257 842 l 235 842 q 191 886 215 861 q 142 939 167 911 q 95 995 118 967 q 56 1050 72 1024 l 56 1060 l 99 1060 z "},"a":{"ha":508,"x_min":53,"x_max":413,"o":"m 246 746 q 373 690 333 746 q 413 497 413 633 l 413 0 l 383 0 l 382 129 l 379 129 q 353 62 371 94 q 303 8 336 29 q 218 -14 271 -14 q 124 13 160 -14 q 70 85 88 40 q 53 179 53 129 q 115 344 53 289 q 292 413 178 399 l 376 422 l 376 493 q 346 665 376 618 q 246 711 315 711 q 188 703 221 711 q 115 671 154 694 l 100 701 q 172 734 133 722 q 246 746 211 746 m 290 381 q 138 320 188 369 q 89 179 89 271 q 124 59 89 101 q 218 17 158 17 q 342 97 306 17 q 378 306 378 178 l 378 390 l 290 381 z "},"b":{"ha":589,"x_min":99,"x_max":526,"o":"m 135 668 q 135 622 135 646 q 133 581 135 599 l 136 581 q 197 700 149 654 q 318 746 244 746 q 475 651 424 746 q 526 374 526 557 q 502 158 526 244 q 430 29 478 72 q 311 -14 382 -14 q 200 28 242 -14 q 138 135 158 69 l 135 135 l 128 0 l 99 0 l 99 1056 l 135 1056 l 135 668 m 318 711 q 215 674 256 711 q 155 568 175 636 q 135 408 135 500 l 135 332 q 184 96 135 169 q 311 22 233 22 q 444 108 397 22 q 490 374 490 193 q 449 626 490 540 q 318 711 408 711 z "},"c":{"ha":435,"x_min":65,"x_max":407,"o":"m 294 -14 q 165 31 217 -14 q 90 160 114 76 q 65 356 65 243 q 94 570 65 483 q 178 701 124 657 q 307 746 232 746 q 360 740 335 746 q 407 721 385 733 l 393 689 q 353 706 375 700 q 308 711 332 711 q 198 672 244 711 q 126 553 151 632 q 101 357 101 475 q 122 182 101 258 q 185 63 142 106 q 299 21 229 21 q 352 27 325 21 q 406 44 379 33 l 406 8 q 353 -8 383 -1 q 294 -14 322 -14 z "},"d":{"ha":589,"x_min":64,"x_max":492,"o":"m 271 -14 q 116 81 168 -14 q 64 356 64 175 q 119 647 64 547 q 276 746 175 746 q 366 723 329 746 q 426 665 403 700 q 456 596 449 631 l 458 596 q 456 645 457 622 q 456 690 456 668 l 456 1056 l 492 1056 l 492 0 l 464 0 l 458 147 l 456 147 q 425 73 447 110 q 365 11 403 36 q 271 -14 328 -14 m 274 21 q 408 99 361 21 q 456 307 456 178 l 456 438 q 408 635 456 560 q 278 711 361 711 q 147 621 192 711 q 101 356 101 531 q 142 109 101 197 q 274 21 182 21 z "},"e":{"ha":528,"x_min":65,"x_max":464,"o":"m 271 746 q 386 699 344 746 q 446 576 428 651 q 464 418 464 501 l 464 379 l 101 379 q 149 113 100 206 q 297 21 199 21 q 369 33 333 21 q 442 72 406 46 l 442 31 q 376 -1 413 11 q 297 -14 340 -14 q 167 32 218 -14 q 90 163 115 78 q 65 367 65 249 q 88 567 65 482 q 156 699 110 651 q 271 746 201 746 m 271 711 q 154 638 199 711 q 103 413 110 564 l 431 413 q 416 562 432 494 q 365 670 400 629 q 271 711 329 711 z "},"f":{"ha":293,"x_min":14,"x_max":328,"o":"m 254 697 l 147 697 l 147 0 l 111 0 l 111 697 l 14 697 l 14 726 l 111 733 l 111 840 q 124 966 111 917 q 167 1039 138 1015 q 247 1063 197 1063 q 293 1057 272 1063 q 328 1044 314 1051 l 314 1014 q 281 1026 299 1022 q 246 1029 263 1029 q 169 983 190 1029 q 147 831 147 938 l 147 732 l 254 732 l 254 697 z "},"g":{"ha":586,"x_min":64,"x_max":489,"o":"m 281 746 q 398 704 358 746 q 453 611 438 663 l 457 611 l 461 732 l 489 732 l 489 -49 q 463 -208 489 -144 q 382 -304 436 -272 q 243 -336 328 -336 q 160 -326 199 -336 q 86 -294 121 -315 l 86 -256 q 160 -290 124 -278 q 243 -301 196 -301 q 400 -242 347 -301 q 453 -49 453 -182 l 453 17 q 453 80 453 49 q 457 154 454 111 l 453 154 q 391 35 438 83 q 271 -14 344 -14 q 118 78 172 -14 q 64 364 64 171 q 115 644 64 542 q 281 746 167 746 m 281 711 q 175 667 215 711 q 117 546 135 624 q 100 364 100 468 q 143 104 100 188 q 271 21 186 21 q 356 47 321 21 q 412 115 390 72 q 443 207 433 157 q 453 307 453 257 l 453 457 q 435 583 453 525 q 381 676 418 640 q 281 711 343 711 z "},"h":{"ha":567,"x_min":99,"x_max":471,"o":"m 135 683 q 135 632 135 651 q 132 589 135 613 l 135 589 q 167 661 146 625 q 223 722 188 697 q 311 746 258 746 q 398 719 363 746 q 452 641 433 693 q 471 508 471 589 l 471 0 l 435 0 l 435 500 q 399 664 435 617 q 310 711 364 711 q 225 680 265 711 q 160 583 185 649 q 135 414 135 518 l 135 0 l 99 0 l 99 1056 l 135 1056 l 135 683 z "},"i":{"ha":246,"x_min":90,"x_max":161,"o":"m 143 732 l 143 0 l 107 0 l 107 732 l 143 732 m 126 1006 q 153 991 146 1006 q 161 960 161 976 q 151 924 161 938 q 125 911 142 911 q 99 926 107 911 q 90 958 90 940 q 98 990 90 975 q 126 1006 106 1006 z "},"j":{"ha":246,"x_min":-3,"x_max":160,"o":"m 38 -336 q 14 -333 24 -336 q -3 -328 4 -331 l -3 -290 q 15 -297 4 -294 q 36 -300 26 -300 q 88 -266 74 -300 q 103 -162 103 -232 l 103 732 l 139 732 l 139 -174 q 126 -272 139 -236 q 90 -322 113 -307 q 38 -336 67 -336 m 89 958 q 97 990 89 975 q 125 1006 104 1006 q 152 991 144 1006 q 160 960 160 976 q 150 924 160 938 q 124 911 140 911 q 97 926 106 911 q 89 958 89 940 z "},"k":{"ha":450,"x_min":99,"x_max":440,"o":"m 135 501 q 135 412 135 453 q 133 324 135 371 l 135 324 q 151 350 144 339 q 163 372 157 361 q 178 396 169 383 l 383 732 l 422 732 l 256 457 l 440 0 l 404 0 l 232 422 l 135 274 l 135 0 l 99 0 l 99 1056 l 135 1056 l 135 501 z "},"l":{"ha":232,"x_min":99,"x_max":135,"o":"m 135 0 l 99 0 l 99 1056 l 135 1056 l 135 0 z "},"m":{"ha":844,"x_min":99,"x_max":749,"o":"m 596 746 q 708 692 667 746 q 749 519 749 638 l 749 0 l 713 0 l 713 517 q 678 668 713 624 q 594 713 644 713 q 485 647 526 713 q 443 474 443 581 l 443 0 l 407 0 l 407 493 q 392 627 407 579 q 350 694 376 675 q 290 713 324 713 q 203 676 238 713 q 151 583 168 639 q 135 468 135 528 l 135 0 l 99 0 l 99 732 l 125 732 l 129 594 l 132 594 q 160 662 143 626 q 208 722 176 697 q 290 746 239 746 q 392 701 361 746 q 431 599 424 656 l 435 599 q 492 703 456 661 q 596 746 528 746 z "},"n":{"ha":567,"x_min":99,"x_max":471,"o":"m 313 746 q 430 692 389 746 q 471 521 471 639 l 471 0 l 435 0 l 435 507 q 402 665 435 618 q 313 713 369 713 q 188 642 240 713 q 135 432 135 572 l 135 0 l 99 0 l 99 732 l 126 732 l 128 576 l 131 576 q 162 657 140 618 q 220 721 183 696 q 313 746 257 746 z "},"o":{"ha":560,"x_min":64,"x_max":496,"o":"m 496 367 q 483 198 496 269 q 443 79 469 126 q 376 9 417 32 q 283 -14 336 -14 q 188 10 229 -14 q 119 81 147 33 q 78 201 92 129 q 64 369 64 272 q 88 577 64 493 q 159 703 111 661 q 281 746 207 746 q 407 700 360 746 q 475 569 454 654 q 496 367 496 485 m 100 369 q 119 178 100 256 q 179 60 139 100 q 282 21 219 21 q 383 58 343 21 q 441 173 422 96 q 460 368 460 250 q 442 551 460 475 q 386 669 425 628 q 281 711 347 711 q 142 623 185 711 q 100 369 100 535 z "},"p":{"ha":588,"x_min":99,"x_max":525,"o":"m 317 746 q 472 654 419 746 q 525 375 525 563 q 499 154 525 240 q 424 27 472 68 q 313 -14 376 -14 q 222 11 258 -14 q 166 74 186 36 q 136 149 146 111 l 132 149 q 134 110 133 136 q 135 51 135 85 l 135 -322 l 99 -322 l 99 732 l 125 732 l 126 561 l 129 561 q 163 651 142 608 q 221 719 183 693 q 317 746 258 746 m 315 711 q 218 671 258 711 q 156 561 178 631 q 135 406 135 492 l 135 304 q 158 157 135 221 q 222 57 182 93 q 314 21 263 21 q 401 54 361 21 q 466 165 442 88 q 490 375 490 243 q 448 624 490 536 q 315 711 406 711 z "},"q":{"ha":586,"x_min":64,"x_max":489,"o":"m 453 42 q 454 90 453 57 q 457 153 456 122 l 453 153 q 391 33 433 81 q 275 -14 349 -14 q 119 81 174 -14 q 64 360 64 175 q 89 568 64 482 q 163 700 114 654 q 282 746 211 746 q 399 701 356 746 q 454 593 442 657 l 457 593 l 461 732 l 489 732 l 489 -322 l 453 -322 l 453 42 m 275 21 q 368 57 328 21 q 431 155 408 93 q 453 296 453 217 l 453 449 q 406 639 453 568 q 282 710 360 710 q 147 617 193 710 q 100 360 100 525 q 150 103 100 185 q 275 21 200 21 z "},"r":{"ha":364,"x_min":99,"x_max":351,"o":"m 289 743 q 320 740 303 743 q 351 728 338 736 l 340 694 q 318 703 332 699 q 289 707 304 707 q 222 677 251 707 q 174 599 193 647 q 144 495 154 551 q 135 385 135 439 l 135 0 l 99 0 l 99 732 l 126 732 l 133 568 l 136 568 q 165 646 147 606 q 213 715 182 686 q 289 743 243 743 z "},"s":{"ha":433,"x_min":50,"x_max":386,"o":"m 386 171 q 366 74 386 115 q 306 9 346 32 q 204 -14 265 -14 q 113 0 153 -14 q 50 29 74 14 l 50 72 q 121 36 81 50 q 204 22 161 22 q 313 62 278 22 q 349 174 349 101 q 333 252 349 222 q 289 305 318 282 q 218 353 260 328 q 134 410 171 382 q 76 476 97 439 q 54 567 54 513 q 100 693 54 640 q 243 746 146 746 q 319 736 283 746 q 382 708 356 726 l 364 676 q 308 702 342 693 q 242 711 275 711 q 132 674 174 711 q 90 565 90 636 q 106 496 90 525 q 151 442 121 467 q 225 389 181 417 q 307 334 271 361 q 365 269 343 307 q 386 171 386 232 z "},"t":{"ha":290,"x_min":29,"x_max":272,"o":"m 204 19 q 240 24 222 19 q 267 35 257 29 l 267 0 q 238 -10 253 -6 q 203 -14 222 -14 q 138 6 161 -14 q 107 63 115 25 q 99 156 99 100 l 99 699 l 29 699 l 29 724 l 96 733 l 106 911 l 135 911 l 135 732 l 272 732 l 272 699 l 135 699 l 135 150 q 149 51 135 83 q 204 19 163 19 z "},"u":{"ha":567,"x_min":96,"x_max":468,"o":"m 468 732 l 468 0 l 440 0 l 439 156 l 436 156 q 406 76 426 115 q 350 12 386 38 q 254 -14 314 -14 q 165 12 200 -14 q 113 90 131 38 q 96 221 96 142 l 96 732 l 132 732 l 132 232 q 165 71 132 121 q 257 21 197 21 q 349 53 310 21 q 410 150 389 85 q 432 317 432 215 l 432 732 l 468 732 z "},"v":{"ha":407,"x_min":7,"x_max":400,"o":"m 181 0 l 7 732 l 44 732 l 165 211 q 178 160 172 186 q 190 106 183 133 q 200 49 196 78 l 204 49 q 215 105 210 78 q 227 158 221 132 q 239 211 233 185 l 363 732 l 400 732 l 224 0 l 181 0 z "},"w":{"ha":711,"x_min":14,"x_max":697,"o":"m 386 542 q 379 575 382 558 q 373 608 376 592 q 367 639 369 624 q 361 669 364 654 l 360 669 q 354 638 357 654 q 349 606 351 622 q 342 574 346 590 q 335 542 339 558 l 218 0 l 178 0 l 14 732 l 49 732 l 164 218 q 176 166 171 192 q 186 116 181 140 q 197 67 192 92 l 200 67 q 205 99 201 79 q 213 140 208 118 q 222 185 217 163 q 231 226 226 207 l 340 732 l 381 732 l 490 217 q 501 166 496 192 q 510 115 506 140 q 518 65 515 90 l 521 65 q 532 128 528 106 q 540 167 536 150 q 549 210 543 185 l 663 732 l 697 732 l 536 0 l 500 0 l 386 542 z "},"x":{"ha":436,"x_min":24,"x_max":413,"o":"m 199 378 l 38 732 l 78 732 l 221 408 l 367 732 l 407 732 l 243 375 l 413 0 l 372 0 l 221 343 l 64 0 l 24 0 l 199 378 z "},"y":{"ha":439,"x_min":14,"x_max":425,"o":"m 32 732 l 68 732 l 201 194 q 217 130 213 150 q 222 101 221 110 q 225 82 224 92 l 228 82 q 242 149 236 124 q 254 197 249 175 l 389 732 l 425 732 l 197 -174 q 162 -270 182 -235 q 117 -321 142 -306 q 63 -336 92 -336 q 38 -333 49 -336 q 14 -325 26 -331 l 14 -286 q 38 -296 25 -292 q 63 -300 51 -300 q 98 -290 81 -300 q 132 -251 115 -279 q 161 -169 149 -222 l 208 18 l 32 732 z "},"z":{"ha":358,"x_min":40,"x_max":326,"o":"m 326 0 l 40 0 l 40 33 l 285 697 l 60 697 l 60 732 l 322 732 l 322 700 l 78 35 l 326 35 l 326 0 z "},"{":{"ha":481,"x_min":72,"x_max":410,"o":"m 410 -219 q 297 -201 342 -218 q 231 -142 253 -183 q 210 -26 210 -100 l 210 206 q 196 310 210 275 q 151 357 182 344 q 72 369 121 369 l 72 403 q 151 416 121 404 q 196 462 182 428 q 210 563 210 496 l 210 801 q 231 915 210 874 q 297 973 253 956 q 410 992 342 990 l 410 957 q 314 942 350 957 q 263 890 278 926 q 247 789 247 854 l 247 546 q 225 433 247 469 q 154 386 203 397 l 154 385 q 225 338 203 375 q 247 222 247 301 l 247 -15 q 263 -117 247 -81 q 314 -169 278 -154 q 410 -185 350 -185 l 410 -219 z "},"|":{"ha":525,"x_min":244,"x_max":281,"o":"m 244 1057 l 281 1057 l 281 -336 l 244 -336 l 244 1057 z "},"}":{"ha":481,"x_min":69,"x_max":407,"o":"m 69 -185 q 166 -169 131 -185 q 217 -117 201 -154 q 232 -15 232 -81 l 232 222 q 254 338 232 301 q 325 385 276 375 l 325 386 q 254 433 276 397 q 232 546 232 469 l 232 789 q 217 890 232 854 q 166 942 201 926 q 69 957 131 957 l 69 992 q 183 973 139 990 q 248 915 226 956 q 269 801 269 874 l 269 563 q 283 462 269 496 q 328 416 297 428 q 407 403 358 404 l 407 369 q 328 357 358 369 q 283 310 297 344 q 269 206 269 275 l 269 -26 q 248 -142 269 -100 q 183 -201 226 -183 q 69 -219 139 -218 l 69 -185 z "},"~":{"ha":554,"x_min":42,"x_max":513,"o":"m 281 472 q 228 501 254 489 q 171 514 203 514 q 104 497 136 514 q 42 440 72 479 l 42 486 q 97 531 65 513 q 172 549 129 549 q 234 537 207 549 q 289 507 261 525 q 338 480 317 490 q 386 469 358 469 q 453 486 419 469 q 513 538 488 503 l 513 492 q 460 451 492 468 q 388 435 428 435 q 329 447 354 435 q 281 472 304 458 z "}," ":{"ha":261,"x_min":0,"x_max":0,"o":""},"¡":{"ha":269,"x_min":100,"x_max":171,"o":"m 117 486 l 149 486 l 156 -269 l 113 -269 l 117 486 m 171 685 q 163 646 171 660 q 135 632 156 632 q 108 645 115 632 q 100 685 100 658 q 106 718 100 704 q 136 732 113 732 q 164 720 157 732 q 171 685 171 708 z "},"¢":{"ha":571,"x_min":114,"x_max":467,"o":"m 376 885 q 424 877 401 883 q 464 861 446 871 l 450 829 q 408 845 431 840 q 364 850 385 850 q 242 806 289 850 q 172 682 194 761 q 150 497 150 603 q 174 315 150 389 q 247 202 199 240 q 367 164 296 164 q 420 170 396 164 q 467 185 444 176 l 467 147 q 432 136 453 142 q 385 128 411 131 l 385 -14 l 350 -14 l 350 126 q 218 178 271 133 q 140 303 165 222 q 114 497 114 383 q 140 701 114 617 q 217 831 165 785 q 342 885 268 878 l 342 1006 l 376 1006 l 376 885 z "},"£":{"ha":536,"x_min":54,"x_max":482,"o":"m 343 1006 q 413 993 383 1006 q 468 956 442 981 l 446 929 q 391 963 415 956 q 343 971 367 971 q 237 919 271 971 q 203 751 203 867 l 203 508 l 371 508 l 371 474 l 203 474 l 203 246 q 192 148 203 190 q 160 77 181 106 q 111 35 139 49 l 482 35 l 482 0 l 56 0 l 56 32 q 117 72 93 46 q 154 143 142 99 q 167 253 167 188 l 167 474 l 54 474 l 54 508 l 167 508 l 167 761 q 182 885 167 831 q 236 973 197 940 q 343 1006 275 1006 z "},"¤":{"ha":782,"x_min":85,"x_max":697,"o":"m 125 490 q 142 588 125 542 q 189 669 158 635 l 85 775 l 106 796 l 210 692 q 294 743 250 726 q 389 760 339 760 q 481 744 435 760 q 568 694 528 729 l 674 794 l 696 774 l 592 671 q 643 587 626 632 q 660 492 660 542 q 645 399 660 449 q 593 308 631 349 l 697 206 l 675 185 l 571 286 q 484 238 532 253 q 390 224 436 224 q 297 239 343 224 q 211 289 250 254 l 107 186 l 86 208 l 189 311 q 140 397 156 351 q 125 490 125 443 m 157 490 q 189 363 157 417 q 274 281 221 310 q 393 253 328 253 q 513 282 460 253 q 597 365 565 311 q 628 488 628 418 q 595 615 628 561 q 508 700 563 669 q 390 731 454 731 q 276 702 329 731 q 190 620 222 674 q 157 490 157 567 z "},"¥":{"ha":547,"x_min":71,"x_max":474,"o":"m 272 472 l 439 992 l 474 992 l 293 438 l 454 438 l 454 404 l 290 404 l 290 249 l 454 249 l 454 215 l 290 215 l 290 0 l 254 0 l 254 215 l 92 215 l 92 249 l 254 249 l 254 404 l 92 404 l 92 438 l 251 438 l 71 992 l 107 992 l 272 472 z "},"¦":{"ha":525,"x_min":244,"x_max":281,"o":"m 244 1057 l 281 1057 l 281 522 l 244 522 l 244 1057 m 244 197 l 281 197 l 281 -339 l 244 -339 l 244 197 z "},"§":{"ha":458,"x_min":56,"x_max":392,"o":"m 68 576 q 108 678 68 640 q 194 735 147 717 q 110 810 146 771 q 74 911 74 850 q 115 1014 74 972 q 239 1056 156 1056 q 315 1045 279 1056 q 375 1019 350 1035 l 357 992 q 310 1014 340 1003 q 239 1025 279 1025 q 145 997 182 1025 q 108 911 108 968 q 126 843 108 872 q 174 790 143 814 q 243 739 204 765 q 320 685 288 711 q 371 628 353 660 q 389 547 389 596 q 365 453 389 489 q 307 392 340 417 q 369 326 347 361 q 392 240 392 292 q 342 115 392 164 q 203 67 293 67 q 120 77 161 67 q 56 101 79 88 l 56 140 q 96 119 72 129 q 147 104 119 110 q 203 99 175 99 q 316 138 276 99 q 356 240 356 176 q 331 325 356 293 q 265 379 306 357 q 181 425 225 401 q 124 463 150 443 q 83 510 99 482 q 68 576 68 538 m 101 578 q 113 525 101 547 q 148 485 125 503 q 203 450 171 468 l 281 408 q 331 454 306 422 q 356 542 356 486 q 342 606 356 578 q 299 661 328 635 q 221 715 269 688 q 140 670 178 701 q 101 578 101 639 z "},"¨":{"ha":733,"x_min":233,"x_max":499,"o":"m 233 921 q 242 953 233 939 q 268 967 251 967 q 292 953 283 967 q 301 921 301 940 q 292 889 301 901 q 268 876 283 876 q 242 890 251 876 q 233 921 233 903 m 429 922 q 439 953 429 940 q 464 967 449 967 q 489 954 479 967 q 499 922 499 942 q 489 890 499 903 q 464 876 479 876 q 439 890 449 876 q 429 922 429 904 z "},"©":{"ha":1153,"x_min":68,"x_max":1085,"o":"m 608 199 q 397 274 475 199 q 318 496 318 349 q 351 656 318 589 q 447 758 383 722 q 600 794 510 794 q 692 785 649 794 q 769 758 735 775 l 754 728 q 682 751 722 743 q 599 760 642 760 q 417 690 479 760 q 356 496 356 619 q 424 298 356 364 q 615 232 492 232 q 686 238 650 232 q 764 260 722 244 l 764 228 q 690 206 729 214 q 608 199 650 199 m 572 -11 q 364 26 457 -11 q 205 133 271 64 q 103 294 139 201 q 68 496 68 386 q 106 704 68 611 q 213 864 144 797 q 375 967 282 931 q 578 1003 468 1003 q 786 964 693 1003 q 946 856 879 925 q 1049 694 1013 786 q 1085 493 1085 601 q 1048 292 1085 385 q 944 132 1011 200 q 782 26 876 64 q 572 -11 688 -11 m 572 24 q 768 60 681 24 q 918 160 856 96 q 1015 310 981 225 q 1049 496 1049 396 q 1015 681 1049 594 q 919 831 982 767 q 769 932 857 896 q 575 968 682 968 q 385 933 471 968 q 235 835 299 899 q 138 685 172 772 q 104 496 104 599 q 137 310 104 396 q 231 159 169 224 q 378 59 292 94 q 572 24 465 24 z "},"ª":{"ha":365,"x_min":39,"x_max":289,"o":"m 185 1003 q 267 969 244 1003 q 289 878 289 935 l 289 560 l 265 560 l 261 638 q 217 575 247 596 q 150 554 186 554 q 92 568 117 554 q 53 608 67 582 q 39 674 39 635 q 57 746 39 719 q 110 786 75 772 q 196 804 146 800 l 257 810 l 257 867 q 240 949 257 926 q 182 972 222 972 q 133 963 156 972 q 92 943 110 954 l 81 972 q 128 994 101 985 q 185 1003 154 1003 m 210 776 q 105 751 140 771 q 69 674 69 731 q 91 606 69 629 q 150 583 113 583 q 229 624 201 583 q 257 732 257 665 l 257 781 l 210 776 z "},"«":{"ha":567,"x_min":56,"x_max":513,"o":"m 56 394 l 251 638 l 275 624 l 104 386 l 276 150 l 251 136 l 56 376 l 56 394 m 292 394 l 488 638 l 511 624 l 340 386 l 513 150 l 488 136 l 292 376 l 292 394 z "},"¬":{"ha":554,"x_min":47,"x_max":497,"o":"m 497 504 l 497 167 l 461 167 l 461 469 l 47 469 l 47 504 l 497 504 z "},"­":{"ha":365,"x_min":36,"x_max":329,"o":"m 36 360 l 36 397 l 329 397 l 329 360 l 36 360 z "},"®":{"ha":1153,"x_min":68,"x_max":1085,"o":"m 411 199 l 411 790 l 576 790 q 717 751 663 790 q 771 622 771 711 q 733 510 771 547 q 642 458 694 474 l 775 199 l 733 199 l 606 450 l 447 450 l 447 199 l 411 199 m 569 483 q 687 516 639 483 q 735 624 735 549 q 690 726 735 694 q 572 757 644 757 l 446 757 l 446 483 l 569 483 m 572 -11 q 364 26 457 -11 q 205 133 271 64 q 103 294 139 201 q 68 496 68 386 q 106 704 68 611 q 213 864 144 797 q 375 967 282 931 q 578 1003 468 1003 q 786 964 693 1003 q 946 856 879 925 q 1049 694 1013 786 q 1085 493 1085 601 q 1048 292 1085 385 q 944 132 1011 200 q 782 26 876 64 q 572 -11 688 -11 m 572 24 q 768 60 681 24 q 918 160 856 96 q 1015 310 981 225 q 1049 496 1049 396 q 1015 681 1049 594 q 919 831 982 767 q 769 932 857 896 q 575 968 682 968 q 385 933 471 968 q 235 835 299 899 q 138 685 172 772 q 104 496 104 599 q 137 310 104 396 q 231 159 169 224 q 378 59 292 94 q 572 24 465 24 z "},"¯":{"ha":539,"x_min":-6,"x_max":544,"o":"m 544 1056 l -6 1056 l -6 1092 l 544 1092 l 544 1056 z "},"°":{"ha":497,"x_min":79,"x_max":417,"o":"m 249 665 q 163 686 201 665 q 102 745 125 707 q 79 836 79 783 q 102 926 79 889 q 163 984 125 964 q 247 1004 201 1004 q 331 984 293 1004 q 393 926 369 964 q 417 835 417 889 q 394 745 417 783 q 334 686 372 707 q 249 665 296 665 m 247 696 q 344 735 306 696 q 383 836 383 775 q 345 935 383 897 q 246 974 307 974 q 149 935 186 974 q 113 836 113 896 q 152 734 113 772 q 247 696 192 696 z "},"±":{"ha":554,"x_min":40,"x_max":513,"o":"m 50 1 l 50 38 l 504 38 l 504 1 l 50 1 m 294 504 l 513 504 l 513 471 l 294 471 l 294 171 l 261 171 l 261 471 l 40 471 l 40 504 l 261 504 l 261 810 l 294 810 l 294 504 z "},"²":{"ha":397,"x_min":36,"x_max":353,"o":"m 353 575 l 36 575 l 36 606 l 160 768 q 229 860 197 817 q 281 945 261 903 q 301 1031 301 988 q 272 1117 301 1082 q 183 1153 243 1153 q 119 1138 149 1153 q 61 1099 89 1124 l 40 1122 q 105 1167 69 1150 q 183 1185 140 1185 q 297 1141 257 1185 q 336 1032 336 1097 q 319 948 336 989 q 269 861 301 907 q 189 753 236 815 l 76 607 l 353 607 l 353 575 z "},"³":{"ha":397,"x_min":46,"x_max":349,"o":"m 188 1181 q 293 1144 253 1181 q 333 1039 333 1108 q 303 943 333 979 q 232 892 274 907 l 232 890 q 318 837 288 875 q 349 736 349 799 q 299 613 349 656 q 163 569 249 569 q 100 576 131 569 q 46 593 69 582 l 46 631 q 103 609 74 617 q 163 601 132 601 q 276 639 238 601 q 314 736 314 676 q 277 833 314 796 q 167 871 240 871 l 121 871 l 121 903 l 167 903 q 263 941 228 903 q 299 1039 299 979 q 270 1120 299 1092 q 188 1149 242 1149 q 121 1135 150 1149 q 67 1100 92 1122 l 47 1126 q 110 1165 75 1150 q 188 1181 144 1181 z "},"´":{"ha":307,"x_min":56,"x_max":251,"o":"m 251 1050 q 213 997 235 1025 q 166 940 190 968 q 119 886 142 911 q 75 842 96 861 l 56 842 l 56 858 q 113 928 88 896 q 163 992 139 960 q 210 1060 186 1024 l 251 1060 l 251 1050 z "},"µ":{"ha":569,"x_min":99,"x_max":471,"o":"m 471 732 l 471 0 l 444 0 l 440 156 l 438 156 q 408 78 428 118 q 353 13 389 39 q 257 -14 317 -14 q 181 4 211 -14 q 131 63 150 22 l 128 63 q 132 10 131 35 q 133 -35 133 -14 q 133 -75 133 -56 l 133 -322 l 99 -322 l 99 732 l 135 732 l 135 232 q 167 71 135 121 q 260 21 200 21 q 352 53 313 21 q 413 150 392 85 q 435 317 435 215 l 435 732 l 471 732 z "},"¶":{"ha":583,"x_min":100,"x_max":449,"o":"m 449 -176 l 415 -176 l 415 1018 l 286 1018 l 286 -176 l 253 -176 l 253 493 q 233 484 242 488 q 210 481 224 481 q 148 519 172 481 q 112 622 124 557 q 100 769 100 688 q 115 924 100 860 q 162 1022 129 988 q 246 1056 194 1056 l 449 1056 l 449 -176 z "},"·":{"ha":250,"x_min":90,"x_max":161,"o":"m 90 464 q 97 498 90 483 q 125 513 104 513 q 153 500 144 513 q 161 464 161 488 q 153 427 161 440 q 125 414 144 414 q 97 428 104 414 q 90 464 90 442 z "},"¸":{"ha":313,"x_min":39,"x_max":256,"o":"m 256 -201 q 215 -297 256 -261 q 103 -333 174 -333 q 72 -331 90 -333 q 39 -325 54 -329 l 39 -292 q 72 -299 54 -296 q 103 -301 89 -301 q 186 -276 151 -301 q 221 -201 221 -250 q 185 -133 221 -153 q 92 -112 149 -114 l 139 0 l 175 0 l 139 -86 q 203 -106 178 -90 q 242 -146 229 -122 q 256 -201 256 -169 z "},"¹":{"ha":397,"x_min":56,"x_max":242,"o":"m 242 1169 l 242 575 l 207 575 l 207 1000 q 208 1044 207 1021 q 209 1090 208 1068 q 211 1129 210 1113 q 188 1113 199 1119 q 171 1100 178 1106 l 72 1036 l 56 1061 l 217 1169 l 242 1169 z "},"º":{"ha":404,"x_min":47,"x_max":357,"o":"m 357 779 q 319 615 357 681 q 201 550 282 550 q 86 613 125 550 q 47 778 47 675 q 89 944 47 882 q 207 1006 131 1006 q 292 976 260 1006 q 341 897 325 947 q 357 779 357 846 m 81 775 q 110 631 81 683 q 201 579 139 579 q 294 633 265 579 q 324 775 324 688 q 296 920 324 865 q 206 975 268 975 q 115 924 149 975 q 81 775 81 874 z "},"»":{"ha":551,"x_min":56,"x_max":497,"o":"m 497 376 l 301 136 l 276 150 l 449 386 l 276 624 l 301 638 l 497 394 l 497 376 m 276 376 l 81 136 l 56 150 l 228 386 l 56 624 l 81 638 l 276 394 l 276 376 z "},"¼":{"ha":874,"x_min":35,"x_max":856,"o":"m 181 0 l 668 992 l 707 992 l 219 0 l 181 0 m 186 822 q 187 867 186 843 q 188 913 188 890 q 190 951 189 935 q 167 935 178 942 q 150 922 157 928 l 51 858 l 35 883 l 196 992 l 221 992 l 221 397 l 186 397 l 186 822 m 739 0 l 739 164 l 513 164 l 513 189 l 746 599 l 772 599 l 772 196 l 856 196 l 856 164 l 772 164 l 772 0 l 739 0 m 551 196 l 739 196 l 739 464 q 739 506 739 493 q 739 533 739 519 q 728 509 733 521 q 713 481 722 497 l 551 196 z "},"½":{"ha":983,"x_min":35,"x_max":939,"o":"m 172 0 l 660 992 l 699 992 l 211 0 l 172 0 m 186 822 q 186 855 186 838 q 187 890 186 872 q 188 923 188 907 q 190 951 189 939 q 167 935 178 942 q 150 922 157 928 l 51 858 l 35 883 l 196 992 l 221 992 l 221 397 l 186 397 l 186 822 m 622 0 l 622 31 l 746 193 q 816 285 783 242 q 868 370 849 328 q 888 456 888 413 q 858 542 888 507 q 769 578 829 578 q 705 563 735 578 q 647 524 675 549 l 626 547 q 691 592 656 575 q 769 610 726 610 q 883 566 843 610 q 922 457 922 522 q 905 373 922 414 q 855 286 888 332 q 775 178 822 240 l 663 32 l 939 32 l 939 0 l 622 0 z "},"¾":{"ha":885,"x_min":32,"x_max":867,"o":"m 211 0 l 699 992 l 738 992 l 250 0 l 211 0 m 149 393 q 86 399 117 393 q 32 417 56 406 l 32 454 q 89 433 60 440 q 149 425 118 425 q 262 463 224 425 q 300 560 300 500 q 263 657 300 619 q 153 694 226 694 l 107 694 l 107 726 l 153 726 q 249 765 214 726 q 285 863 285 803 q 256 944 285 915 q 174 972 228 972 q 107 959 136 972 q 53 924 78 946 l 33 950 q 96 989 61 974 q 174 1004 131 1004 q 279 968 239 1004 q 319 863 319 932 q 290 767 319 803 q 218 715 260 731 l 218 714 q 304 660 274 699 q 335 560 335 622 q 285 436 335 479 q 149 393 235 393 m 750 0 l 750 164 l 524 164 l 524 189 l 757 599 l 783 599 l 783 196 l 867 196 l 867 164 l 783 164 l 783 0 l 750 0 m 563 196 l 750 196 l 750 464 q 750 506 750 493 q 750 533 750 519 q 739 509 744 521 q 724 481 733 497 l 563 196 z "},"¿":{"ha":365,"x_min":32,"x_max":342,"o":"m 247 458 q 241 363 247 403 q 219 287 235 322 q 174 208 203 251 q 119 124 143 164 q 83 41 96 85 q 69 -61 69 -3 q 106 -199 69 -154 q 207 -244 142 -244 q 269 -235 239 -244 q 324 -207 299 -225 l 342 -236 q 282 -267 318 -254 q 206 -279 246 -279 q 81 -226 129 -279 q 32 -58 32 -172 q 48 58 32 10 q 90 144 64 106 q 142 222 115 183 q 190 306 175 271 q 210 378 206 342 q 214 460 214 414 l 214 490 l 247 490 l 247 458 m 265 686 q 258 651 265 665 q 229 636 251 636 q 203 649 211 636 q 194 683 194 661 q 203 722 194 708 q 231 735 213 735 q 258 721 251 735 q 265 686 265 707 z "},"À":{"ha":524,"x_min":0,"x_max":524,"o":"m 488 0 l 394 390 l 131 390 l 36 0 l 0 0 l 236 992 l 289 992 l 524 0 l 488 0 m 289 850 q 279 892 283 874 q 271 928 275 910 q 263 965 267 946 q 254 928 258 946 q 246 892 250 911 q 236 850 242 874 l 139 425 l 386 425 l 289 850 m 206 1319 q 256 1247 231 1282 q 310 1181 282 1213 q 364 1117 338 1149 l 364 1101 l 342 1101 q 298 1146 322 1121 q 249 1199 274 1171 q 202 1255 225 1226 q 163 1310 179 1283 l 163 1319 l 206 1319 z "},"Á":{"ha":524,"x_min":0,"x_max":524,"o":"m 488 0 l 394 390 l 131 390 l 36 0 l 0 0 l 236 992 l 289 992 l 524 0 l 488 0 m 289 850 q 279 892 283 874 q 271 928 275 910 q 263 965 267 946 q 254 928 258 946 q 246 892 250 911 q 236 850 242 874 l 139 425 l 386 425 l 289 850 m 403 1310 q 364 1256 386 1285 q 317 1199 342 1228 q 270 1146 293 1171 q 226 1101 247 1121 l 207 1101 l 207 1118 q 265 1188 239 1156 q 314 1251 290 1219 q 361 1319 338 1283 l 403 1319 l 403 1310 z "},"Â":{"ha":524,"x_min":0,"x_max":524,"o":"m 488 0 l 394 390 l 131 390 l 36 0 l 0 0 l 236 992 l 289 992 l 524 0 l 488 0 m 289 850 q 279 892 283 874 q 271 928 275 910 q 263 965 267 946 q 254 928 258 946 q 246 892 250 911 q 236 850 242 874 l 139 425 l 386 425 l 289 850 m 283 1319 q 327 1243 301 1288 q 376 1162 353 1199 q 407 1111 399 1125 l 407 1101 l 386 1101 q 324 1187 357 1138 q 263 1278 290 1236 q 202 1188 236 1239 q 140 1101 168 1136 l 118 1101 l 118 1111 q 156 1171 133 1133 q 201 1249 178 1208 q 242 1319 225 1289 l 283 1319 z "},"Ã":{"ha":524,"x_min":0,"x_max":524,"o":"m 488 0 l 394 390 l 131 390 l 36 0 l 0 0 l 236 992 l 289 992 l 524 0 l 488 0 m 289 850 q 279 892 283 874 q 271 928 275 910 q 263 965 267 946 q 254 928 258 946 q 246 892 250 911 q 236 850 242 874 l 139 425 l 386 425 l 289 850 m 82 1117 q 93 1173 85 1150 q 115 1210 101 1196 q 144 1232 128 1225 q 178 1239 160 1239 q 228 1225 207 1239 q 268 1194 250 1211 q 305 1163 286 1176 q 346 1149 324 1149 q 392 1173 374 1149 q 413 1240 410 1197 l 443 1240 q 413 1147 442 1176 q 346 1117 385 1117 q 295 1131 317 1117 q 255 1162 274 1144 q 218 1193 236 1179 q 178 1207 200 1207 q 135 1185 154 1207 q 114 1117 117 1164 l 82 1117 z "},"Ä":{"ha":524,"x_min":0,"x_max":524,"o":"m 488 0 l 394 390 l 131 390 l 36 0 l 0 0 l 236 992 l 289 992 l 524 0 l 488 0 m 289 850 q 279 892 283 874 q 271 928 275 910 q 263 965 267 946 q 254 928 258 946 q 246 892 250 911 q 236 850 242 874 l 139 425 l 386 425 l 289 850 m 131 1181 q 140 1213 131 1199 q 165 1226 149 1226 q 190 1213 181 1226 q 199 1181 199 1200 q 190 1149 199 1161 q 165 1136 181 1136 q 140 1149 149 1136 q 131 1181 131 1163 m 326 1182 q 336 1213 326 1200 q 361 1226 346 1226 q 386 1214 376 1226 q 396 1182 396 1201 q 386 1149 396 1163 q 361 1136 376 1136 q 336 1150 346 1136 q 326 1182 326 1164 z "},"Å":{"ha":524,"x_min":0,"x_max":524,"o":"m 488 0 l 394 390 l 131 390 l 36 0 l 0 0 l 236 992 l 289 992 l 524 0 l 488 0 m 289 850 q 279 892 283 874 q 271 928 275 910 q 263 965 267 946 q 254 928 258 946 q 246 892 250 911 q 236 850 242 874 l 139 425 l 386 425 l 289 850 m 263 971 q 176 1002 213 971 q 140 1090 140 1033 q 175 1178 140 1147 q 260 1210 210 1210 q 347 1177 313 1210 q 382 1089 382 1144 q 349 1003 382 1035 q 263 971 315 971 m 263 1001 q 326 1026 303 1001 q 350 1089 350 1050 q 326 1154 350 1129 q 260 1179 301 1179 q 194 1154 217 1179 q 172 1090 172 1129 q 195 1028 172 1054 q 263 1001 218 1001 z "},"Æ":{"ha":792,"x_min":0,"x_max":725,"o":"m 725 0 l 315 0 l 315 389 l 149 389 l 40 0 l 0 0 l 281 992 l 725 992 l 725 957 l 351 957 l 351 539 l 707 539 l 707 504 l 351 504 l 351 35 l 725 35 l 725 0 m 156 424 l 315 424 l 315 956 l 306 956 l 156 424 z "},"Ç":{"ha":576,"x_min":75,"x_max":543,"o":"m 396 971 q 264 931 318 971 q 176 823 210 890 q 128 671 143 756 q 113 496 113 586 q 148 247 113 354 q 248 81 183 140 q 401 21 313 21 q 485 34 449 21 q 542 60 521 47 l 542 22 q 478 -3 515 7 q 401 -14 442 -14 q 229 48 303 -14 q 115 224 156 110 q 75 497 75 339 q 92 688 75 596 q 148 851 110 779 q 247 964 186 922 q 396 1006 308 1006 q 472 996 436 1006 q 543 967 508 986 l 525 935 q 458 963 492 956 q 396 971 424 971 m 488 -201 q 447 -297 488 -261 q 335 -333 406 -333 q 304 -331 322 -333 q 271 -325 286 -329 l 271 -292 q 303 -299 286 -296 q 335 -301 321 -301 q 418 -276 383 -301 q 453 -201 453 -250 q 417 -133 453 -153 q 324 -112 381 -114 l 371 0 l 407 0 l 371 -86 q 435 -106 410 -90 q 474 -146 461 -122 q 488 -201 488 -169 z "},"È":{"ha":529,"x_min":108,"x_max":463,"o":"m 463 0 l 108 0 l 108 992 l 463 992 l 463 957 l 144 957 l 144 539 l 444 539 l 444 504 l 144 504 l 144 35 l 463 35 l 463 0 m 243 1319 q 294 1247 268 1282 q 347 1181 319 1213 q 401 1117 375 1149 l 401 1101 l 379 1101 q 335 1146 360 1121 q 287 1199 311 1171 q 240 1255 263 1226 q 200 1310 217 1283 l 200 1319 l 243 1319 z "},"É":{"ha":529,"x_min":108,"x_max":463,"o":"m 463 0 l 108 0 l 108 992 l 463 992 l 463 957 l 144 957 l 144 539 l 444 539 l 444 504 l 144 504 l 144 35 l 463 35 l 463 0 m 440 1310 q 401 1256 424 1285 q 355 1199 379 1228 q 308 1146 331 1171 q 264 1101 285 1121 l 244 1101 l 244 1118 q 302 1188 276 1156 q 351 1251 328 1219 q 399 1319 375 1283 l 440 1319 l 440 1310 z "},"Ê":{"ha":529,"x_min":108,"x_max":463,"o":"m 463 0 l 108 0 l 108 992 l 463 992 l 463 957 l 144 957 l 144 539 l 444 539 l 444 504 l 144 504 l 144 35 l 463 35 l 463 0 m 321 1319 q 365 1243 339 1288 q 413 1162 390 1199 q 444 1111 436 1125 l 444 1101 l 424 1101 q 361 1187 394 1138 q 300 1278 328 1236 q 240 1188 274 1239 q 178 1101 206 1136 l 156 1101 l 156 1111 q 193 1171 171 1133 q 239 1249 215 1208 q 279 1319 263 1289 l 321 1319 z "},"Ë":{"ha":529,"x_min":108,"x_max":463,"o":"m 463 0 l 108 0 l 108 992 l 463 992 l 463 957 l 144 957 l 144 539 l 444 539 l 444 504 l 144 504 l 144 35 l 463 35 l 463 0 m 168 1181 q 177 1213 168 1199 q 203 1226 186 1226 q 227 1213 218 1226 q 236 1181 236 1200 q 227 1149 236 1161 q 203 1136 218 1136 q 177 1149 186 1136 q 168 1181 168 1163 m 364 1182 q 374 1213 364 1200 q 399 1226 383 1226 q 424 1214 414 1226 q 433 1182 433 1201 q 424 1149 433 1163 q 399 1136 414 1136 q 374 1150 383 1136 q 364 1182 364 1164 z "},"Ì":{"ha":304,"x_min":53,"x_max":254,"o":"m 251 0 l 53 0 l 53 26 l 136 31 l 136 960 l 53 965 l 53 992 l 251 992 l 251 965 l 171 960 l 171 31 l 251 26 l 251 0 m 96 1319 q 147 1247 121 1282 q 200 1181 172 1213 q 254 1117 228 1149 l 254 1101 l 232 1101 q 188 1146 213 1121 q 140 1199 164 1171 q 92 1255 115 1226 q 53 1310 69 1283 l 53 1319 l 96 1319 z "},"Í":{"ha":304,"x_min":53,"x_max":293,"o":"m 251 0 l 53 0 l 53 26 l 136 31 l 136 960 l 53 965 l 53 992 l 251 992 l 251 965 l 171 960 l 171 31 l 251 26 l 251 0 m 293 1310 q 254 1256 276 1285 q 208 1199 232 1228 q 160 1146 183 1171 q 117 1101 138 1121 l 97 1101 l 97 1118 q 155 1188 129 1156 q 204 1251 181 1219 q 251 1319 228 1283 l 293 1319 l 293 1310 z "},"Î":{"ha":304,"x_min":8,"x_max":297,"o":"m 251 0 l 53 0 l 53 26 l 136 31 l 136 960 l 53 965 l 53 992 l 251 992 l 251 965 l 171 960 l 171 31 l 251 26 l 251 0 m 174 1319 q 217 1243 192 1288 q 266 1162 243 1199 q 297 1111 289 1125 l 297 1101 l 276 1101 q 214 1187 247 1138 q 153 1278 181 1236 q 92 1188 126 1239 q 31 1101 58 1136 l 8 1101 l 8 1111 q 46 1171 24 1133 q 92 1249 68 1208 q 132 1319 115 1289 l 174 1319 z "},"Ï":{"ha":304,"x_min":21,"x_max":286,"o":"m 251 0 l 53 0 l 53 26 l 136 31 l 136 960 l 53 965 l 53 992 l 251 992 l 251 965 l 171 960 l 171 31 l 251 26 l 251 0 m 21 1181 q 30 1213 21 1199 q 56 1226 39 1226 q 80 1213 71 1226 q 89 1181 89 1200 q 80 1149 89 1161 q 56 1136 71 1136 q 30 1149 39 1136 q 21 1181 21 1163 m 217 1182 q 226 1213 217 1200 q 251 1226 236 1226 q 276 1214 267 1226 q 286 1182 286 1201 q 276 1149 286 1163 q 251 1136 267 1136 q 226 1150 236 1136 q 217 1182 217 1164 z "},"Ð":{"ha":665,"x_min":42,"x_max":590,"o":"m 274 992 q 454 938 385 992 q 557 775 524 883 q 590 506 590 667 q 557 226 590 339 q 453 57 524 114 q 272 0 383 0 l 118 0 l 118 504 l 42 504 l 42 539 l 118 539 l 118 992 l 274 992 m 271 957 l 154 957 l 154 539 l 346 539 l 346 504 l 154 504 l 154 35 l 269 35 q 486 153 419 35 q 553 503 553 272 q 526 749 553 647 q 438 903 499 850 q 271 957 376 957 z "},"Ñ":{"ha":700,"x_min":108,"x_max":593,"o":"m 593 0 l 551 0 l 146 922 l 143 922 q 144 881 144 904 q 144 829 144 858 q 144 761 144 800 l 144 0 l 108 0 l 108 992 l 151 992 l 556 75 l 558 75 q 558 140 558 107 q 558 202 558 172 q 557 251 557 232 l 557 992 l 593 992 l 593 0 m 169 1117 q 181 1173 172 1150 q 202 1210 189 1196 q 231 1232 215 1225 q 265 1239 247 1239 q 316 1225 294 1239 q 356 1194 338 1211 q 392 1163 374 1176 q 433 1149 411 1149 q 479 1173 461 1149 q 500 1240 497 1197 l 531 1240 q 501 1147 529 1176 q 433 1117 472 1117 q 383 1131 404 1117 q 342 1162 361 1144 q 306 1193 324 1179 q 265 1207 288 1207 q 223 1185 242 1207 q 201 1117 204 1164 l 169 1117 z "},"Ò":{"ha":710,"x_min":75,"x_max":635,"o":"m 635 497 q 622 305 635 397 q 578 141 610 213 q 494 28 547 69 q 357 -14 440 -14 q 219 29 274 -14 q 133 145 164 72 q 88 310 101 218 q 75 497 75 401 q 108 780 75 667 q 203 949 140 893 q 357 1006 267 1006 q 520 940 460 1006 q 608 759 581 874 q 635 497 635 644 m 111 497 q 140 240 111 347 q 223 77 168 133 q 357 21 278 21 q 492 76 439 21 q 572 237 546 131 q 599 497 599 343 q 539 848 599 725 q 357 971 479 971 q 219 915 274 971 q 138 753 164 860 q 111 497 111 647 m 299 1319 q 349 1247 324 1282 q 403 1181 375 1213 q 457 1117 431 1149 l 457 1101 l 435 1101 q 391 1146 415 1121 q 342 1199 367 1171 q 295 1255 318 1226 q 256 1310 272 1283 l 256 1319 l 299 1319 z "},"Ó":{"ha":710,"x_min":75,"x_max":635,"o":"m 635 497 q 622 305 635 397 q 578 141 610 213 q 494 28 547 69 q 357 -14 440 -14 q 219 29 274 -14 q 133 145 164 72 q 88 310 101 218 q 75 497 75 401 q 108 780 75 667 q 203 949 140 893 q 357 1006 267 1006 q 520 940 460 1006 q 608 759 581 874 q 635 497 635 644 m 111 497 q 140 240 111 347 q 223 77 168 133 q 357 21 278 21 q 492 76 439 21 q 572 237 546 131 q 599 497 599 343 q 539 848 599 725 q 357 971 479 971 q 219 915 274 971 q 138 753 164 860 q 111 497 111 647 m 496 1310 q 457 1256 479 1285 q 410 1199 435 1228 q 363 1146 386 1171 q 319 1101 340 1121 l 300 1101 l 300 1118 q 358 1188 332 1156 q 407 1251 383 1219 q 454 1319 431 1283 l 496 1319 l 496 1310 z "},"Ô":{"ha":710,"x_min":75,"x_max":635,"o":"m 635 497 q 622 305 635 397 q 578 141 610 213 q 494 28 547 69 q 357 -14 440 -14 q 219 29 274 -14 q 133 145 164 72 q 88 310 101 218 q 75 497 75 401 q 108 780 75 667 q 203 949 140 893 q 357 1006 267 1006 q 520 940 460 1006 q 608 759 581 874 q 635 497 635 644 m 111 497 q 140 240 111 347 q 223 77 168 133 q 357 21 278 21 q 492 76 439 21 q 572 237 546 131 q 599 497 599 343 q 539 848 599 725 q 357 971 479 971 q 219 915 274 971 q 138 753 164 860 q 111 497 111 647 m 376 1319 q 420 1243 394 1288 q 469 1162 446 1199 q 500 1111 492 1125 l 500 1101 l 479 1101 q 417 1187 450 1138 q 356 1278 383 1236 q 295 1188 329 1239 q 233 1101 261 1136 l 211 1101 l 211 1111 q 249 1171 226 1133 q 294 1249 271 1208 q 335 1319 318 1289 l 376 1319 z "},"Õ":{"ha":710,"x_min":75,"x_max":635,"o":"m 635 497 q 622 305 635 397 q 578 141 610 213 q 494 28 547 69 q 357 -14 440 -14 q 219 29 274 -14 q 133 145 164 72 q 88 310 101 218 q 75 497 75 401 q 108 780 75 667 q 203 949 140 893 q 357 1006 267 1006 q 520 940 460 1006 q 608 759 581 874 q 635 497 635 644 m 111 497 q 140 240 111 347 q 223 77 168 133 q 357 21 278 21 q 492 76 439 21 q 572 237 546 131 q 599 497 599 343 q 539 848 599 725 q 357 971 479 971 q 219 915 274 971 q 138 753 164 860 q 111 497 111 647 m 175 1117 q 186 1173 178 1150 q 208 1210 194 1196 q 237 1232 221 1225 q 271 1239 253 1239 q 322 1225 300 1239 q 361 1194 343 1211 q 398 1163 379 1176 q 439 1149 417 1149 q 485 1173 467 1149 q 506 1240 503 1197 l 536 1240 q 506 1147 535 1176 q 439 1117 478 1117 q 388 1131 410 1117 q 348 1162 367 1144 q 311 1193 329 1179 q 271 1207 293 1207 q 228 1185 247 1207 q 207 1117 210 1164 l 175 1117 z "},"Ö":{"ha":710,"x_min":75,"x_max":635,"o":"m 635 497 q 622 305 635 397 q 578 141 610 213 q 494 28 547 69 q 357 -14 440 -14 q 219 29 274 -14 q 133 145 164 72 q 88 310 101 218 q 75 497 75 401 q 108 780 75 667 q 203 949 140 893 q 357 1006 267 1006 q 520 940 460 1006 q 608 759 581 874 q 635 497 635 644 m 111 497 q 140 240 111 347 q 223 77 168 133 q 357 21 278 21 q 492 76 439 21 q 572 237 546 131 q 599 497 599 343 q 539 848 599 725 q 357 971 479 971 q 219 915 274 971 q 138 753 164 860 q 111 497 111 647 m 224 1181 q 233 1213 224 1199 q 258 1226 242 1226 q 283 1213 274 1226 q 292 1181 292 1200 q 283 1149 292 1161 q 258 1136 274 1136 q 233 1149 242 1136 q 224 1181 224 1163 m 419 1182 q 429 1213 419 1200 q 454 1226 439 1226 q 479 1214 469 1226 q 489 1182 489 1201 q 479 1149 489 1163 q 454 1136 469 1136 q 429 1150 439 1136 q 419 1182 419 1164 z "},"×":{"ha":554,"x_min":56,"x_max":499,"o":"m 476 714 l 499 693 l 299 492 l 496 292 l 474 269 l 276 469 l 76 268 l 56 290 l 256 492 l 58 692 l 81 714 l 278 514 l 476 714 z "},"Ø":{"ha":747,"x_min":67,"x_max":690,"o":"m 667 497 q 654 305 667 397 q 610 141 642 213 q 526 28 579 69 q 389 -14 472 -14 q 274 15 322 -14 q 193 93 225 44 l 97 -86 l 67 -69 l 172 129 q 122 299 136 203 q 107 497 107 396 q 140 780 107 667 q 235 949 172 893 q 389 1006 299 1006 q 501 978 454 1006 q 582 901 549 950 l 658 1044 l 690 1029 l 603 865 q 651 703 636 797 q 667 497 667 608 m 631 497 q 582 825 631 704 l 214 133 q 290 49 246 78 q 389 21 333 21 q 524 76 471 21 q 604 237 578 131 q 631 497 631 343 m 143 497 q 156 314 143 396 q 194 172 169 232 l 563 864 q 489 944 532 917 q 389 971 446 971 q 251 915 306 971 q 170 753 197 860 q 143 497 143 647 z "},"Ù":{"ha":675,"x_min":100,"x_max":575,"o":"m 575 301 q 543 112 575 181 q 458 15 511 43 q 338 -14 404 -14 q 162 62 224 -14 q 100 301 100 138 l 100 992 l 136 992 l 136 307 q 190 86 136 151 q 338 21 243 21 q 442 47 397 21 q 513 135 488 72 q 539 307 539 197 l 539 992 l 575 992 l 575 301 m 281 1319 q 331 1247 306 1282 q 385 1181 357 1213 q 439 1117 413 1149 l 439 1101 l 417 1101 q 373 1146 397 1121 q 324 1199 349 1171 q 277 1255 300 1226 q 238 1310 254 1283 l 238 1319 l 281 1319 z "},"Ú":{"ha":675,"x_min":100,"x_max":575,"o":"m 575 301 q 543 112 575 181 q 458 15 511 43 q 338 -14 404 -14 q 162 62 224 -14 q 100 301 100 138 l 100 992 l 136 992 l 136 307 q 190 86 136 151 q 338 21 243 21 q 442 47 397 21 q 513 135 488 72 q 539 307 539 197 l 539 992 l 575 992 l 575 301 m 478 1310 q 439 1256 461 1285 q 392 1199 417 1228 q 345 1146 368 1171 q 301 1101 322 1121 l 282 1101 l 282 1118 q 340 1188 314 1156 q 389 1251 365 1219 q 436 1319 413 1283 l 478 1319 l 478 1310 z "},"Û":{"ha":675,"x_min":100,"x_max":575,"o":"m 575 301 q 543 112 575 181 q 458 15 511 43 q 338 -14 404 -14 q 162 62 224 -14 q 100 301 100 138 l 100 992 l 136 992 l 136 307 q 190 86 136 151 q 338 21 243 21 q 442 47 397 21 q 513 135 488 72 q 539 307 539 197 l 539 992 l 575 992 l 575 301 m 358 1319 q 402 1243 376 1288 q 451 1162 428 1199 q 482 1111 474 1125 l 482 1101 l 461 1101 q 399 1187 432 1138 q 338 1278 365 1236 q 277 1188 311 1239 q 215 1101 243 1136 l 193 1101 l 193 1111 q 231 1171 208 1133 q 276 1249 253 1208 q 317 1319 300 1289 l 358 1319 z "},"Ü":{"ha":675,"x_min":100,"x_max":575,"o":"m 575 301 q 543 112 575 181 q 458 15 511 43 q 338 -14 404 -14 q 162 62 224 -14 q 100 301 100 138 l 100 992 l 136 992 l 136 307 q 190 86 136 151 q 338 21 243 21 q 442 47 397 21 q 513 135 488 72 q 539 307 539 197 l 539 992 l 575 992 l 575 301 m 206 1181 q 215 1213 206 1199 q 240 1226 224 1226 q 265 1213 256 1226 q 274 1181 274 1200 q 265 1149 274 1161 q 240 1136 256 1136 q 215 1149 224 1136 q 206 1181 206 1163 m 401 1182 q 411 1213 401 1200 q 436 1226 421 1226 q 461 1214 451 1226 q 471 1182 471 1201 q 461 1149 471 1163 q 436 1136 451 1136 q 411 1150 421 1136 q 401 1182 401 1164 z "},"Ý":{"ha":438,"x_min":0,"x_max":438,"o":"m 219 438 l 400 992 l 438 992 l 238 386 l 238 0 l 201 0 l 201 386 l 0 992 l 38 992 l 219 438 m 360 1310 q 321 1256 343 1285 q 274 1199 299 1228 q 227 1146 250 1171 q 183 1101 204 1121 l 164 1101 l 164 1118 q 222 1188 196 1156 q 271 1251 247 1219 q 318 1319 294 1283 l 360 1319 l 360 1310 z "},"Þ":{"ha":551,"x_min":108,"x_max":507,"o":"m 507 535 q 492 404 507 460 q 445 311 476 349 q 365 255 414 274 q 247 236 315 236 l 144 236 l 144 0 l 108 0 l 108 992 l 144 992 l 144 804 l 260 804 q 447 744 386 804 q 507 535 507 683 m 240 271 q 374 301 324 271 q 447 390 424 331 q 469 535 469 449 q 420 716 469 663 q 253 769 371 769 l 144 769 l 144 271 l 240 271 z "},"ß":{"ha":521,"x_min":99,"x_max":474,"o":"m 411 901 q 399 819 411 854 q 367 758 386 785 q 330 708 349 732 q 299 656 311 683 q 286 593 286 629 q 299 523 286 553 q 332 466 311 493 q 378 407 353 439 q 428 335 407 369 q 462 267 450 301 q 474 188 474 232 q 456 88 474 135 q 399 14 438 42 q 300 -14 361 -14 q 242 -6 271 -14 q 190 18 213 1 l 190 56 q 227 36 208 44 q 264 24 246 28 q 300 21 282 21 q 401 69 367 21 q 436 188 436 117 q 424 264 436 231 q 391 327 411 297 q 344 389 371 357 q 297 453 319 422 q 262 519 275 485 q 249 593 249 553 q 261 663 249 633 q 292 718 274 693 q 330 769 311 743 q 361 827 349 796 q 374 901 374 858 q 347 991 374 954 q 267 1028 321 1028 q 190 1000 219 1028 q 148 922 161 972 q 135 803 135 871 l 135 0 l 99 0 l 99 807 q 117 946 99 889 q 172 1033 135 1003 q 267 1063 210 1063 q 347 1041 315 1063 q 395 983 379 1019 q 411 901 411 946 z "},"à":{"ha":508,"x_min":53,"x_max":413,"o":"m 246 746 q 373 690 333 746 q 413 497 413 633 l 413 0 l 383 0 l 382 129 l 379 129 q 353 62 371 94 q 303 8 336 29 q 218 -14 271 -14 q 124 13 160 -14 q 70 85 88 40 q 53 179 53 129 q 115 344 53 289 q 292 413 178 399 l 376 422 l 376 493 q 346 665 376 618 q 246 711 315 711 q 188 703 221 711 q 115 671 154 694 l 100 701 q 172 734 133 722 q 246 746 211 746 m 290 381 q 138 320 188 369 q 89 179 89 271 q 124 59 89 101 q 218 17 158 17 q 342 97 306 17 q 378 306 378 178 l 378 390 l 290 381 m 197 1060 q 248 988 222 1022 q 301 921 274 953 q 356 857 329 889 l 356 842 l 333 842 q 290 886 314 861 q 241 939 265 911 q 194 995 217 967 q 154 1050 171 1024 l 154 1060 l 197 1060 z "},"á":{"ha":508,"x_min":53,"x_max":413,"o":"m 246 746 q 373 690 333 746 q 413 497 413 633 l 413 0 l 383 0 l 382 129 l 379 129 q 353 62 371 94 q 303 8 336 29 q 218 -14 271 -14 q 124 13 160 -14 q 70 85 88 40 q 53 179 53 129 q 115 344 53 289 q 292 413 178 399 l 376 422 l 376 493 q 346 665 376 618 q 246 711 315 711 q 188 703 221 711 q 115 671 154 694 l 100 701 q 172 734 133 722 q 246 746 211 746 m 290 381 q 138 320 188 369 q 89 179 89 271 q 124 59 89 101 q 218 17 158 17 q 342 97 306 17 q 378 306 378 178 l 378 390 l 290 381 m 394 1050 q 356 997 378 1025 q 309 940 333 968 q 262 886 285 911 q 218 842 239 861 l 199 842 l 199 858 q 256 928 231 896 q 306 992 282 960 q 353 1060 329 1024 l 394 1060 l 394 1050 z "},"â":{"ha":508,"x_min":53,"x_max":413,"o":"m 246 746 q 373 690 333 746 q 413 497 413 633 l 413 0 l 383 0 l 382 129 l 379 129 q 353 62 371 94 q 303 8 336 29 q 218 -14 271 -14 q 124 13 160 -14 q 70 85 88 40 q 53 179 53 129 q 115 344 53 289 q 292 413 178 399 l 376 422 l 376 493 q 346 665 376 618 q 246 711 315 711 q 188 703 221 711 q 115 671 154 694 l 100 701 q 172 734 133 722 q 246 746 211 746 m 290 381 q 138 320 188 369 q 89 179 89 271 q 124 59 89 101 q 218 17 158 17 q 342 97 306 17 q 378 306 378 178 l 378 390 l 290 381 m 275 1060 q 319 983 293 1028 q 367 902 344 939 q 399 851 390 865 l 399 842 l 378 842 q 315 927 349 878 q 254 1018 282 976 q 194 928 228 979 q 132 842 160 876 l 110 842 l 110 851 q 147 911 125 874 q 193 989 169 949 q 233 1060 217 1029 l 275 1060 z "},"ã":{"ha":508,"x_min":53,"x_max":435,"o":"m 246 746 q 373 690 333 746 q 413 497 413 633 l 413 0 l 383 0 l 382 129 l 379 129 q 353 62 371 94 q 303 8 336 29 q 218 -14 271 -14 q 124 13 160 -14 q 70 85 88 40 q 53 179 53 129 q 115 344 53 289 q 292 413 178 399 l 376 422 l 376 493 q 346 665 376 618 q 246 711 315 711 q 188 703 221 711 q 115 671 154 694 l 100 701 q 172 734 133 722 q 246 746 211 746 m 290 381 q 138 320 188 369 q 89 179 89 271 q 124 59 89 101 q 218 17 158 17 q 342 97 306 17 q 378 306 378 178 l 378 390 l 290 381 m 74 857 q 85 913 76 890 q 106 951 93 936 q 135 972 119 965 q 169 979 151 979 q 220 965 199 979 q 260 934 242 951 q 297 903 278 917 q 338 889 315 889 q 383 913 365 889 q 404 981 401 938 l 435 981 q 405 887 433 917 q 338 857 376 857 q 287 871 308 857 q 247 902 265 885 q 210 933 228 919 q 169 947 192 947 q 127 926 146 947 q 106 857 108 904 l 74 857 z "},"ä":{"ha":508,"x_min":53,"x_max":413,"o":"m 246 746 q 373 690 333 746 q 413 497 413 633 l 413 0 l 383 0 l 382 129 l 379 129 q 353 62 371 94 q 303 8 336 29 q 218 -14 271 -14 q 124 13 160 -14 q 70 85 88 40 q 53 179 53 129 q 115 344 53 289 q 292 413 178 399 l 376 422 l 376 493 q 346 665 376 618 q 246 711 315 711 q 188 703 221 711 q 115 671 154 694 l 100 701 q 172 734 133 722 q 246 746 211 746 m 290 381 q 138 320 188 369 q 89 179 89 271 q 124 59 89 101 q 218 17 158 17 q 342 97 306 17 q 378 306 378 178 l 378 390 l 290 381 m 122 921 q 131 953 122 939 q 157 967 140 967 q 181 953 172 967 q 190 921 190 940 q 181 889 190 901 q 157 876 172 876 q 131 890 140 876 q 122 921 122 903 m 318 922 q 328 953 318 940 q 353 967 338 967 q 378 954 368 967 q 388 922 388 942 q 378 890 388 903 q 353 876 368 876 q 328 890 338 876 q 318 922 318 904 z "},"å":{"ha":508,"x_min":53,"x_max":413,"o":"m 246 746 q 373 690 333 746 q 413 497 413 633 l 413 0 l 383 0 l 382 129 l 379 129 q 353 62 371 94 q 303 8 336 29 q 218 -14 271 -14 q 124 13 160 -14 q 70 85 88 40 q 53 179 53 129 q 115 344 53 289 q 292 413 178 399 l 376 422 l 376 493 q 346 665 376 618 q 246 711 315 711 q 188 703 221 711 q 115 671 154 694 l 100 701 q 172 734 133 722 q 246 746 211 746 m 290 381 q 138 320 188 369 q 89 179 89 271 q 124 59 89 101 q 218 17 158 17 q 342 97 306 17 q 378 306 378 178 l 378 390 l 290 381 m 256 857 q 169 888 206 857 q 133 976 133 919 q 168 1065 133 1033 q 253 1096 203 1096 q 340 1063 306 1096 q 375 975 375 1031 q 342 889 375 921 q 256 857 308 857 m 256 888 q 319 912 296 888 q 343 975 343 936 q 319 1040 343 1015 q 253 1065 294 1065 q 188 1040 210 1065 q 165 976 165 1015 q 188 914 165 940 q 256 888 211 888 z "},"æ":{"ha":844,"x_min":53,"x_max":779,"o":"m 589 746 q 700 700 658 746 q 760 581 742 654 q 779 421 779 507 l 779 381 l 414 381 q 467 113 415 204 q 610 21 518 21 q 682 32 642 21 q 757 68 722 43 l 757 29 q 689 -2 729 10 q 610 -14 649 -14 q 505 15 547 -14 q 438 90 463 43 q 403 189 414 136 q 372 81 396 126 q 310 11 349 36 q 217 -14 271 -14 q 125 12 161 -14 q 71 81 89 38 q 53 181 53 125 q 83 304 53 256 q 167 379 113 353 q 297 410 222 406 l 378 415 l 378 528 q 345 665 378 619 q 254 711 313 711 q 195 703 232 711 q 119 671 158 694 l 104 703 q 174 734 133 722 q 253 746 214 746 q 363 701 324 746 q 407 563 401 656 q 467 692 422 638 q 589 746 513 746 m 297 376 q 139 318 188 369 q 90 181 90 267 q 121 66 90 111 q 217 21 151 21 q 308 52 272 21 q 360 135 343 83 q 378 249 378 188 l 378 382 l 297 376 m 588 711 q 467 635 515 711 q 414 415 418 560 l 744 415 q 729 567 746 500 q 678 672 713 633 q 588 711 643 711 z "},"ç":{"ha":435,"x_min":65,"x_max":407,"o":"m 294 -14 q 165 31 217 -14 q 90 160 114 76 q 65 356 65 243 q 94 570 65 483 q 178 701 124 657 q 307 746 232 746 q 360 740 335 746 q 407 721 385 733 l 393 689 q 353 706 375 700 q 308 711 332 711 q 198 672 244 711 q 126 553 151 632 q 101 357 101 475 q 122 182 101 258 q 185 63 142 106 q 299 21 229 21 q 352 27 325 21 q 406 44 379 33 l 406 8 q 353 -8 383 -1 q 294 -14 322 -14 m 394 -201 q 353 -297 394 -261 q 242 -333 313 -333 q 211 -331 229 -333 q 178 -325 193 -329 l 178 -292 q 210 -299 193 -296 q 242 -301 228 -301 q 325 -276 290 -301 q 360 -201 360 -250 q 324 -133 360 -153 q 231 -112 288 -114 l 278 0 l 314 0 l 278 -86 q 342 -106 317 -90 q 381 -146 368 -122 q 394 -201 394 -169 z "},"è":{"ha":528,"x_min":65,"x_max":464,"o":"m 271 746 q 386 699 344 746 q 446 576 428 651 q 464 418 464 501 l 464 379 l 101 379 q 149 113 100 206 q 297 21 199 21 q 369 33 333 21 q 442 72 406 46 l 442 31 q 376 -1 413 11 q 297 -14 340 -14 q 167 32 218 -14 q 90 163 115 78 q 65 367 65 249 q 88 567 65 482 q 156 699 110 651 q 271 746 201 746 m 271 711 q 154 638 199 711 q 103 413 110 564 l 431 413 q 416 562 432 494 q 365 670 400 629 q 271 711 329 711 m 207 1060 q 258 988 232 1022 q 311 921 283 953 q 365 857 339 889 l 365 842 l 343 842 q 299 886 324 861 q 251 939 275 911 q 203 995 226 967 q 164 1050 181 1024 l 164 1060 l 207 1060 z "},"é":{"ha":528,"x_min":65,"x_max":464,"o":"m 271 746 q 386 699 344 746 q 446 576 428 651 q 464 418 464 501 l 464 379 l 101 379 q 149 113 100 206 q 297 21 199 21 q 369 33 333 21 q 442 72 406 46 l 442 31 q 376 -1 413 11 q 297 -14 340 -14 q 167 32 218 -14 q 90 163 115 78 q 65 367 65 249 q 88 567 65 482 q 156 699 110 651 q 271 746 201 746 m 271 711 q 154 638 199 711 q 103 413 110 564 l 431 413 q 416 562 432 494 q 365 670 400 629 q 271 711 329 711 m 404 1050 q 365 997 388 1025 q 319 940 343 968 q 272 886 294 911 q 228 842 249 861 l 208 842 l 208 858 q 266 928 240 896 q 315 992 292 960 q 363 1060 339 1024 l 404 1060 l 404 1050 z "},"ê":{"ha":528,"x_min":65,"x_max":464,"o":"m 271 746 q 386 699 344 746 q 446 576 428 651 q 464 418 464 501 l 464 379 l 101 379 q 149 113 100 206 q 297 21 199 21 q 369 33 333 21 q 442 72 406 46 l 442 31 q 376 -1 413 11 q 297 -14 340 -14 q 167 32 218 -14 q 90 163 115 78 q 65 367 65 249 q 88 567 65 482 q 156 699 110 651 q 271 746 201 746 m 271 711 q 154 638 199 711 q 103 413 110 564 l 431 413 q 416 562 432 494 q 365 670 400 629 q 271 711 329 711 m 285 1060 q 328 983 303 1028 q 377 902 354 939 q 408 851 400 865 l 408 842 l 388 842 q 325 927 358 878 q 264 1018 292 976 q 203 928 238 979 q 142 842 169 876 l 119 842 l 119 851 q 157 911 135 874 q 203 989 179 949 q 243 1060 226 1029 l 285 1060 z "},"ë":{"ha":528,"x_min":65,"x_max":464,"o":"m 271 746 q 386 699 344 746 q 446 576 428 651 q 464 418 464 501 l 464 379 l 101 379 q 149 113 100 206 q 297 21 199 21 q 369 33 333 21 q 442 72 406 46 l 442 31 q 376 -1 413 11 q 297 -14 340 -14 q 167 32 218 -14 q 90 163 115 78 q 65 367 65 249 q 88 567 65 482 q 156 699 110 651 q 271 746 201 746 m 271 711 q 154 638 199 711 q 103 413 110 564 l 431 413 q 416 562 432 494 q 365 670 400 629 q 271 711 329 711 m 132 921 q 141 953 132 939 q 167 967 150 967 q 191 953 182 967 q 200 921 200 940 q 191 889 200 901 q 167 876 182 876 q 141 890 150 876 q 132 921 132 903 m 328 922 q 338 953 328 940 q 363 967 347 967 q 388 954 378 967 q 397 922 397 942 q 388 890 397 903 q 363 876 378 876 q 338 890 347 876 q 328 922 328 904 z "},"ì":{"ha":231,"x_min":15,"x_max":217,"o":"m 133 0 l 99 0 l 99 732 l 133 732 l 133 0 m 58 1060 q 109 988 83 1022 q 163 921 135 953 q 217 857 190 889 l 217 842 l 194 842 q 151 886 175 861 q 102 939 126 911 q 55 995 78 967 q 15 1050 32 1024 l 15 1060 l 58 1060 z "},"í":{"ha":231,"x_min":60,"x_max":256,"o":"m 133 0 l 99 0 l 99 732 l 133 732 l 133 0 m 256 1050 q 217 997 239 1025 q 170 940 194 968 q 123 886 146 911 q 79 842 100 861 l 60 842 l 60 858 q 117 928 92 896 q 167 992 143 960 q 214 1060 190 1024 l 256 1060 l 256 1050 z "},"î":{"ha":231,"x_min":-29,"x_max":260,"o":"m 133 0 l 99 0 l 99 732 l 133 732 l 133 0 m 136 1060 q 180 983 154 1028 q 228 902 206 939 q 260 851 251 865 l 260 842 l 239 842 q 176 927 210 878 q 115 1018 143 976 q 55 928 89 979 q -7 842 21 876 l -29 842 l -29 851 q 8 911 -14 874 q 54 989 31 949 q 94 1060 78 1029 l 136 1060 z "},"ï":{"ha":231,"x_min":-17,"x_max":249,"o":"m 133 0 l 99 0 l 99 732 l 133 732 l 133 0 m -17 921 q -8 953 -17 939 q 18 967 1 967 q 42 953 33 967 q 51 921 51 940 q 42 889 51 901 q 18 876 33 876 q -8 890 1 876 q -17 921 -17 903 m 179 922 q 189 953 179 940 q 214 967 199 967 q 239 954 229 967 q 249 922 249 942 q 239 890 249 903 q 214 876 229 876 q 189 890 199 876 q 179 922 179 904 z "},"ð":{"ha":554,"x_min":64,"x_max":490,"o":"m 188 1051 q 237 1017 214 1036 q 279 978 260 999 l 401 1053 l 418 1024 l 301 954 q 408 784 367 879 q 470 581 450 689 q 490 360 490 474 q 465 145 490 228 q 392 24 439 63 q 281 -14 346 -14 q 155 33 203 -14 q 85 156 107 81 q 64 313 64 231 q 93 490 64 417 q 172 603 122 564 q 282 643 221 643 q 356 626 325 643 q 408 586 388 610 q 438 540 429 563 l 442 540 q 384 753 426 647 q 271 938 342 858 l 158 868 l 142 896 l 249 961 q 206 1001 229 983 q 161 1032 182 1019 l 188 1051 m 286 608 q 188 572 229 608 q 123 468 146 535 q 100 313 100 401 q 121 163 100 229 q 182 59 142 97 q 281 21 222 21 q 410 104 367 21 q 453 322 453 188 q 441 448 453 394 q 408 537 429 501 q 355 590 386 572 q 286 608 324 608 z "},"ñ":{"ha":567,"x_min":99,"x_max":471,"o":"m 313 746 q 430 692 389 746 q 471 521 471 639 l 471 0 l 435 0 l 435 507 q 402 665 435 618 q 313 713 369 713 q 188 642 240 713 q 135 432 135 572 l 135 0 l 99 0 l 99 732 l 126 732 l 128 576 l 131 576 q 162 657 140 618 q 220 721 183 696 q 313 746 257 746 m 103 857 q 114 913 106 890 q 135 951 122 936 q 165 972 149 965 q 199 979 181 979 q 249 965 228 979 q 289 934 271 951 q 326 903 307 917 q 367 889 344 889 q 413 913 394 889 q 433 981 431 938 l 464 981 q 434 887 463 917 q 367 857 406 857 q 316 871 338 857 q 276 902 294 885 q 239 933 257 919 q 199 947 221 947 q 156 926 175 947 q 135 857 138 904 l 103 857 z "},"ò":{"ha":560,"x_min":64,"x_max":496,"o":"m 496 367 q 483 198 496 269 q 443 79 469 126 q 376 9 417 32 q 283 -14 336 -14 q 188 10 229 -14 q 119 81 147 33 q 78 201 92 129 q 64 369 64 272 q 88 577 64 493 q 159 703 111 661 q 281 746 207 746 q 407 700 360 746 q 475 569 454 654 q 496 367 496 485 m 100 369 q 119 178 100 256 q 179 60 139 100 q 282 21 219 21 q 383 58 343 21 q 441 173 422 96 q 460 368 460 250 q 442 551 460 475 q 386 669 425 628 q 281 711 347 711 q 142 623 185 711 q 100 369 100 535 m 224 1060 q 274 988 249 1022 q 328 921 300 953 q 382 857 356 889 l 382 842 l 360 842 q 316 886 340 861 q 267 939 292 911 q 220 995 243 967 q 181 1050 197 1024 l 181 1060 l 224 1060 z "},"ó":{"ha":560,"x_min":64,"x_max":496,"o":"m 496 367 q 483 198 496 269 q 443 79 469 126 q 376 9 417 32 q 283 -14 336 -14 q 188 10 229 -14 q 119 81 147 33 q 78 201 92 129 q 64 369 64 272 q 88 577 64 493 q 159 703 111 661 q 281 746 207 746 q 407 700 360 746 q 475 569 454 654 q 496 367 496 485 m 100 369 q 119 178 100 256 q 179 60 139 100 q 282 21 219 21 q 383 58 343 21 q 441 173 422 96 q 460 368 460 250 q 442 551 460 475 q 386 669 425 628 q 281 711 347 711 q 142 623 185 711 q 100 369 100 535 m 421 1050 q 382 997 404 1025 q 335 940 360 968 q 288 886 311 911 q 244 842 265 861 l 225 842 l 225 858 q 283 928 257 896 q 332 992 308 960 q 379 1060 356 1024 l 421 1060 l 421 1050 z "},"ô":{"ha":560,"x_min":64,"x_max":496,"o":"m 496 367 q 483 198 496 269 q 443 79 469 126 q 376 9 417 32 q 283 -14 336 -14 q 188 10 229 -14 q 119 81 147 33 q 78 201 92 129 q 64 369 64 272 q 88 577 64 493 q 159 703 111 661 q 281 746 207 746 q 407 700 360 746 q 475 569 454 654 q 496 367 496 485 m 100 369 q 119 178 100 256 q 179 60 139 100 q 282 21 219 21 q 383 58 343 21 q 441 173 422 96 q 460 368 460 250 q 442 551 460 475 q 386 669 425 628 q 281 711 347 711 q 142 623 185 711 q 100 369 100 535 m 301 1060 q 345 983 319 1028 q 394 902 371 939 q 425 851 417 865 l 425 842 l 404 842 q 342 927 375 878 q 281 1018 308 976 q 220 928 254 979 q 158 842 186 876 l 136 842 l 136 851 q 174 911 151 874 q 219 989 196 949 q 260 1060 243 1029 l 301 1060 z "},"õ":{"ha":560,"x_min":64,"x_max":496,"o":"m 496 367 q 483 198 496 269 q 443 79 469 126 q 376 9 417 32 q 283 -14 336 -14 q 188 10 229 -14 q 119 81 147 33 q 78 201 92 129 q 64 369 64 272 q 88 577 64 493 q 159 703 111 661 q 281 746 207 746 q 407 700 360 746 q 475 569 454 654 q 496 367 496 485 m 100 369 q 119 178 100 256 q 179 60 139 100 q 282 21 219 21 q 383 58 343 21 q 441 173 422 96 q 460 368 460 250 q 442 551 460 475 q 386 669 425 628 q 281 711 347 711 q 142 623 185 711 q 100 369 100 535 m 100 857 q 111 913 103 890 q 133 951 119 936 q 162 972 146 965 q 196 979 178 979 q 247 965 225 979 q 286 934 268 951 q 323 903 304 917 q 364 889 342 889 q 410 913 392 889 q 431 981 428 938 l 461 981 q 431 887 460 917 q 364 857 403 857 q 313 871 335 857 q 273 902 292 885 q 236 933 254 919 q 196 947 218 947 q 153 926 172 947 q 132 857 135 904 l 100 857 z "},"ö":{"ha":560,"x_min":64,"x_max":496,"o":"m 496 367 q 483 198 496 269 q 443 79 469 126 q 376 9 417 32 q 283 -14 336 -14 q 188 10 229 -14 q 119 81 147 33 q 78 201 92 129 q 64 369 64 272 q 88 577 64 493 q 159 703 111 661 q 281 746 207 746 q 407 700 360 746 q 475 569 454 654 q 496 367 496 485 m 100 369 q 119 178 100 256 q 179 60 139 100 q 282 21 219 21 q 383 58 343 21 q 441 173 422 96 q 460 368 460 250 q 442 551 460 475 q 386 669 425 628 q 281 711 347 711 q 142 623 185 711 q 100 369 100 535 m 149 921 q 158 953 149 939 q 183 967 167 967 q 208 953 199 967 q 217 921 217 940 q 208 889 217 901 q 183 876 199 876 q 158 890 167 876 q 149 921 149 903 m 344 922 q 354 953 344 940 q 379 967 364 967 q 404 954 394 967 q 414 922 414 942 q 404 890 414 903 q 379 876 394 876 q 354 890 364 876 q 344 922 344 904 z "},"÷":{"ha":554,"x_min":40,"x_max":513,"o":"m 40 472 l 40 507 l 513 507 l 513 472 l 40 472 m 276 194 q 248 209 254 194 q 242 242 242 224 q 250 279 242 265 q 276 293 258 293 q 304 278 297 293 q 311 244 311 264 q 304 209 311 224 q 276 194 297 194 m 276 686 q 249 701 256 686 q 242 736 242 715 q 249 770 242 756 q 276 785 256 785 q 304 770 297 785 q 311 735 311 756 q 304 700 311 714 q 276 686 297 686 z "},"ø":{"ha":608,"x_min":46,"x_max":561,"o":"m 533 367 q 510 153 533 238 q 439 27 486 68 q 321 -14 392 -14 q 234 6 272 -14 q 168 64 196 25 l 74 -111 l 46 -94 l 149 97 q 113 213 125 144 q 101 369 101 281 q 155 651 101 556 q 318 746 208 746 q 401 729 365 746 q 461 681 436 713 l 532 813 l 561 797 l 482 650 q 522 528 510 600 q 533 367 533 457 m 138 369 q 146 239 138 297 q 169 136 154 181 l 443 646 q 390 694 421 678 q 318 711 360 711 q 180 623 222 711 q 138 369 138 535 m 497 368 q 489 506 497 444 q 461 611 481 568 l 188 100 q 243 41 210 61 q 319 21 276 21 q 420 58 381 21 q 478 173 460 96 q 497 368 497 250 z "},"ù":{"ha":567,"x_min":96,"x_max":468,"o":"m 468 732 l 468 0 l 440 0 l 439 156 l 436 156 q 406 76 426 115 q 350 12 386 38 q 254 -14 314 -14 q 165 12 200 -14 q 113 90 131 38 q 96 221 96 142 l 96 732 l 132 732 l 132 232 q 165 71 132 121 q 257 21 197 21 q 349 53 310 21 q 410 150 389 85 q 432 317 432 215 l 432 732 l 468 732 m 226 1060 q 277 988 251 1022 q 331 921 303 953 q 385 857 358 889 l 385 842 l 363 842 q 319 886 343 861 q 270 939 294 911 q 223 995 246 967 q 183 1050 200 1024 l 183 1060 l 226 1060 z "},"ú":{"ha":567,"x_min":96,"x_max":468,"o":"m 468 732 l 468 0 l 440 0 l 439 156 l 436 156 q 406 76 426 115 q 350 12 386 38 q 254 -14 314 -14 q 165 12 200 -14 q 113 90 131 38 q 96 221 96 142 l 96 732 l 132 732 l 132 232 q 165 71 132 121 q 257 21 197 21 q 349 53 310 21 q 410 150 389 85 q 432 317 432 215 l 432 732 l 468 732 m 424 1050 q 385 997 407 1025 q 338 940 363 968 q 291 886 314 911 q 247 842 268 861 l 228 842 l 228 858 q 285 928 260 896 q 335 992 311 960 q 382 1060 358 1024 l 424 1060 l 424 1050 z "},"û":{"ha":567,"x_min":96,"x_max":468,"o":"m 468 732 l 468 0 l 440 0 l 439 156 l 436 156 q 406 76 426 115 q 350 12 386 38 q 254 -14 314 -14 q 165 12 200 -14 q 113 90 131 38 q 96 221 96 142 l 96 732 l 132 732 l 132 232 q 165 71 132 121 q 257 21 197 21 q 349 53 310 21 q 410 150 389 85 q 432 317 432 215 l 432 732 l 468 732 m 304 1060 q 348 983 322 1028 q 397 902 374 939 q 428 851 419 865 l 428 842 l 407 842 q 344 927 378 878 q 283 1018 311 976 q 223 928 257 979 q 161 842 189 876 l 139 842 l 139 851 q 176 911 154 874 q 222 989 199 949 q 263 1060 246 1029 l 304 1060 z "},"ü":{"ha":567,"x_min":96,"x_max":468,"o":"m 468 732 l 468 0 l 440 0 l 439 156 l 436 156 q 406 76 426 115 q 350 12 386 38 q 254 -14 314 -14 q 165 12 200 -14 q 113 90 131 38 q 96 221 96 142 l 96 732 l 132 732 l 132 232 q 165 71 132 121 q 257 21 197 21 q 349 53 310 21 q 410 150 389 85 q 432 317 432 215 l 432 732 l 468 732 m 151 921 q 160 953 151 939 q 186 967 169 967 q 210 953 201 967 q 219 921 219 940 q 210 889 219 901 q 186 876 201 876 q 160 890 169 876 q 151 921 151 903 m 347 922 q 357 953 347 940 q 382 967 367 967 q 407 954 397 967 q 417 922 417 942 q 407 890 417 903 q 382 876 397 876 q 357 890 367 876 q 347 922 347 904 z "},"ý":{"ha":439,"x_min":14,"x_max":425,"o":"m 32 732 l 68 732 l 201 194 q 217 130 213 150 q 222 101 221 110 q 225 82 224 92 l 228 82 q 242 149 236 124 q 254 197 249 175 l 389 732 l 425 732 l 197 -174 q 162 -270 182 -235 q 117 -321 142 -306 q 63 -336 92 -336 q 38 -333 49 -336 q 14 -325 26 -331 l 14 -286 q 38 -296 25 -292 q 63 -300 51 -300 q 98 -290 81 -300 q 132 -251 115 -279 q 161 -169 149 -222 l 208 18 l 32 732 m 360 1050 q 321 997 343 1025 q 274 940 299 968 q 227 886 250 911 q 183 842 204 861 l 164 842 l 164 858 q 222 928 196 896 q 271 992 247 960 q 318 1060 294 1024 l 360 1060 l 360 1050 z "},"þ":{"ha":588,"x_min":99,"x_max":525,"o":"m 525 375 q 499 154 525 240 q 424 27 472 68 q 313 -14 376 -14 q 222 11 258 -14 q 166 74 186 36 q 136 149 146 111 l 132 149 q 133 126 133 140 q 134 92 133 111 q 135 51 135 74 l 135 -322 l 99 -322 l 99 1056 l 135 1056 l 135 722 q 133 646 135 689 q 126 561 131 603 l 129 561 q 163 651 142 608 q 221 719 183 693 q 317 746 258 746 q 472 654 419 746 q 525 375 525 563 m 490 375 q 448 624 490 536 q 315 711 406 711 q 183 629 231 711 q 135 406 135 547 l 135 304 q 186 94 135 168 q 314 21 238 21 q 401 54 361 21 q 466 165 442 88 q 490 375 490 243 z "},"ÿ":{"ha":439,"x_min":14,"x_max":425,"o":"m 32 732 l 68 732 l 201 194 q 217 130 213 150 q 222 101 221 110 q 225 82 224 92 l 228 82 q 242 149 236 124 q 254 197 249 175 l 389 732 l 425 732 l 197 -174 q 162 -270 182 -235 q 117 -321 142 -306 q 63 -336 92 -336 q 38 -333 49 -336 q 14 -325 26 -331 l 14 -286 q 38 -296 25 -292 q 63 -300 51 -300 q 98 -290 81 -300 q 132 -251 115 -279 q 161 -169 149 -222 l 208 18 l 32 732 m 88 921 q 97 953 88 939 q 122 967 106 967 q 147 953 138 967 q 156 921 156 940 q 147 889 156 901 q 122 876 138 876 q 97 890 106 876 q 88 921 88 903 m 283 922 q 293 953 283 940 q 318 967 303 967 q 343 954 333 967 q 353 922 353 942 q 343 890 353 903 q 318 876 333 876 q 293 890 303 876 q 283 922 283 904 z "},"Ā":{"ha":524,"x_min":0,"x_max":524,"o":"m 488 0 l 394 390 l 131 390 l 36 0 l 0 0 l 236 992 l 289 992 l 524 0 l 488 0 m 289 850 q 279 892 283 874 q 271 928 275 910 q 263 965 267 946 q 254 928 258 946 q 246 892 250 911 q 236 850 242 874 l 139 425 l 386 425 l 289 850 m 403 1150 l 403 1117 l 122 1117 l 122 1150 l 403 1150 z "},"ā":{"ha":508,"x_min":53,"x_max":413,"o":"m 246 746 q 373 690 333 746 q 413 497 413 633 l 413 0 l 383 0 l 382 129 l 379 129 q 353 62 371 94 q 303 8 336 29 q 218 -14 271 -14 q 124 13 160 -14 q 70 85 88 40 q 53 179 53 129 q 115 344 53 289 q 292 413 178 399 l 376 422 l 376 493 q 346 665 376 618 q 246 711 315 711 q 188 703 221 711 q 115 671 154 694 l 100 701 q 172 734 133 722 q 246 746 211 746 m 290 381 q 138 320 188 369 q 89 179 89 271 q 124 59 89 101 q 218 17 158 17 q 342 97 306 17 q 378 306 378 178 l 378 390 l 290 381 m 394 890 l 394 857 l 114 857 l 114 890 l 394 890 z "},"Ă":{"ha":524,"x_min":0,"x_max":524,"o":"m 488 0 l 394 390 l 131 390 l 36 0 l 0 0 l 236 992 l 289 992 l 524 0 l 488 0 m 289 850 q 279 892 283 874 q 271 928 275 910 q 263 965 267 946 q 254 928 258 946 q 246 892 250 911 q 236 850 242 874 l 139 425 l 386 425 l 289 850 m 401 1251 q 383 1176 400 1208 q 335 1125 365 1143 q 263 1107 304 1107 q 167 1143 207 1107 q 125 1251 128 1179 l 157 1251 q 172 1193 158 1218 q 208 1154 185 1168 q 264 1140 232 1140 q 320 1154 297 1140 q 356 1194 343 1168 q 369 1251 368 1219 l 401 1251 z "},"ă":{"ha":508,"x_min":53,"x_max":413,"o":"m 246 746 q 373 690 333 746 q 413 497 413 633 l 413 0 l 383 0 l 382 129 l 379 129 q 353 62 371 94 q 303 8 336 29 q 218 -14 271 -14 q 124 13 160 -14 q 70 85 88 40 q 53 179 53 129 q 115 344 53 289 q 292 413 178 399 l 376 422 l 376 493 q 346 665 376 618 q 246 711 315 711 q 188 703 221 711 q 115 671 154 694 l 100 701 q 172 734 133 722 q 246 746 211 746 m 290 381 q 138 320 188 369 q 89 179 89 271 q 124 59 89 101 q 218 17 158 17 q 342 97 306 17 q 378 306 378 178 l 378 390 l 290 381 m 393 992 q 374 916 392 949 q 326 865 357 883 q 254 847 296 847 q 159 883 199 847 q 117 992 119 919 l 149 992 q 163 933 150 958 q 200 894 176 908 q 256 881 224 881 q 312 894 289 881 q 347 934 335 908 q 361 992 360 960 l 393 992 z "},"Ą":{"ha":524,"x_min":0,"x_max":528,"o":"m 488 0 l 394 390 l 131 390 l 36 0 l 0 0 l 236 992 l 289 992 l 524 0 l 488 0 m 289 850 q 279 892 283 874 q 271 928 275 910 q 263 965 267 946 q 254 928 258 946 q 246 892 250 911 q 236 850 242 874 l 139 425 l 386 425 l 289 850 m 418 -189 q 434 -248 418 -228 q 481 -268 450 -268 q 508 -265 493 -268 q 528 -261 522 -262 l 528 -293 q 507 -299 519 -296 q 479 -301 494 -301 q 407 -274 433 -301 q 381 -194 381 -246 q 394 -121 381 -157 q 435 -51 408 -85 q 496 13 461 -18 l 524 0 q 444 -94 469 -50 q 418 -189 418 -139 z "},"ą":{"ha":508,"x_min":53,"x_max":417,"o":"m 246 746 q 373 690 333 746 q 413 497 413 633 l 413 0 l 383 0 l 382 129 l 379 129 q 353 62 371 94 q 303 8 336 29 q 218 -14 271 -14 q 124 13 160 -14 q 70 85 88 40 q 53 179 53 129 q 115 344 53 289 q 292 413 178 399 l 376 422 l 376 493 q 346 665 376 618 q 246 711 315 711 q 188 703 221 711 q 115 671 154 694 l 100 701 q 172 734 133 722 q 246 746 211 746 m 290 381 q 138 320 188 369 q 89 179 89 271 q 124 59 89 101 q 218 17 158 17 q 342 97 306 17 q 378 306 378 178 l 378 390 l 290 381 m 307 -189 q 323 -248 307 -228 q 369 -268 339 -268 q 397 -265 382 -268 q 417 -261 411 -262 l 417 -293 q 396 -299 408 -296 q 368 -301 383 -301 q 296 -274 322 -301 q 269 -194 269 -246 q 283 -121 269 -157 q 324 -51 297 -85 q 385 13 350 -18 l 413 0 q 333 -94 358 -50 q 307 -189 307 -139 z "},"Ć":{"ha":576,"x_min":75,"x_max":543,"o":"m 396 971 q 264 931 318 971 q 176 823 210 890 q 128 671 143 756 q 113 496 113 586 q 148 247 113 354 q 248 81 183 140 q 401 21 313 21 q 485 34 449 21 q 542 60 521 47 l 542 22 q 478 -3 515 7 q 401 -14 442 -14 q 229 48 303 -14 q 115 224 156 110 q 75 497 75 339 q 92 688 75 596 q 148 851 110 779 q 247 964 186 922 q 396 1006 308 1006 q 472 996 436 1006 q 543 967 508 986 l 525 935 q 458 963 492 956 q 396 971 424 971 m 513 1310 q 474 1256 496 1285 q 427 1199 451 1228 q 380 1146 403 1171 q 336 1101 357 1121 l 317 1101 l 317 1118 q 374 1188 349 1156 q 424 1251 400 1219 q 471 1319 447 1283 l 513 1319 l 513 1310 z "},"ć":{"ha":435,"x_min":65,"x_max":428,"o":"m 294 -14 q 165 31 217 -14 q 90 160 114 76 q 65 356 65 243 q 94 570 65 483 q 178 701 124 657 q 307 746 232 746 q 360 740 335 746 q 407 721 385 733 l 393 689 q 353 706 375 700 q 308 711 332 711 q 198 672 244 711 q 126 553 151 632 q 101 357 101 475 q 122 182 101 258 q 185 63 142 106 q 299 21 229 21 q 352 27 325 21 q 406 44 379 33 l 406 8 q 353 -8 383 -1 q 294 -14 322 -14 m 428 1050 q 389 997 411 1025 q 342 940 367 968 q 295 886 318 911 q 251 842 272 861 l 232 842 l 232 858 q 290 928 264 896 q 339 992 315 960 q 386 1060 363 1024 l 428 1060 l 428 1050 z "},"Ĉ":{"ha":576,"x_min":75,"x_max":543,"o":"m 396 971 q 264 931 318 971 q 176 823 210 890 q 128 671 143 756 q 113 496 113 586 q 148 247 113 354 q 248 81 183 140 q 401 21 313 21 q 485 34 449 21 q 542 60 521 47 l 542 22 q 478 -3 515 7 q 401 -14 442 -14 q 229 48 303 -14 q 115 224 156 110 q 75 497 75 339 q 92 688 75 596 q 148 851 110 779 q 247 964 186 922 q 396 1006 308 1006 q 472 996 436 1006 q 543 967 508 986 l 525 935 q 458 963 492 956 q 396 971 424 971 m 393 1319 q 437 1243 411 1288 q 485 1162 463 1199 q 517 1111 508 1125 l 517 1101 l 496 1101 q 433 1187 467 1138 q 372 1278 400 1236 q 312 1188 346 1239 q 250 1101 278 1136 l 228 1101 l 228 1111 q 265 1171 243 1133 q 311 1249 288 1208 q 351 1319 335 1289 l 393 1319 z "},"ĉ":{"ha":435,"x_min":65,"x_max":432,"o":"m 294 -14 q 165 31 217 -14 q 90 160 114 76 q 65 356 65 243 q 94 570 65 483 q 178 701 124 657 q 307 746 232 746 q 360 740 335 746 q 407 721 385 733 l 393 689 q 353 706 375 700 q 308 711 332 711 q 198 672 244 711 q 126 553 151 632 q 101 357 101 475 q 122 182 101 258 q 185 63 142 106 q 299 21 229 21 q 352 27 325 21 q 406 44 379 33 l 406 8 q 353 -8 383 -1 q 294 -14 322 -14 m 308 1060 q 352 983 326 1028 q 401 902 378 939 q 432 851 424 865 l 432 842 l 411 842 q 349 927 382 878 q 288 1018 315 976 q 227 928 261 979 q 165 842 193 876 l 143 842 l 143 851 q 181 911 158 874 q 226 989 203 949 q 267 1060 250 1029 l 308 1060 z "},"Ċ":{"ha":576,"x_min":75,"x_max":543,"o":"m 396 971 q 264 931 318 971 q 176 823 210 890 q 128 671 143 756 q 113 496 113 586 q 148 247 113 354 q 248 81 183 140 q 401 21 313 21 q 485 34 449 21 q 542 60 521 47 l 542 22 q 478 -3 515 7 q 401 -14 442 -14 q 229 48 303 -14 q 115 224 156 110 q 75 497 75 339 q 92 688 75 596 q 148 851 110 779 q 247 964 186 922 q 396 1006 308 1006 q 472 996 436 1006 q 543 967 508 986 l 525 935 q 458 963 492 956 q 396 971 424 971 m 374 1265 q 401 1251 393 1265 q 408 1219 408 1236 q 399 1184 408 1197 q 372 1171 389 1171 q 346 1185 354 1171 q 338 1218 338 1200 q 345 1250 338 1235 q 374 1265 353 1265 z "},"ċ":{"ha":435,"x_min":65,"x_max":407,"o":"m 294 -14 q 165 31 217 -14 q 90 160 114 76 q 65 356 65 243 q 94 570 65 483 q 178 701 124 657 q 307 746 232 746 q 360 740 335 746 q 407 721 385 733 l 393 689 q 353 706 375 700 q 308 711 332 711 q 198 672 244 711 q 126 553 151 632 q 101 357 101 475 q 122 182 101 258 q 185 63 142 106 q 299 21 229 21 q 352 27 325 21 q 406 44 379 33 l 406 8 q 353 -8 383 -1 q 294 -14 322 -14 m 289 1006 q 316 991 308 1006 q 324 960 324 976 q 314 924 324 938 q 288 911 304 911 q 261 926 269 911 q 253 958 253 940 q 260 990 253 975 q 289 1006 268 1006 z "},"Č":{"ha":576,"x_min":75,"x_max":543,"o":"m 396 971 q 264 931 318 971 q 176 823 210 890 q 128 671 143 756 q 113 496 113 586 q 148 247 113 354 q 248 81 183 140 q 401 21 313 21 q 485 34 449 21 q 542 60 521 47 l 542 22 q 478 -3 515 7 q 401 -14 442 -14 q 229 48 303 -14 q 115 224 156 110 q 75 497 75 339 q 92 688 75 596 q 148 851 110 779 q 247 964 186 922 q 396 1006 308 1006 q 472 996 436 1006 q 543 967 508 986 l 525 935 q 458 963 492 956 q 396 971 424 971 m 356 1101 q 315 1176 338 1136 q 270 1253 292 1217 q 233 1310 249 1289 l 233 1319 l 256 1319 q 315 1238 283 1285 q 372 1144 347 1190 q 428 1231 400 1190 q 490 1319 456 1272 l 513 1319 l 513 1310 q 471 1244 493 1281 q 428 1172 449 1208 q 389 1101 407 1135 l 356 1101 z "},"č":{"ha":435,"x_min":65,"x_max":428,"o":"m 294 -14 q 165 31 217 -14 q 90 160 114 76 q 65 356 65 243 q 94 570 65 483 q 178 701 124 657 q 307 746 232 746 q 360 740 335 746 q 407 721 385 733 l 393 689 q 353 706 375 700 q 308 711 332 711 q 198 672 244 711 q 126 553 151 632 q 101 357 101 475 q 122 182 101 258 q 185 63 142 106 q 299 21 229 21 q 352 27 325 21 q 406 44 379 33 l 406 8 q 353 -8 383 -1 q 294 -14 322 -14 m 271 842 q 230 917 253 876 q 185 993 207 957 q 149 1050 164 1029 l 149 1060 l 171 1060 q 231 978 199 1025 q 288 885 263 931 q 343 972 315 931 q 406 1060 371 1013 l 428 1060 l 428 1050 q 386 985 408 1021 q 343 912 364 949 q 304 842 322 875 l 271 842 z "},"Ď":{"ha":656,"x_min":108,"x_max":581,"o":"m 581 506 q 547 226 581 339 q 444 57 514 114 q 263 0 374 0 l 108 0 l 108 992 l 264 992 q 444 938 375 992 q 547 775 514 883 q 581 506 581 667 m 543 503 q 516 749 543 647 q 428 903 489 850 q 261 957 367 957 l 144 957 l 144 35 l 260 35 q 476 153 410 35 q 543 503 543 272 m 311 1101 q 270 1176 293 1136 q 226 1253 247 1217 q 189 1310 204 1289 l 189 1319 l 211 1319 q 271 1238 239 1285 q 328 1144 303 1190 q 383 1231 356 1190 q 446 1319 411 1272 l 468 1319 l 468 1310 q 426 1244 449 1281 q 383 1172 404 1208 q 344 1101 363 1135 l 311 1101 z "},"ď":{"ha":589,"x_min":64,"x_max":613,"o":"m 613 1042 q 599 975 608 1018 q 576 890 589 932 q 550 828 564 849 l 533 828 l 533 847 q 542 883 536 856 q 553 946 547 911 q 563 1011 558 981 q 568 1056 567 1042 l 613 1056 l 613 1042 m 271 -14 q 116 81 168 -14 q 64 356 64 175 q 119 647 64 547 q 276 746 175 746 q 366 723 329 746 q 426 665 403 700 q 456 596 449 631 l 458 596 q 456 645 457 622 q 456 690 456 668 l 456 1056 l 492 1056 l 492 0 l 464 0 l 458 147 l 456 147 q 425 73 447 110 q 365 11 403 36 q 271 -14 328 -14 m 274 21 q 408 99 361 21 q 456 307 456 178 l 456 438 q 408 635 456 560 q 278 711 361 711 q 147 621 192 711 q 101 356 101 531 q 142 109 101 197 q 274 21 182 21 z "},"Đ":{"ha":665,"x_min":42,"x_max":590,"o":"m 274 992 q 454 938 385 992 q 557 775 524 883 q 590 506 590 667 q 557 226 590 339 q 453 57 524 114 q 272 0 383 0 l 118 0 l 118 504 l 42 504 l 42 539 l 118 539 l 118 992 l 274 992 m 271 957 l 154 957 l 154 539 l 346 539 l 346 504 l 154 504 l 154 35 l 269 35 q 486 153 419 35 q 553 503 553 272 q 526 749 553 647 q 438 903 499 850 q 271 957 376 957 z "},"đ":{"ha":603,"x_min":64,"x_max":586,"o":"m 271 -14 q 116 81 168 -14 q 64 356 64 175 q 119 647 64 547 q 276 746 175 746 q 366 723 329 746 q 426 665 403 700 q 456 596 449 631 l 458 596 q 456 645 457 622 q 456 690 456 668 l 456 879 l 282 879 l 282 914 l 456 914 l 456 1056 l 492 1056 l 492 914 l 586 914 l 586 879 l 492 879 l 492 0 l 463 0 l 458 147 l 456 147 q 425 73 447 110 q 365 11 403 36 q 271 -14 328 -14 m 274 21 q 408 99 361 21 q 456 307 456 178 l 456 438 q 408 635 456 560 q 278 711 361 711 q 147 621 192 711 q 101 356 101 531 q 142 109 101 197 q 274 21 182 21 z "},"Ē":{"ha":529,"x_min":108,"x_max":463,"o":"m 463 0 l 108 0 l 108 992 l 463 992 l 463 957 l 144 957 l 144 539 l 444 539 l 444 504 l 144 504 l 144 35 l 463 35 l 463 0 m 440 1150 l 440 1117 l 160 1117 l 160 1150 l 440 1150 z "},"ē":{"ha":528,"x_min":65,"x_max":464,"o":"m 271 746 q 386 699 344 746 q 446 576 428 651 q 464 418 464 501 l 464 379 l 101 379 q 149 113 100 206 q 297 21 199 21 q 369 33 333 21 q 442 72 406 46 l 442 31 q 376 -1 413 11 q 297 -14 340 -14 q 167 32 218 -14 q 90 163 115 78 q 65 367 65 249 q 88 567 65 482 q 156 699 110 651 q 271 746 201 746 m 271 711 q 154 638 199 711 q 103 413 110 564 l 431 413 q 416 562 432 494 q 365 670 400 629 q 271 711 329 711 m 404 890 l 404 857 l 124 857 l 124 890 l 404 890 z "},"Ĕ":{"ha":529,"x_min":108,"x_max":463,"o":"m 463 0 l 108 0 l 108 992 l 463 992 l 463 957 l 144 957 l 144 539 l 444 539 l 444 504 l 144 504 l 144 35 l 463 35 l 463 0 m 439 1251 q 420 1176 438 1208 q 372 1125 403 1143 q 300 1107 342 1107 q 205 1143 244 1107 q 163 1251 165 1179 l 194 1251 q 209 1193 196 1218 q 246 1154 222 1168 q 301 1140 269 1140 q 358 1154 335 1140 q 393 1194 381 1168 q 407 1251 406 1219 l 439 1251 z "},"ĕ":{"ha":528,"x_min":65,"x_max":464,"o":"m 271 746 q 386 699 344 746 q 446 576 428 651 q 464 418 464 501 l 464 379 l 101 379 q 149 113 100 206 q 297 21 199 21 q 369 33 333 21 q 442 72 406 46 l 442 31 q 376 -1 413 11 q 297 -14 340 -14 q 167 32 218 -14 q 90 163 115 78 q 65 367 65 249 q 88 567 65 482 q 156 699 110 651 q 271 746 201 746 m 271 711 q 154 638 199 711 q 103 413 110 564 l 431 413 q 416 562 432 494 q 365 670 400 629 q 271 711 329 711 m 403 992 q 384 916 401 949 q 336 865 367 883 q 264 847 306 847 q 169 883 208 847 q 126 992 129 919 l 158 992 q 173 933 160 958 q 210 894 186 908 q 265 881 233 881 q 322 894 299 881 q 357 934 344 908 q 371 992 369 960 l 403 992 z "},"Ė":{"ha":529,"x_min":108,"x_max":463,"o":"m 463 0 l 108 0 l 108 992 l 463 992 l 463 957 l 144 957 l 144 539 l 444 539 l 444 504 l 144 504 l 144 35 l 463 35 l 463 0 m 301 1265 q 328 1251 321 1265 q 336 1219 336 1236 q 326 1184 336 1197 q 300 1171 317 1171 q 274 1185 282 1171 q 265 1218 265 1200 q 273 1250 265 1235 q 301 1265 281 1265 z "},"ė":{"ha":528,"x_min":65,"x_max":464,"o":"m 271 746 q 386 699 344 746 q 446 576 428 651 q 464 418 464 501 l 464 379 l 101 379 q 149 113 100 206 q 297 21 199 21 q 369 33 333 21 q 442 72 406 46 l 442 31 q 376 -1 413 11 q 297 -14 340 -14 q 167 32 218 -14 q 90 163 115 78 q 65 367 65 249 q 88 567 65 482 q 156 699 110 651 q 271 746 201 746 m 271 711 q 154 638 199 711 q 103 413 110 564 l 431 413 q 416 562 432 494 q 365 670 400 629 q 271 711 329 711 m 265 1006 q 292 991 285 1006 q 300 960 300 976 q 290 924 300 938 q 264 911 281 911 q 238 926 246 911 q 229 958 229 940 q 237 990 229 975 q 265 1006 244 1006 z "},"Ę":{"ha":529,"x_min":108,"x_max":463,"o":"m 463 0 l 108 0 l 108 992 l 463 992 l 463 957 l 144 957 l 144 539 l 444 539 l 444 504 l 144 504 l 144 35 l 463 35 l 463 0 m 300 -189 q 316 -248 300 -228 q 363 -268 332 -268 q 390 -265 375 -268 q 410 -261 404 -262 l 410 -293 q 389 -299 401 -296 q 361 -301 376 -301 q 289 -274 315 -301 q 263 -194 263 -246 q 276 -121 263 -157 q 317 -51 290 -85 q 378 13 343 -18 l 406 0 q 326 -94 351 -50 q 300 -189 300 -139 z "},"ę":{"ha":528,"x_min":65,"x_max":464,"o":"m 300 -193 q 319 -249 300 -229 q 375 -268 338 -268 q 404 -265 390 -268 q 424 -261 418 -262 l 424 -293 q 402 -299 415 -296 q 374 -301 389 -301 q 295 -275 326 -301 q 264 -194 264 -249 q 281 -122 264 -158 q 327 -51 297 -86 q 397 15 357 -15 l 442 31 q 374 -40 407 0 q 321 -119 342 -79 q 300 -193 300 -158 m 271 746 q 386 699 344 746 q 446 576 428 651 q 464 418 464 501 l 464 379 l 101 379 q 149 113 100 206 q 297 21 199 21 q 369 33 333 21 q 442 72 406 46 l 442 31 q 376 -1 413 11 q 297 -14 340 -14 q 167 32 218 -14 q 90 163 115 78 q 65 367 65 249 q 88 567 65 482 q 156 699 110 651 q 271 746 201 746 m 271 711 q 154 638 199 711 q 103 413 110 564 l 431 413 q 416 562 432 494 q 365 670 400 629 q 271 711 329 711 z "},"Ě":{"ha":529,"x_min":108,"x_max":463,"o":"m 463 0 l 108 0 l 108 992 l 463 992 l 463 957 l 144 957 l 144 539 l 444 539 l 444 504 l 144 504 l 144 35 l 463 35 l 463 0 m 283 1101 q 242 1176 265 1136 q 198 1253 219 1217 q 161 1310 176 1289 l 161 1319 l 183 1319 q 243 1238 211 1285 q 300 1144 275 1190 q 356 1231 328 1190 q 418 1319 383 1272 l 440 1319 l 440 1310 q 399 1244 421 1281 q 356 1172 376 1208 q 317 1101 335 1135 l 283 1101 z "},"ě":{"ha":528,"x_min":65,"x_max":464,"o":"m 271 746 q 386 699 344 746 q 446 576 428 651 q 464 418 464 501 l 464 379 l 101 379 q 149 113 100 206 q 297 21 199 21 q 369 33 333 21 q 442 72 406 46 l 442 31 q 376 -1 413 11 q 297 -14 340 -14 q 167 32 218 -14 q 90 163 115 78 q 65 367 65 249 q 88 567 65 482 q 156 699 110 651 q 271 746 201 746 m 271 711 q 154 638 199 711 q 103 413 110 564 l 431 413 q 416 562 432 494 q 365 670 400 629 q 271 711 329 711 m 247 842 q 206 917 229 876 q 162 993 183 957 q 125 1050 140 1029 l 125 1060 l 147 1060 q 207 978 175 1025 q 264 885 239 931 q 319 972 292 931 q 382 1060 347 1013 l 404 1060 l 404 1050 q 363 985 385 1021 q 319 912 340 949 q 281 842 299 875 l 247 842 z "},"Ĝ":{"ha":722,"x_min":75,"x_max":644,"o":"m 414 488 l 644 488 l 644 33 q 535 -2 593 10 q 428 -14 476 -14 q 228 51 306 -14 q 113 231 150 117 q 75 492 75 346 q 115 760 75 644 q 234 941 154 876 q 436 1006 314 1006 q 535 992 486 1006 q 635 944 583 979 l 615 914 q 524 959 568 947 q 436 971 479 971 q 251 910 324 971 q 145 740 179 849 q 111 492 111 632 q 144 248 111 354 q 248 81 178 142 q 429 21 318 21 q 524 31 476 21 q 610 56 571 42 l 610 453 l 414 453 l 414 488 m 424 1319 q 467 1243 442 1288 q 516 1162 493 1199 q 547 1111 539 1125 l 547 1101 l 526 1101 q 464 1187 497 1138 q 403 1278 431 1236 q 342 1188 376 1239 q 281 1101 308 1136 l 258 1101 l 258 1111 q 296 1171 274 1133 q 342 1249 318 1208 q 382 1319 365 1289 l 424 1319 z "},"ĝ":{"ha":586,"x_min":64,"x_max":489,"o":"m 281 746 q 398 704 358 746 q 453 611 438 663 l 457 611 l 461 732 l 489 732 l 489 -49 q 463 -208 489 -144 q 382 -304 436 -272 q 243 -336 328 -336 q 160 -326 199 -336 q 86 -294 121 -315 l 86 -256 q 160 -290 124 -278 q 243 -301 196 -301 q 400 -242 347 -301 q 453 -49 453 -182 l 453 17 q 453 80 453 49 q 457 154 454 111 l 453 154 q 391 35 438 83 q 271 -14 344 -14 q 118 78 172 -14 q 64 364 64 171 q 115 644 64 542 q 281 746 167 746 m 281 711 q 175 667 215 711 q 117 546 135 624 q 100 364 100 468 q 143 104 100 188 q 271 21 186 21 q 356 47 321 21 q 412 115 390 72 q 443 207 433 157 q 453 307 453 257 l 453 457 q 435 583 453 525 q 381 676 418 640 q 281 711 343 711 m 300 1060 q 344 983 318 1028 q 392 902 369 939 q 424 851 415 865 l 424 842 l 403 842 q 340 927 374 878 q 279 1018 307 976 q 219 928 253 979 q 157 842 185 876 l 135 842 l 135 851 q 172 911 150 874 q 218 989 194 949 q 258 1060 242 1029 l 300 1060 z "},"Ğ":{"ha":722,"x_min":75,"x_max":644,"o":"m 414 488 l 644 488 l 644 33 q 535 -2 593 10 q 428 -14 476 -14 q 228 51 306 -14 q 113 231 150 117 q 75 492 75 346 q 115 760 75 644 q 234 941 154 876 q 436 1006 314 1006 q 535 992 486 1006 q 635 944 583 979 l 615 914 q 524 959 568 947 q 436 971 479 971 q 251 910 324 971 q 145 740 179 849 q 111 492 111 632 q 144 248 111 354 q 248 81 178 142 q 429 21 318 21 q 524 31 476 21 q 610 56 571 42 l 610 453 l 414 453 l 414 488 m 542 1251 q 523 1176 540 1208 q 475 1125 506 1143 q 403 1107 444 1107 q 308 1143 347 1107 q 265 1251 268 1179 l 297 1251 q 312 1193 299 1218 q 349 1154 325 1168 q 404 1140 372 1140 q 460 1154 438 1140 q 496 1194 483 1168 q 510 1251 508 1219 l 542 1251 z "},"ğ":{"ha":586,"x_min":64,"x_max":489,"o":"m 281 746 q 398 704 358 746 q 453 611 438 663 l 457 611 l 461 732 l 489 732 l 489 -49 q 463 -208 489 -144 q 382 -304 436 -272 q 243 -336 328 -336 q 160 -326 199 -336 q 86 -294 121 -315 l 86 -256 q 160 -290 124 -278 q 243 -301 196 -301 q 400 -242 347 -301 q 453 -49 453 -182 l 453 17 q 453 80 453 49 q 457 154 454 111 l 453 154 q 391 35 438 83 q 271 -14 344 -14 q 118 78 172 -14 q 64 364 64 171 q 115 644 64 542 q 281 746 167 746 m 281 711 q 175 667 215 711 q 117 546 135 624 q 100 364 100 468 q 143 104 100 188 q 271 21 186 21 q 356 47 321 21 q 412 115 390 72 q 443 207 433 157 q 453 307 453 257 l 453 457 q 435 583 453 525 q 381 676 418 640 q 281 711 343 711 m 418 992 q 399 916 417 949 q 351 865 382 883 q 279 847 321 847 q 184 883 224 847 q 142 992 144 919 l 174 992 q 188 933 175 958 q 225 894 201 908 q 281 881 249 881 q 337 894 314 881 q 372 934 360 908 q 386 992 385 960 l 418 992 z "},"Ġ":{"ha":722,"x_min":75,"x_max":644,"o":"m 414 488 l 644 488 l 644 33 q 535 -2 593 10 q 428 -14 476 -14 q 228 51 306 -14 q 113 231 150 117 q 75 492 75 346 q 115 760 75 644 q 234 941 154 876 q 436 1006 314 1006 q 535 992 486 1006 q 635 944 583 979 l 615 914 q 524 959 568 947 q 436 971 479 971 q 251 910 324 971 q 145 740 179 849 q 111 492 111 632 q 144 248 111 354 q 248 81 178 142 q 429 21 318 21 q 524 31 476 21 q 610 56 571 42 l 610 453 l 414 453 l 414 488 m 404 1265 q 431 1251 424 1265 q 439 1219 439 1236 q 429 1184 439 1197 q 403 1171 419 1171 q 376 1185 385 1171 q 368 1218 368 1200 q 376 1250 368 1235 q 404 1265 383 1265 z "},"ġ":{"ha":586,"x_min":64,"x_max":489,"o":"m 281 746 q 398 704 358 746 q 453 611 438 663 l 457 611 l 461 732 l 489 732 l 489 -49 q 463 -208 489 -144 q 382 -304 436 -272 q 243 -336 328 -336 q 160 -326 199 -336 q 86 -294 121 -315 l 86 -256 q 160 -290 124 -278 q 243 -301 196 -301 q 400 -242 347 -301 q 453 -49 453 -182 l 453 17 q 453 80 453 49 q 457 154 454 111 l 453 154 q 391 35 438 83 q 271 -14 344 -14 q 118 78 172 -14 q 64 364 64 171 q 115 644 64 542 q 281 746 167 746 m 281 711 q 175 667 215 711 q 117 546 135 624 q 100 364 100 468 q 143 104 100 188 q 271 21 186 21 q 356 47 321 21 q 412 115 390 72 q 443 207 433 157 q 453 307 453 257 l 453 457 q 435 583 453 525 q 381 676 418 640 q 281 711 343 711 m 281 1006 q 308 991 300 1006 q 315 960 315 976 q 306 924 315 938 q 279 911 296 911 q 253 926 261 911 q 244 958 244 940 q 252 990 244 975 q 281 1006 260 1006 z "},"Ģ":{"ha":722,"x_min":75,"x_max":644,"o":"m 414 488 l 644 488 l 644 33 q 535 -2 593 10 q 428 -14 476 -14 q 228 51 306 -14 q 113 231 150 117 q 75 492 75 346 q 115 760 75 644 q 234 941 154 876 q 436 1006 314 1006 q 535 992 486 1006 q 635 944 583 979 l 615 914 q 524 959 568 947 q 436 971 479 971 q 251 910 324 971 q 145 740 179 849 q 111 492 111 632 q 144 248 111 354 q 248 81 178 142 q 429 21 318 21 q 524 31 476 21 q 610 56 571 42 l 610 453 l 414 453 l 414 488 m 453 -99 q 433 -167 444 -131 q 406 -239 421 -203 q 371 -307 390 -275 l 353 -307 l 353 -293 q 375 -230 363 -268 q 398 -152 388 -192 q 411 -85 408 -112 l 453 -85 l 453 -99 z "},"ģ":{"ha":586,"x_min":64,"x_max":489,"o":"m 351 1050 q 329 987 342 1025 q 306 909 317 949 q 293 842 296 869 l 251 842 l 251 856 q 272 924 260 888 q 299 997 283 960 q 333 1064 315 1033 l 351 1064 l 351 1050 m 281 746 q 398 704 358 746 q 453 611 438 663 l 457 611 l 461 732 l 489 732 l 489 -49 q 463 -208 489 -144 q 382 -304 436 -272 q 243 -336 328 -336 q 160 -326 199 -336 q 86 -294 121 -315 l 86 -256 q 160 -290 124 -278 q 243 -301 196 -301 q 400 -242 347 -301 q 453 -49 453 -182 l 453 17 q 453 80 453 49 q 457 154 454 111 l 453 154 q 391 35 438 83 q 271 -14 344 -14 q 118 78 172 -14 q 64 364 64 171 q 115 644 64 542 q 281 746 167 746 m 281 711 q 175 667 215 711 q 117 546 135 624 q 100 364 100 468 q 143 104 100 188 q 271 21 186 21 q 356 47 321 21 q 412 115 390 72 q 443 207 433 157 q 453 307 453 257 l 453 457 q 435 583 453 525 q 381 676 418 640 q 281 711 343 711 z "},"Ĥ":{"ha":675,"x_min":108,"x_max":567,"o":"m 567 0 l 531 0 l 531 504 l 144 504 l 144 0 l 108 0 l 108 992 l 144 992 l 144 539 l 531 539 l 531 992 l 567 992 l 567 0 m 358 1319 q 402 1243 376 1288 q 451 1162 428 1199 q 482 1111 474 1125 l 482 1101 l 461 1101 q 399 1187 432 1138 q 338 1278 365 1236 q 277 1188 311 1239 q 215 1101 243 1136 l 193 1101 l 193 1111 q 231 1171 208 1133 q 276 1249 253 1208 q 317 1319 300 1289 l 358 1319 z "},"ĥ":{"ha":567,"x_min":-28,"x_max":471,"o":"m 135 683 q 135 632 135 651 q 132 589 135 613 l 135 589 q 167 661 146 625 q 223 722 188 697 q 311 746 258 746 q 398 719 363 746 q 452 641 433 693 q 471 508 471 589 l 471 0 l 435 0 l 435 500 q 399 664 435 617 q 310 711 364 711 q 225 680 265 711 q 160 583 185 649 q 135 414 135 518 l 135 0 l 99 0 l 99 1056 l 135 1056 l 135 683 m 138 1383 q 181 1307 156 1351 q 230 1226 207 1263 q 261 1175 253 1189 l 261 1165 l 240 1165 q 178 1251 211 1201 q 117 1342 144 1300 q 56 1251 90 1303 q -6 1165 22 1200 l -28 1165 l -28 1175 q 10 1235 -12 1197 q 56 1313 32 1272 q 96 1383 79 1353 l 138 1383 z "},"Ħ":{"ha":681,"x_min":0,"x_max":681,"o":"m 108 0 l 108 758 l 0 758 l 0 793 l 108 793 l 108 992 l 144 992 l 144 793 l 531 793 l 531 992 l 567 992 l 567 793 l 681 793 l 681 758 l 567 758 l 567 0 l 531 0 l 531 504 l 144 504 l 144 0 l 108 0 m 144 539 l 531 539 l 531 758 l 144 758 l 144 539 z "},"ħ":{"ha":578,"x_min":18,"x_max":482,"o":"m 146 1056 l 146 914 l 322 914 l 322 879 l 146 879 l 146 683 q 146 632 146 651 q 143 589 146 613 l 146 589 q 178 661 157 625 q 234 722 199 697 q 322 746 269 746 q 409 719 374 746 q 463 641 444 693 q 482 508 482 589 l 482 0 l 446 0 l 446 500 q 410 664 446 617 q 321 711 375 711 q 236 680 276 711 q 171 583 196 649 q 146 414 146 518 l 146 0 l 110 0 l 110 879 l 18 879 l 18 914 l 110 914 l 110 1056 l 146 1056 z "},"Ĩ":{"ha":304,"x_min":-28,"x_max":333,"o":"m 251 0 l 53 0 l 53 26 l 136 31 l 136 960 l 53 965 l 53 992 l 251 992 l 251 965 l 171 960 l 171 31 l 251 26 l 251 0 m -28 1117 q -17 1173 -25 1150 q 5 1210 -8 1196 q 34 1232 18 1225 q 68 1239 50 1239 q 119 1225 97 1239 q 158 1194 140 1211 q 195 1163 176 1176 q 236 1149 214 1149 q 282 1173 264 1149 q 303 1240 300 1197 l 333 1240 q 303 1147 332 1176 q 236 1117 275 1117 q 185 1131 207 1117 q 145 1162 164 1144 q 108 1193 126 1179 q 68 1207 90 1207 q 26 1185 44 1207 q 4 1117 7 1164 l -28 1117 z "},"ĩ":{"ha":231,"x_min":-65,"x_max":296,"o":"m 133 0 l 99 0 l 99 732 l 133 732 l 133 0 m -65 857 q -54 913 -62 890 q -33 951 -46 936 q -3 972 -19 965 q 31 979 13 979 q 81 965 60 979 q 121 934 103 951 q 158 903 139 917 q 199 889 176 889 q 244 913 226 889 q 265 981 263 938 l 296 981 q 266 887 294 917 q 199 857 238 857 q 148 871 169 857 q 108 902 126 885 q 71 933 89 919 q 31 947 53 947 q -12 926 7 947 q -33 857 -31 904 l -65 857 z "},"Ī":{"ha":304,"x_min":13,"x_max":293,"o":"m 251 0 l 53 0 l 53 26 l 136 31 l 136 960 l 53 965 l 53 992 l 251 992 l 251 965 l 171 960 l 171 31 l 251 26 l 251 0 m 293 1150 l 293 1117 l 13 1117 l 13 1150 l 293 1150 z "},"ī":{"ha":231,"x_min":-25,"x_max":256,"o":"m 133 0 l 99 0 l 99 732 l 133 732 l 133 0 m 256 890 l 256 857 l -25 857 l -25 890 l 256 890 z "},"Ĭ":{"ha":304,"x_min":15,"x_max":292,"o":"m 251 0 l 53 0 l 53 26 l 136 31 l 136 960 l 53 965 l 53 992 l 251 992 l 251 965 l 171 960 l 171 31 l 251 26 l 251 0 m 292 1251 q 273 1176 290 1208 q 225 1125 256 1143 q 153 1107 194 1107 q 58 1143 97 1107 q 15 1251 18 1179 l 47 1251 q 62 1193 49 1218 q 99 1154 75 1168 q 154 1140 122 1140 q 210 1154 188 1140 q 246 1194 233 1168 q 260 1251 258 1219 l 292 1251 z "},"ĭ":{"ha":231,"x_min":-22,"x_max":254,"o":"m 133 0 l 99 0 l 99 732 l 133 732 l 133 0 m 254 992 q 235 916 253 949 q 188 865 218 883 q 115 847 157 847 q 20 883 60 847 q -22 992 -19 919 l 10 992 q 24 933 11 958 q 61 894 38 908 q 117 881 85 881 q 173 894 150 881 q 208 934 196 908 q 222 992 221 960 l 254 992 z "},"Į":{"ha":304,"x_min":53,"x_max":251,"o":"m 251 0 l 53 0 l 53 26 l 136 31 l 136 960 l 53 965 l 53 992 l 251 992 l 251 965 l 171 960 l 171 31 l 251 26 l 251 0 m 121 -189 q 137 -248 121 -228 q 183 -268 153 -268 q 210 -265 196 -268 q 231 -261 225 -262 l 231 -293 q 210 -299 222 -296 q 182 -301 197 -301 q 110 -274 136 -301 q 83 -194 83 -246 q 97 -121 83 -157 q 138 -51 111 -85 q 199 13 164 -18 l 226 0 q 147 -94 172 -50 q 121 -189 121 -139 z "},"į":{"ha":246,"x_min":0,"x_max":161,"o":"m 143 732 l 143 0 l 107 0 l 107 732 l 143 732 m 126 1006 q 153 991 146 1006 q 161 960 161 976 q 151 924 161 938 q 125 911 142 911 q 99 926 107 911 q 90 958 90 940 q 98 990 90 975 q 126 1006 106 1006 m 38 -189 q 53 -248 38 -228 q 100 -268 69 -268 q 127 -265 113 -268 q 147 -261 142 -262 l 147 -293 q 126 -299 139 -296 q 99 -301 114 -301 q 26 -274 53 -301 q 0 -194 0 -246 q 14 -121 0 -157 q 54 -51 28 -85 q 115 13 81 -18 l 143 0 q 63 -94 89 -50 q 38 -189 38 -139 z "},"İ":{"ha":304,"x_min":53,"x_max":251,"o":"m 251 0 l 53 0 l 53 26 l 136 31 l 136 960 l 53 965 l 53 992 l 251 992 l 251 965 l 171 960 l 171 31 l 251 26 l 251 0 m 154 1265 q 181 1251 174 1265 q 189 1219 189 1236 q 179 1184 189 1197 q 153 1171 169 1171 q 126 1185 135 1171 q 118 1218 118 1200 q 126 1250 118 1235 q 154 1265 133 1265 z "},"Ĳ":{"ha":582,"x_min":53,"x_max":476,"o":"m 251 0 l 53 0 l 53 26 l 136 31 l 136 960 l 53 965 l 53 992 l 251 992 l 251 965 l 171 960 l 171 31 l 251 26 l 251 0 m 342 -243 q 299 -239 319 -243 q 261 -226 279 -235 l 261 -192 q 301 -202 281 -197 q 342 -207 321 -207 q 403 -186 382 -207 q 433 -126 425 -165 q 440 -32 440 -86 l 440 992 l 476 992 l 476 -42 q 463 -155 476 -110 q 421 -222 450 -200 q 342 -243 392 -243 z "},"ĳ":{"ha":483,"x_min":90,"x_max":396,"o":"m 143 732 l 143 0 l 107 0 l 107 732 l 143 732 m 126 1006 q 153 991 146 1006 q 161 960 161 976 q 151 924 161 938 q 125 911 142 911 q 99 926 107 911 q 90 958 90 940 q 98 990 90 975 q 126 1006 106 1006 m 274 -336 q 250 -333 260 -336 q 233 -328 240 -331 l 233 -290 q 251 -297 240 -294 q 272 -300 263 -300 q 324 -266 310 -300 q 339 -162 339 -232 l 339 732 l 375 732 l 375 -174 q 362 -272 375 -236 q 326 -322 349 -307 q 274 -336 303 -336 m 325 958 q 333 990 325 975 q 361 1006 340 1006 q 388 991 381 1006 q 396 960 396 976 q 386 924 396 938 q 360 911 376 911 q 333 926 342 911 q 325 958 325 940 z "},"Ĵ":{"ha":258,"x_min":-62,"x_max":279,"o":"m 18 -243 q -24 -239 -4 -243 q -62 -226 -44 -235 l -62 -192 q -23 -202 -43 -197 q 18 -207 -3 -207 q 80 -186 58 -207 q 109 -126 101 -165 q 117 -32 117 -86 l 117 992 l 153 992 l 153 -42 q 140 -155 153 -110 q 97 -222 126 -200 q 18 -243 68 -243 m 156 1319 q 199 1243 174 1288 q 248 1162 225 1199 q 279 1111 271 1125 l 279 1101 l 258 1101 q 196 1187 229 1138 q 135 1278 163 1236 q 74 1188 108 1239 q 13 1101 40 1136 l -10 1101 l -10 1111 q 28 1171 6 1133 q 74 1249 50 1208 q 114 1319 97 1289 l 156 1319 z "},"ĵ":{"ha":246,"x_min":-26,"x_max":263,"o":"m 38 -336 q 14 -333 24 -336 q -3 -328 4 -331 l -3 -290 q 15 -297 4 -294 q 36 -300 26 -300 q 88 -263 74 -300 q 103 -160 103 -226 l 103 732 l 139 732 l 139 -174 q 125 -272 139 -236 q 88 -322 111 -307 q 38 -336 65 -336 m 139 1060 q 183 983 157 1028 q 231 902 208 939 q 263 851 254 865 l 263 842 l 242 842 q 179 927 213 878 q 118 1018 146 976 q 58 928 92 979 q -4 842 24 876 l -26 842 l -26 851 q 11 911 -11 874 q 57 989 33 949 q 97 1060 81 1029 l 139 1060 z "},"Ķ":{"ha":526,"x_min":108,"x_max":528,"o":"m 528 0 l 489 0 l 229 522 l 144 392 l 144 0 l 108 0 l 108 992 l 144 992 l 144 442 q 173 494 153 461 q 222 575 193 528 l 472 992 l 513 992 l 253 557 l 528 0 m 328 -99 q 308 -167 319 -131 q 281 -239 296 -203 q 246 -307 265 -275 l 228 -307 l 228 -293 q 250 -230 238 -268 q 273 -152 263 -192 q 286 -85 283 -112 l 328 -85 l 328 -99 z "},"ķ":{"ha":450,"x_min":99,"x_max":440,"o":"m 135 501 q 135 412 135 453 q 133 324 135 371 l 135 324 q 151 350 144 339 q 163 372 157 361 q 178 396 169 383 l 383 732 l 422 732 l 256 457 l 440 0 l 404 0 l 232 422 l 135 274 l 135 0 l 99 0 l 99 1056 l 135 1056 l 135 501 m 275 -99 q 255 -167 267 -131 q 228 -239 243 -203 q 193 -307 213 -275 l 175 -307 l 175 -293 q 197 -230 185 -268 q 220 -152 210 -192 q 233 -85 231 -112 l 275 -85 l 275 -99 z "},"ĸ":{"ha":450,"x_min":99,"x_max":440,"o":"m 425 732 l 254 454 l 440 0 l 404 0 l 231 422 l 135 275 l 135 0 l 99 0 l 99 732 l 135 732 l 135 492 q 134 411 135 454 q 132 325 133 368 l 133 325 q 155 364 144 346 q 179 403 165 382 l 385 732 l 425 732 z "},"Ĺ":{"ha":474,"x_min":69,"x_max":447,"o":"m 108 0 l 108 992 l 144 992 l 144 35 l 447 35 l 447 0 l 108 0 m 265 1310 q 226 1256 249 1285 q 180 1199 204 1228 q 133 1146 156 1171 q 89 1101 110 1121 l 69 1101 l 69 1118 q 127 1188 101 1156 q 176 1251 153 1219 q 224 1319 200 1283 l 265 1319 l 265 1310 z "},"ĺ":{"ha":232,"x_min":61,"x_max":257,"o":"m 135 0 l 99 0 l 99 1056 l 135 1056 l 135 0 m 257 1374 q 218 1320 240 1349 q 172 1263 196 1292 q 124 1210 147 1235 q 81 1165 101 1185 l 61 1165 l 61 1182 q 119 1251 93 1219 q 168 1315 144 1283 q 215 1383 192 1347 l 257 1383 l 257 1374 z "},"Ļ":{"ha":474,"x_min":108,"x_max":447,"o":"m 108 0 l 108 992 l 144 992 l 144 35 l 447 35 l 447 0 l 108 0 m 315 -99 q 295 -167 307 -131 q 268 -239 283 -203 q 233 -307 253 -275 l 215 -307 l 215 -293 q 238 -230 225 -268 q 260 -152 250 -192 q 274 -85 271 -112 l 315 -85 l 315 -99 z "},"ļ":{"ha":232,"x_min":67,"x_max":167,"o":"m 135 0 l 99 0 l 99 1056 l 135 1056 l 135 0 m 167 -99 q 147 -167 158 -131 q 119 -239 135 -203 q 85 -307 104 -275 l 67 -307 l 67 -293 q 89 -230 76 -268 q 112 -152 101 -192 q 125 -85 122 -112 l 167 -85 l 167 -99 z "},"Ľ":{"ha":474,"x_min":108,"x_max":447,"o":"m 407 978 q 393 911 403 954 q 371 826 383 868 q 344 764 358 785 l 328 764 l 328 783 q 336 819 331 792 q 347 882 342 847 q 357 947 353 917 q 363 992 361 978 l 407 992 l 407 978 m 108 0 l 108 992 l 144 992 l 144 35 l 447 35 l 447 0 l 108 0 z "},"ľ":{"ha":236,"x_min":99,"x_max":260,"o":"m 260 1042 q 246 975 256 1018 q 224 890 236 932 q 197 828 211 849 l 181 828 l 181 847 q 189 883 183 856 q 200 946 194 911 q 210 1011 206 981 q 215 1056 214 1042 l 260 1056 l 260 1042 m 135 0 l 99 0 l 99 1056 l 135 1056 l 135 0 z "},"Ŀ":{"ha":474,"x_min":108,"x_max":447,"o":"m 108 0 l 108 992 l 144 992 l 144 35 l 447 35 l 447 0 l 108 0 m 356 631 q 383 616 375 631 q 390 585 390 601 q 381 549 390 563 q 354 536 371 536 q 328 551 336 536 q 319 583 319 565 q 327 615 319 600 q 356 631 335 631 z "},"ŀ":{"ha":293,"x_min":99,"x_max":301,"o":"m 135 0 l 99 0 l 99 1056 l 135 1056 l 135 0 m 267 632 q 294 617 286 632 q 301 586 301 603 q 292 551 301 564 q 265 538 282 538 q 239 552 247 538 q 231 585 231 567 q 238 617 231 601 q 267 632 246 632 z "},"Ł":{"ha":476,"x_min":3,"x_max":447,"o":"m 110 0 l 110 368 l 18 311 l 3 339 l 110 406 l 110 992 l 146 992 l 146 428 l 342 550 l 358 522 l 146 390 l 146 35 l 447 35 l 447 0 l 110 0 z "},"ł":{"ha":249,"x_min":-24,"x_max":276,"o":"m 104 0 l 104 515 l -8 440 l -24 468 l 104 553 l 104 1056 l 140 1056 l 140 578 l 260 657 l 276 629 l 140 539 l 140 0 l 104 0 z "},"Ń":{"ha":700,"x_min":108,"x_max":593,"o":"m 593 0 l 551 0 l 146 922 l 143 922 q 144 881 144 904 q 144 829 144 858 q 144 761 144 800 l 144 0 l 108 0 l 108 992 l 151 992 l 556 75 l 558 75 q 558 140 558 107 q 558 202 558 172 q 557 251 557 232 l 557 992 l 593 992 l 593 0 m 490 1310 q 451 1256 474 1285 q 405 1199 429 1228 q 358 1146 381 1171 q 314 1101 335 1121 l 294 1101 l 294 1118 q 352 1188 326 1156 q 401 1251 378 1219 q 449 1319 425 1283 l 490 1319 l 490 1310 z "},"ń":{"ha":567,"x_min":99,"x_max":471,"o":"m 313 746 q 430 692 389 746 q 471 521 471 639 l 471 0 l 435 0 l 435 507 q 402 665 435 618 q 313 713 369 713 q 188 642 240 713 q 135 432 135 572 l 135 0 l 99 0 l 99 732 l 126 732 l 128 576 l 131 576 q 162 657 140 618 q 220 721 183 696 q 313 746 257 746 m 424 1050 q 385 997 407 1025 q 338 940 363 968 q 291 886 314 911 q 247 842 268 861 l 228 842 l 228 858 q 285 928 260 896 q 335 992 311 960 q 382 1060 358 1024 l 424 1060 l 424 1050 z "},"Ņ":{"ha":700,"x_min":108,"x_max":593,"o":"m 593 0 l 551 0 l 146 922 l 143 922 q 144 881 144 904 q 144 829 144 858 q 144 761 144 800 l 144 0 l 108 0 l 108 992 l 151 992 l 556 75 l 558 75 q 558 140 558 107 q 558 202 558 172 q 557 251 557 232 l 557 992 l 593 992 l 593 0 m 400 -99 q 380 -167 392 -131 q 353 -239 368 -203 q 318 -307 338 -275 l 300 -307 l 300 -293 q 322 -230 310 -268 q 345 -152 335 -192 q 358 -85 356 -112 l 400 -85 l 400 -99 z "},"ņ":{"ha":567,"x_min":99,"x_max":471,"o":"m 313 746 q 430 692 389 746 q 471 521 471 639 l 471 0 l 435 0 l 435 507 q 402 665 435 618 q 313 713 369 713 q 188 642 240 713 q 135 432 135 572 l 135 0 l 99 0 l 99 732 l 126 732 l 128 576 l 131 576 q 162 657 140 618 q 220 721 183 696 q 313 746 257 746 m 333 -99 q 313 -167 325 -131 q 286 -239 301 -203 q 251 -307 271 -275 l 233 -307 l 233 -293 q 256 -230 243 -268 q 278 -152 268 -192 q 292 -85 289 -112 l 333 -85 l 333 -99 z "},"Ň":{"ha":700,"x_min":108,"x_max":593,"o":"m 593 0 l 551 0 l 146 922 l 143 922 q 144 881 144 904 q 144 829 144 858 q 144 761 144 800 l 144 0 l 108 0 l 108 992 l 151 992 l 556 75 l 558 75 q 558 140 558 107 q 558 202 558 172 q 557 251 557 232 l 557 992 l 593 992 l 593 0 m 333 1101 q 292 1176 315 1136 q 248 1253 269 1217 q 211 1310 226 1289 l 211 1319 l 233 1319 q 293 1238 261 1285 q 350 1144 325 1190 q 406 1231 378 1190 q 468 1319 433 1272 l 490 1319 l 490 1310 q 449 1244 471 1281 q 406 1172 426 1208 q 367 1101 385 1135 l 333 1101 z "},"ň":{"ha":567,"x_min":99,"x_max":471,"o":"m 313 746 q 430 692 389 746 q 471 521 471 639 l 471 0 l 435 0 l 435 507 q 402 665 435 618 q 313 713 369 713 q 188 642 240 713 q 135 432 135 572 l 135 0 l 99 0 l 99 732 l 126 732 l 128 576 l 131 576 q 162 657 140 618 q 220 721 183 696 q 313 746 257 746 m 267 842 q 226 917 249 876 q 181 993 203 957 q 144 1050 160 1029 l 144 1060 l 167 1060 q 226 978 194 1025 q 283 885 258 931 q 339 972 311 931 q 401 1060 367 1013 l 424 1060 l 424 1050 q 382 985 404 1021 q 339 912 360 949 q 300 842 318 875 l 267 842 z "},"ŉ":{"ha":569,"x_min":0,"x_max":474,"o":"m 315 746 q 433 692 392 746 q 474 521 474 639 l 474 0 l 438 0 l 438 507 q 405 665 438 618 q 315 713 372 713 q 190 642 243 713 q 138 432 138 572 l 138 0 l 101 0 l 101 732 l 129 732 l 131 576 l 133 576 q 165 657 143 618 q 223 721 186 696 q 315 746 260 746 m 124 976 q 97 883 111 931 q 67 786 83 835 q 29 688 51 738 l 0 688 q 24 769 13 731 q 44 845 35 808 q 62 918 54 882 q 75 992 69 954 l 113 992 l 124 976 z "},"Ŋ":{"ha":703,"x_min":108,"x_max":596,"o":"m 461 -243 q 417 -238 440 -243 q 381 -226 394 -233 l 381 -190 q 419 -203 396 -197 q 460 -208 442 -208 q 517 -188 494 -208 q 551 -119 540 -168 q 563 14 563 -71 l 144 924 l 142 924 q 143 885 143 906 q 144 836 143 864 q 144 769 144 808 l 144 0 l 108 0 l 108 992 l 149 992 l 558 99 l 561 99 q 561 153 561 126 q 560 203 561 179 q 560 249 560 228 l 560 992 l 596 992 l 596 -10 q 581 -142 596 -90 q 535 -219 565 -194 q 461 -243 506 -243 z "},"ŋ":{"ha":567,"x_min":99,"x_max":471,"o":"m 369 -336 q 347 -333 357 -336 q 329 -328 338 -331 l 329 -292 q 350 -299 340 -297 q 368 -301 360 -301 q 419 -262 403 -301 q 435 -156 435 -224 l 435 507 q 401 665 435 618 q 311 713 368 713 q 226 683 267 713 q 160 592 185 653 q 135 439 135 532 l 135 0 l 99 0 l 99 732 l 125 732 l 129 576 l 132 576 q 163 654 142 615 q 222 719 185 693 q 315 746 260 746 q 397 722 363 746 q 451 649 432 699 q 471 521 471 600 l 471 -156 q 460 -258 471 -218 q 426 -317 449 -297 q 369 -336 403 -336 z "},"Ō":{"ha":710,"x_min":75,"x_max":635,"o":"m 635 497 q 622 305 635 397 q 578 141 610 213 q 494 28 547 69 q 357 -14 440 -14 q 219 29 274 -14 q 133 145 164 72 q 88 310 101 218 q 75 497 75 401 q 108 780 75 667 q 203 949 140 893 q 357 1006 267 1006 q 520 940 460 1006 q 608 759 581 874 q 635 497 635 644 m 111 497 q 140 240 111 347 q 223 77 168 133 q 357 21 278 21 q 492 76 439 21 q 572 237 546 131 q 599 497 599 343 q 539 848 599 725 q 357 971 479 971 q 219 915 274 971 q 138 753 164 860 q 111 497 111 647 m 496 1150 l 496 1117 l 215 1117 l 215 1150 l 496 1150 z "},"ō":{"ha":560,"x_min":64,"x_max":496,"o":"m 496 367 q 483 198 496 269 q 443 79 469 126 q 376 9 417 32 q 283 -14 336 -14 q 188 10 229 -14 q 119 81 147 33 q 78 201 92 129 q 64 369 64 272 q 88 577 64 493 q 159 703 111 661 q 281 746 207 746 q 407 700 360 746 q 475 569 454 654 q 496 367 496 485 m 100 369 q 119 178 100 256 q 179 60 139 100 q 282 21 219 21 q 383 58 343 21 q 441 173 422 96 q 460 368 460 250 q 442 551 460 475 q 386 669 425 628 q 281 711 347 711 q 142 623 185 711 q 100 369 100 535 m 421 890 l 421 857 l 140 857 l 140 890 l 421 890 z "},"Ŏ":{"ha":710,"x_min":75,"x_max":635,"o":"m 635 497 q 622 305 635 397 q 578 141 610 213 q 494 28 547 69 q 357 -14 440 -14 q 219 29 274 -14 q 133 145 164 72 q 88 310 101 218 q 75 497 75 401 q 108 780 75 667 q 203 949 140 893 q 357 1006 267 1006 q 520 940 460 1006 q 608 759 581 874 q 635 497 635 644 m 111 497 q 140 240 111 347 q 223 77 168 133 q 357 21 278 21 q 492 76 439 21 q 572 237 546 131 q 599 497 599 343 q 539 848 599 725 q 357 971 479 971 q 219 915 274 971 q 138 753 164 860 q 111 497 111 647 m 494 1251 q 476 1176 493 1208 q 428 1125 458 1143 q 356 1107 397 1107 q 260 1143 300 1107 q 218 1251 221 1179 l 250 1251 q 265 1193 251 1218 q 301 1154 278 1168 q 357 1140 325 1140 q 413 1154 390 1140 q 449 1194 436 1168 q 463 1251 461 1219 l 494 1251 z "},"ŏ":{"ha":560,"x_min":64,"x_max":496,"o":"m 496 367 q 483 198 496 269 q 443 79 469 126 q 376 9 417 32 q 283 -14 336 -14 q 188 10 229 -14 q 119 81 147 33 q 78 201 92 129 q 64 369 64 272 q 88 577 64 493 q 159 703 111 661 q 281 746 207 746 q 407 700 360 746 q 475 569 454 654 q 496 367 496 485 m 100 369 q 119 178 100 256 q 179 60 139 100 q 282 21 219 21 q 383 58 343 21 q 441 173 422 96 q 460 368 460 250 q 442 551 460 475 q 386 669 425 628 q 281 711 347 711 q 142 623 185 711 q 100 369 100 535 m 419 992 q 401 916 418 949 q 353 865 383 883 q 281 847 322 847 q 185 883 225 847 q 143 992 146 919 l 175 992 q 190 933 176 958 q 226 894 203 908 q 282 881 250 881 q 338 894 315 881 q 374 934 361 908 q 388 992 386 960 l 419 992 z "},"Ő":{"ha":710,"x_min":75,"x_max":635,"o":"m 635 497 q 622 305 635 397 q 578 141 610 213 q 494 28 547 69 q 357 -14 440 -14 q 219 29 274 -14 q 133 145 164 72 q 88 310 101 218 q 75 497 75 401 q 108 780 75 667 q 203 949 140 893 q 357 1006 267 1006 q 520 940 460 1006 q 608 759 581 874 q 635 497 635 644 m 111 497 q 140 240 111 347 q 223 77 168 133 q 357 21 278 21 q 492 76 439 21 q 572 237 546 131 q 599 497 599 343 q 539 848 599 725 q 357 971 479 971 q 219 915 274 971 q 138 753 164 860 q 111 497 111 647 m 521 1314 q 494 1272 513 1299 q 453 1213 476 1244 q 407 1151 431 1181 q 364 1101 383 1122 l 342 1101 l 342 1113 q 392 1182 365 1142 q 444 1261 419 1222 q 481 1324 468 1300 l 521 1324 l 521 1314 m 368 1314 q 342 1272 360 1299 q 301 1213 324 1244 q 254 1151 278 1181 q 211 1101 231 1122 l 189 1101 l 189 1113 q 241 1185 214 1144 q 291 1263 268 1225 q 328 1324 314 1300 l 368 1324 l 368 1314 z "},"ő":{"ha":560,"x_min":64,"x_max":496,"o":"m 496 367 q 483 198 496 269 q 443 79 469 126 q 376 9 417 32 q 283 -14 336 -14 q 188 10 229 -14 q 119 81 147 33 q 78 201 92 129 q 64 369 64 272 q 88 577 64 493 q 159 703 111 661 q 281 746 207 746 q 407 700 360 746 q 475 569 454 654 q 496 367 496 485 m 100 369 q 119 178 100 256 q 179 60 139 100 q 282 21 219 21 q 383 58 343 21 q 441 173 422 96 q 460 368 460 250 q 442 551 460 475 q 386 669 425 628 q 281 711 347 711 q 142 623 185 711 q 100 369 100 535 m 446 1054 q 419 1012 438 1039 q 378 953 401 985 q 332 892 356 921 q 289 842 308 863 l 267 842 l 267 853 q 317 922 290 882 q 369 1001 344 963 q 406 1064 393 1040 l 446 1064 l 446 1054 m 293 1054 q 267 1012 285 1039 q 226 953 249 985 q 179 892 203 921 q 136 842 156 863 l 114 842 l 114 853 q 166 925 139 885 q 216 1003 193 965 q 253 1064 239 1040 l 293 1064 l 293 1054 z "},"Œ":{"ha":839,"x_min":75,"x_max":774,"o":"m 397 992 q 441 992 426 992 q 474 992 456 992 l 774 992 l 774 958 l 426 958 l 426 539 l 756 539 l 756 504 l 426 504 l 426 35 l 774 35 l 774 0 l 467 0 q 429 -1 449 0 q 386 -3 410 -3 q 211 53 281 -3 q 108 222 142 110 q 75 499 75 333 q 101 757 75 646 q 197 930 126 868 q 397 992 267 992 m 379 958 q 243 923 296 958 q 162 825 190 888 q 122 679 133 763 q 111 499 111 596 q 140 251 111 356 q 228 89 168 146 q 385 32 289 32 q 388 32 388 32 q 390 32 388 32 l 390 958 q 385 958 388 958 q 379 958 382 958 z "},"œ":{"ha":947,"x_min":64,"x_max":882,"o":"m 688 746 q 806 699 764 746 q 865 576 847 651 q 882 418 882 501 l 882 375 l 506 375 q 559 110 504 199 q 721 21 614 21 q 789 31 756 21 q 860 68 822 42 l 860 29 q 795 -2 831 10 q 715 -14 760 -14 q 561 46 615 -14 q 489 203 507 106 q 424 49 475 111 q 281 -14 372 -14 q 161 29 210 -14 q 88 158 113 72 q 64 367 64 243 q 90 581 64 497 q 167 706 117 665 q 292 746 218 746 q 429 686 382 746 q 489 535 476 626 q 524 640 500 592 q 588 717 547 688 q 688 746 629 746 m 292 711 q 145 622 190 711 q 100 367 100 532 q 119 180 100 257 q 179 62 139 103 q 281 21 219 21 q 390 64 349 21 q 451 185 432 107 q 469 368 469 264 q 451 554 469 478 q 394 671 433 631 q 292 711 356 711 m 686 711 q 565 642 617 711 q 506 411 514 572 l 846 411 q 831 561 847 493 q 781 670 815 629 q 686 711 746 711 z "},"Ŕ":{"ha":561,"x_min":108,"x_max":533,"o":"m 235 992 q 381 967 321 992 q 472 886 440 943 q 504 729 504 829 q 484 596 504 651 q 424 506 464 540 q 325 456 385 471 l 533 0 l 492 0 l 289 447 l 144 447 l 144 0 l 108 0 l 108 992 l 235 992 m 231 957 l 144 957 l 144 483 l 264 483 q 412 540 356 483 q 468 732 468 597 q 444 862 468 813 q 369 934 421 911 q 231 957 317 957 m 421 1310 q 382 1256 404 1285 q 335 1199 360 1228 q 288 1146 311 1171 q 244 1101 265 1121 l 225 1101 l 225 1118 q 283 1188 257 1156 q 332 1251 308 1219 q 379 1319 356 1283 l 421 1319 l 421 1310 z "},"ŕ":{"ha":364,"x_min":99,"x_max":351,"o":"m 289 743 q 320 740 303 743 q 351 728 338 736 l 340 694 q 318 703 332 699 q 289 707 304 707 q 222 677 251 707 q 174 599 193 647 q 144 495 154 551 q 135 385 135 439 l 135 0 l 99 0 l 99 732 l 126 732 l 133 568 l 136 568 q 165 646 147 606 q 213 715 182 686 q 289 743 243 743 m 322 1050 q 283 997 306 1025 q 237 940 261 968 q 190 886 213 911 q 146 842 167 861 l 126 842 l 126 858 q 184 928 158 896 q 233 992 210 960 q 281 1060 257 1024 l 322 1060 l 322 1050 z "},"Ŗ":{"ha":561,"x_min":108,"x_max":533,"o":"m 235 992 q 381 967 321 992 q 472 886 440 943 q 504 729 504 829 q 484 596 504 651 q 424 506 464 540 q 325 456 385 471 l 533 0 l 492 0 l 289 447 l 144 447 l 144 0 l 108 0 l 108 992 l 235 992 m 231 957 l 144 957 l 144 483 l 264 483 q 412 540 356 483 q 468 732 468 597 q 444 862 468 813 q 369 934 421 911 q 231 957 317 957 m 344 -99 q 324 -167 336 -131 q 297 -239 313 -203 q 263 -307 282 -275 l 244 -307 l 244 -293 q 267 -230 254 -268 q 290 -152 279 -192 q 303 -85 300 -112 l 344 -85 l 344 -99 z "},"ŗ":{"ha":364,"x_min":67,"x_max":351,"o":"m 289 743 q 320 740 303 743 q 351 728 338 736 l 340 694 q 318 703 332 699 q 289 707 304 707 q 222 677 251 707 q 174 599 193 647 q 144 495 154 551 q 135 385 135 439 l 135 0 l 99 0 l 99 732 l 126 732 l 133 568 l 136 568 q 165 646 147 606 q 213 715 182 686 q 289 743 243 743 m 167 -99 q 147 -167 158 -131 q 119 -239 135 -203 q 85 -307 104 -275 l 67 -307 l 67 -293 q 89 -230 76 -268 q 112 -152 101 -192 q 125 -85 122 -112 l 167 -85 l 167 -99 z "},"Ř":{"ha":561,"x_min":108,"x_max":533,"o":"m 235 992 q 381 967 321 992 q 472 886 440 943 q 504 729 504 829 q 484 596 504 651 q 424 506 464 540 q 325 456 385 471 l 533 0 l 492 0 l 289 447 l 144 447 l 144 0 l 108 0 l 108 992 l 235 992 m 231 957 l 144 957 l 144 483 l 264 483 q 412 540 356 483 q 468 732 468 597 q 444 862 468 813 q 369 934 421 911 q 231 957 317 957 m 264 1101 q 223 1176 246 1136 q 178 1253 200 1217 q 142 1310 157 1289 l 142 1319 l 164 1319 q 224 1238 192 1285 q 281 1144 256 1190 q 336 1231 308 1190 q 399 1319 364 1272 l 421 1319 l 421 1310 q 379 1244 401 1281 q 336 1172 357 1208 q 297 1101 315 1135 l 264 1101 z "},"ř":{"ha":364,"x_min":43,"x_max":351,"o":"m 289 743 q 320 740 303 743 q 351 728 338 736 l 340 694 q 318 703 332 699 q 289 707 304 707 q 222 677 251 707 q 174 599 193 647 q 144 495 154 551 q 135 385 135 439 l 135 0 l 99 0 l 99 732 l 126 732 l 133 568 l 136 568 q 165 646 147 606 q 213 715 182 686 q 289 743 243 743 m 165 842 q 124 917 147 876 q 80 993 101 957 q 43 1050 58 1029 l 43 1060 l 65 1060 q 125 978 93 1025 q 182 885 157 931 q 238 972 210 931 q 300 1060 265 1013 l 322 1060 l 322 1050 q 281 985 303 1021 q 238 912 258 949 q 199 842 217 875 l 165 842 z "},"Ś":{"ha":540,"x_min":58,"x_max":481,"o":"m 481 257 q 453 109 481 169 q 371 17 425 49 q 239 -14 317 -14 q 181 -10 213 -14 q 117 1 149 -7 q 58 21 86 10 l 58 61 q 144 33 94 44 q 239 22 194 22 q 353 51 308 22 q 421 133 399 81 q 443 257 443 186 q 424 363 443 324 q 364 431 404 403 q 263 492 324 460 q 188 535 224 513 q 124 586 151 557 q 81 656 97 615 q 65 757 65 697 q 96 894 65 839 q 180 978 126 950 q 304 1006 233 1006 q 396 994 351 1006 q 468 967 440 982 l 453 936 q 372 964 413 957 q 304 971 332 971 q 194 945 239 971 q 126 872 149 919 q 103 757 103 824 q 127 647 103 689 q 192 576 151 604 q 279 522 232 549 q 388 458 343 489 q 456 382 432 428 q 481 257 481 336 m 411 1310 q 372 1256 394 1285 q 326 1199 350 1228 q 278 1146 301 1171 q 235 1101 256 1121 l 215 1101 l 215 1118 q 273 1188 247 1156 q 322 1251 299 1219 q 369 1319 346 1283 l 411 1319 l 411 1310 z "},"ś":{"ha":433,"x_min":50,"x_max":386,"o":"m 386 171 q 366 74 386 115 q 306 9 346 32 q 204 -14 265 -14 q 113 0 153 -14 q 50 29 74 14 l 50 72 q 121 36 81 50 q 204 22 161 22 q 313 62 278 22 q 349 174 349 101 q 333 252 349 222 q 289 305 318 282 q 218 353 260 328 q 134 410 171 382 q 76 476 97 439 q 54 567 54 513 q 100 693 54 640 q 243 746 146 746 q 319 736 283 746 q 382 708 356 726 l 364 676 q 308 702 342 693 q 242 711 275 711 q 132 674 174 711 q 90 565 90 636 q 106 496 90 525 q 151 442 121 467 q 225 389 181 417 q 307 334 271 361 q 365 269 343 307 q 386 171 386 232 m 357 1050 q 318 997 340 1025 q 272 940 296 968 q 224 886 247 911 q 181 842 201 861 l 161 842 l 161 858 q 219 928 193 896 q 268 992 244 960 q 315 1060 292 1024 l 357 1060 l 357 1050 z "},"Ŝ":{"ha":540,"x_min":58,"x_max":481,"o":"m 481 257 q 453 109 481 169 q 371 17 425 49 q 239 -14 317 -14 q 181 -10 213 -14 q 117 1 149 -7 q 58 21 86 10 l 58 61 q 144 33 94 44 q 239 22 194 22 q 353 51 308 22 q 421 133 399 81 q 443 257 443 186 q 424 363 443 324 q 364 431 404 403 q 263 492 324 460 q 188 535 224 513 q 124 586 151 557 q 81 656 97 615 q 65 757 65 697 q 96 894 65 839 q 180 978 126 950 q 304 1006 233 1006 q 396 994 351 1006 q 468 967 440 982 l 453 936 q 372 964 413 957 q 304 971 332 971 q 194 945 239 971 q 126 872 149 919 q 103 757 103 824 q 127 647 103 689 q 192 576 151 604 q 279 522 232 549 q 388 458 343 489 q 456 382 432 428 q 481 257 481 336 m 292 1319 q 335 1243 310 1288 q 384 1162 361 1199 q 415 1111 407 1125 l 415 1101 l 394 1101 q 332 1187 365 1138 q 271 1278 299 1236 q 210 1188 244 1239 q 149 1101 176 1136 l 126 1101 l 126 1111 q 164 1171 142 1133 q 210 1249 186 1208 q 250 1319 233 1289 l 292 1319 z "},"ŝ":{"ha":433,"x_min":50,"x_max":386,"o":"m 386 171 q 366 74 386 115 q 306 9 346 32 q 204 -14 265 -14 q 113 0 153 -14 q 50 29 74 14 l 50 72 q 121 36 81 50 q 204 22 161 22 q 313 62 278 22 q 349 174 349 101 q 333 252 349 222 q 289 305 318 282 q 218 353 260 328 q 134 410 171 382 q 76 476 97 439 q 54 567 54 513 q 100 693 54 640 q 243 746 146 746 q 319 736 283 746 q 382 708 356 726 l 364 676 q 308 702 342 693 q 242 711 275 711 q 132 674 174 711 q 90 565 90 636 q 106 496 90 525 q 151 442 121 467 q 225 389 181 417 q 307 334 271 361 q 365 269 343 307 q 386 171 386 232 m 238 1060 q 281 983 256 1028 q 330 902 307 939 q 361 851 353 865 l 361 842 l 340 842 q 278 927 311 878 q 217 1018 244 976 q 156 928 190 979 q 94 842 122 876 l 72 842 l 72 851 q 110 911 88 874 q 156 989 132 949 q 196 1060 179 1029 l 238 1060 z "},"Ş":{"ha":540,"x_min":58,"x_max":481,"o":"m 481 257 q 453 109 481 169 q 371 17 425 49 q 239 -14 317 -14 q 181 -10 213 -14 q 117 1 149 -7 q 58 21 86 10 l 58 61 q 144 33 94 44 q 239 22 194 22 q 353 51 308 22 q 421 133 399 81 q 443 257 443 186 q 424 363 443 324 q 364 431 404 403 q 263 492 324 460 q 188 535 224 513 q 124 586 151 557 q 81 656 97 615 q 65 757 65 697 q 96 894 65 839 q 180 978 126 950 q 304 1006 233 1006 q 396 994 351 1006 q 468 967 440 982 l 453 936 q 372 964 413 957 q 304 971 332 971 q 194 945 239 971 q 126 872 149 919 q 103 757 103 824 q 127 647 103 689 q 192 576 151 604 q 279 522 232 549 q 388 458 343 489 q 456 382 432 428 q 481 257 481 336 m 379 -201 q 338 -297 379 -261 q 226 -333 297 -333 q 196 -331 214 -333 q 163 -325 178 -329 l 163 -292 q 195 -299 178 -296 q 226 -301 213 -301 q 310 -276 275 -301 q 344 -201 344 -250 q 308 -133 344 -153 q 215 -112 272 -114 l 263 0 l 299 0 l 263 -86 q 327 -106 301 -90 q 366 -146 353 -122 q 379 -201 379 -169 z "},"ş":{"ha":433,"x_min":50,"x_max":386,"o":"m 386 171 q 366 74 386 115 q 306 9 346 32 q 204 -14 265 -14 q 113 0 153 -14 q 50 29 74 14 l 50 72 q 121 36 81 50 q 204 22 161 22 q 313 62 278 22 q 349 174 349 101 q 333 252 349 222 q 289 305 318 282 q 218 353 260 328 q 134 410 171 382 q 76 476 97 439 q 54 567 54 513 q 100 693 54 640 q 243 746 146 746 q 319 736 283 746 q 382 708 356 726 l 364 676 q 308 702 342 693 q 242 711 275 711 q 132 674 174 711 q 90 565 90 636 q 106 496 90 525 q 151 442 121 467 q 225 389 181 417 q 307 334 271 361 q 365 269 343 307 q 386 171 386 232 m 325 -201 q 284 -297 325 -261 q 172 -333 243 -333 q 142 -331 160 -333 q 108 -325 124 -329 l 108 -292 q 141 -299 124 -296 q 172 -301 158 -301 q 256 -276 221 -301 q 290 -201 290 -250 q 254 -133 290 -153 q 161 -112 218 -114 l 208 0 l 244 0 l 208 -86 q 273 -106 247 -90 q 312 -146 299 -122 q 325 -201 325 -169 z "},"Š":{"ha":540,"x_min":58,"x_max":481,"o":"m 481 257 q 453 109 481 169 q 371 17 425 49 q 239 -14 317 -14 q 181 -10 213 -14 q 117 1 149 -7 q 58 21 86 10 l 58 61 q 144 33 94 44 q 239 22 194 22 q 353 51 308 22 q 421 133 399 81 q 443 257 443 186 q 424 363 443 324 q 364 431 404 403 q 263 492 324 460 q 188 535 224 513 q 124 586 151 557 q 81 656 97 615 q 65 757 65 697 q 96 894 65 839 q 180 978 126 950 q 304 1006 233 1006 q 396 994 351 1006 q 468 967 440 982 l 453 936 q 372 964 413 957 q 304 971 332 971 q 194 945 239 971 q 126 872 149 919 q 103 757 103 824 q 127 647 103 689 q 192 576 151 604 q 279 522 232 549 q 388 458 343 489 q 456 382 432 428 q 481 257 481 336 m 254 1101 q 213 1176 236 1136 q 169 1253 190 1217 q 132 1310 147 1289 l 132 1319 l 154 1319 q 214 1238 182 1285 q 271 1144 246 1190 q 326 1231 299 1190 q 389 1319 354 1272 l 411 1319 l 411 1310 q 369 1244 392 1281 q 326 1172 347 1208 q 288 1101 306 1135 l 254 1101 z "},"š":{"ha":433,"x_min":50,"x_max":386,"o":"m 386 171 q 366 74 386 115 q 306 9 346 32 q 204 -14 265 -14 q 113 0 153 -14 q 50 29 74 14 l 50 72 q 121 36 81 50 q 204 22 161 22 q 313 62 278 22 q 349 174 349 101 q 333 252 349 222 q 289 305 318 282 q 218 353 260 328 q 134 410 171 382 q 76 476 97 439 q 54 567 54 513 q 100 693 54 640 q 243 746 146 746 q 319 736 283 746 q 382 708 356 726 l 364 676 q 308 702 342 693 q 242 711 275 711 q 132 674 174 711 q 90 565 90 636 q 106 496 90 525 q 151 442 121 467 q 225 389 181 417 q 307 334 271 361 q 365 269 343 307 q 386 171 386 232 m 200 842 q 159 917 182 876 q 115 993 136 957 q 78 1050 93 1029 l 78 1060 l 100 1060 q 160 978 128 1025 q 217 885 192 931 q 272 972 244 931 q 335 1060 300 1013 l 357 1060 l 357 1050 q 315 985 338 1021 q 272 912 293 949 q 233 842 251 875 l 200 842 z "},"Ț":{"ha":467,"x_min":10,"x_max":456,"o":"m 250 0 l 214 0 l 214 957 l 10 957 l 10 992 l 456 992 l 456 957 l 250 957 l 250 0 m 283 -99 q 263 -167 275 -131 q 236 -239 251 -203 q 201 -307 221 -275 l 183 -307 l 183 -293 q 206 -230 193 -268 q 228 -152 218 -192 q 242 -85 239 -112 l 283 -85 l 283 -99 z "},"ț":{"ha":290,"x_min":29,"x_max":272,"o":"m 204 19 q 240 24 222 19 q 267 35 257 29 l 267 0 q 238 -10 253 -6 q 203 -14 222 -14 q 138 6 161 -14 q 107 63 115 25 q 99 156 99 100 l 99 699 l 29 699 l 29 724 l 96 733 l 106 911 l 135 911 l 135 732 l 272 732 l 272 699 l 135 699 l 135 150 q 149 51 135 83 q 204 19 163 19 m 236 -99 q 216 -167 228 -131 q 189 -239 204 -203 q 154 -307 174 -275 l 136 -307 l 136 -293 q 158 -230 146 -268 q 181 -152 171 -192 q 194 -85 192 -112 l 236 -85 l 236 -99 z "},"Ť":{"ha":467,"x_min":10,"x_max":456,"o":"m 250 0 l 214 0 l 214 957 l 10 957 l 10 992 l 456 992 l 456 957 l 250 957 l 250 0 m 217 1101 q 176 1176 199 1136 q 131 1253 153 1217 q 94 1310 110 1289 l 94 1319 l 117 1319 q 176 1238 144 1285 q 233 1144 208 1190 q 289 1231 261 1190 q 351 1319 317 1272 l 374 1319 l 374 1310 q 332 1244 354 1281 q 289 1172 310 1208 q 250 1101 268 1135 l 217 1101 z "},"ť":{"ha":290,"x_min":29,"x_max":344,"o":"m 344 1042 q 331 975 340 1018 q 308 890 321 932 q 282 828 296 849 l 265 828 l 265 847 q 274 883 268 856 q 285 946 279 911 q 294 1011 290 981 q 300 1056 299 1042 l 344 1056 l 344 1042 m 204 19 q 240 24 222 19 q 267 35 257 29 l 267 0 q 238 -10 253 -6 q 203 -14 222 -14 q 138 6 161 -14 q 107 63 115 25 q 99 156 99 100 l 99 699 l 29 699 l 29 724 l 96 733 l 106 911 l 135 911 l 135 732 l 272 732 l 272 699 l 135 699 l 135 150 q 149 51 135 83 q 204 19 163 19 z "},"Ŧ":{"ha":467,"x_min":10,"x_max":456,"o":"m 214 0 l 214 504 l 42 504 l 42 539 l 214 539 l 214 957 l 10 957 l 10 992 l 456 992 l 456 957 l 250 957 l 250 539 l 425 539 l 425 504 l 250 504 l 250 0 l 214 0 z "},"ŧ":{"ha":290,"x_min":29,"x_max":275,"o":"m 32 396 l 32 431 l 275 431 l 275 396 l 32 396 m 204 19 q 240 24 222 19 q 267 35 257 29 l 267 0 q 238 -10 253 -6 q 203 -14 222 -14 q 138 6 161 -14 q 107 63 115 25 q 99 156 99 100 l 99 699 l 29 699 l 29 724 l 96 733 l 106 911 l 135 911 l 135 732 l 272 732 l 272 699 l 135 699 l 135 150 q 149 51 135 83 q 204 19 163 19 z "},"Ũ":{"ha":675,"x_min":100,"x_max":575,"o":"m 575 301 q 543 112 575 181 q 458 15 511 43 q 338 -14 404 -14 q 162 62 224 -14 q 100 301 100 138 l 100 992 l 136 992 l 136 307 q 190 86 136 151 q 338 21 243 21 q 442 47 397 21 q 513 135 488 72 q 539 307 539 197 l 539 992 l 575 992 l 575 301 m 157 1117 q 168 1173 160 1150 q 190 1210 176 1196 q 219 1232 203 1225 q 253 1239 235 1239 q 303 1225 282 1239 q 343 1194 325 1211 q 380 1163 361 1176 q 421 1149 399 1149 q 467 1173 449 1149 q 488 1240 485 1197 l 518 1240 q 488 1147 517 1176 q 421 1117 460 1117 q 370 1131 392 1117 q 330 1162 349 1144 q 293 1193 311 1179 q 253 1207 275 1207 q 210 1185 229 1207 q 189 1117 192 1164 l 157 1117 z "},"ũ":{"ha":567,"x_min":96,"x_max":468,"o":"m 468 732 l 468 0 l 440 0 l 439 156 l 436 156 q 406 76 426 115 q 350 12 386 38 q 254 -14 314 -14 q 165 12 200 -14 q 113 90 131 38 q 96 221 96 142 l 96 732 l 132 732 l 132 232 q 165 71 132 121 q 257 21 197 21 q 349 53 310 21 q 410 150 389 85 q 432 317 432 215 l 432 732 l 468 732 m 103 857 q 114 913 106 890 q 135 951 122 936 q 165 972 149 965 q 199 979 181 979 q 249 965 228 979 q 289 934 271 951 q 326 903 307 917 q 367 889 344 889 q 413 913 394 889 q 433 981 431 938 l 464 981 q 434 887 463 917 q 367 857 406 857 q 316 871 338 857 q 276 902 294 885 q 239 933 257 919 q 199 947 221 947 q 156 926 175 947 q 135 857 138 904 l 103 857 z "},"Ū":{"ha":675,"x_min":100,"x_max":575,"o":"m 575 301 q 543 112 575 181 q 458 15 511 43 q 338 -14 404 -14 q 162 62 224 -14 q 100 301 100 138 l 100 992 l 136 992 l 136 307 q 190 86 136 151 q 338 21 243 21 q 442 47 397 21 q 513 135 488 72 q 539 307 539 197 l 539 992 l 575 992 l 575 301 m 478 1150 l 478 1117 l 197 1117 l 197 1150 l 478 1150 z "},"ū":{"ha":567,"x_min":96,"x_max":468,"o":"m 468 732 l 468 0 l 440 0 l 439 156 l 436 156 q 406 76 426 115 q 350 12 386 38 q 254 -14 314 -14 q 165 12 200 -14 q 113 90 131 38 q 96 221 96 142 l 96 732 l 132 732 l 132 232 q 165 71 132 121 q 257 21 197 21 q 349 53 310 21 q 410 150 389 85 q 432 317 432 215 l 432 732 l 468 732 m 424 890 l 424 857 l 143 857 l 143 890 l 424 890 z "},"Ŭ":{"ha":675,"x_min":100,"x_max":575,"o":"m 575 301 q 543 112 575 181 q 458 15 511 43 q 338 -14 404 -14 q 162 62 224 -14 q 100 301 100 138 l 100 992 l 136 992 l 136 307 q 190 86 136 151 q 338 21 243 21 q 442 47 397 21 q 513 135 488 72 q 539 307 539 197 l 539 992 l 575 992 l 575 301 m 476 1251 q 458 1176 475 1208 q 410 1125 440 1143 q 338 1107 379 1107 q 242 1143 282 1107 q 200 1251 203 1179 l 232 1251 q 247 1193 233 1218 q 283 1154 260 1168 q 339 1140 307 1140 q 395 1154 372 1140 q 431 1194 418 1168 q 444 1251 443 1219 l 476 1251 z "},"ŭ":{"ha":567,"x_min":96,"x_max":468,"o":"m 468 732 l 468 0 l 440 0 l 439 156 l 436 156 q 406 76 426 115 q 350 12 386 38 q 254 -14 314 -14 q 165 12 200 -14 q 113 90 131 38 q 96 221 96 142 l 96 732 l 132 732 l 132 232 q 165 71 132 121 q 257 21 197 21 q 349 53 310 21 q 410 150 389 85 q 432 317 432 215 l 432 732 l 468 732 m 422 992 q 403 916 421 949 q 356 865 386 883 q 283 847 325 847 q 188 883 228 847 q 146 992 149 919 l 178 992 q 192 933 179 958 q 229 894 206 908 q 285 881 253 881 q 341 894 318 881 q 376 934 364 908 q 390 992 389 960 l 422 992 z "},"Ů":{"ha":675,"x_min":100,"x_max":575,"o":"m 575 301 q 543 112 575 181 q 458 15 511 43 q 338 -14 404 -14 q 162 62 224 -14 q 100 301 100 138 l 100 992 l 136 992 l 136 307 q 190 86 136 151 q 338 21 243 21 q 442 47 397 21 q 513 135 488 72 q 539 307 539 197 l 539 992 l 575 992 l 575 301 m 339 1117 q 253 1148 289 1117 q 217 1236 217 1179 q 251 1324 217 1293 q 336 1356 286 1356 q 424 1323 389 1356 q 458 1235 458 1290 q 425 1149 458 1181 q 339 1117 392 1117 m 339 1147 q 403 1172 379 1147 q 426 1235 426 1196 q 402 1300 426 1275 q 336 1325 378 1325 q 271 1300 293 1325 q 249 1236 249 1275 q 272 1174 249 1200 q 339 1147 294 1147 z "},"ů":{"ha":567,"x_min":96,"x_max":468,"o":"m 468 732 l 468 0 l 440 0 l 439 156 l 436 156 q 406 76 426 115 q 350 12 386 38 q 254 -14 314 -14 q 165 12 200 -14 q 113 90 131 38 q 96 221 96 142 l 96 732 l 132 732 l 132 232 q 165 71 132 121 q 257 21 197 21 q 349 53 310 21 q 410 150 389 85 q 432 317 432 215 l 432 732 l 468 732 m 285 857 q 199 888 235 857 q 163 976 163 919 q 197 1065 163 1033 q 282 1096 232 1096 q 369 1063 335 1096 q 404 975 404 1031 q 371 889 404 921 q 285 857 338 857 m 285 888 q 349 912 325 888 q 372 975 372 936 q 348 1040 372 1015 q 282 1065 324 1065 q 217 1040 239 1065 q 194 976 194 1015 q 217 914 194 940 q 285 888 240 888 z "},"Ű":{"ha":675,"x_min":100,"x_max":575,"o":"m 575 301 q 543 112 575 181 q 458 15 511 43 q 338 -14 404 -14 q 162 62 224 -14 q 100 301 100 138 l 100 992 l 136 992 l 136 307 q 190 86 136 151 q 338 21 243 21 q 442 47 397 21 q 513 135 488 72 q 539 307 539 197 l 539 992 l 575 992 l 575 301 m 503 1314 q 476 1272 494 1299 q 435 1213 458 1244 q 389 1151 413 1181 q 346 1101 365 1122 l 324 1101 l 324 1113 q 374 1182 347 1142 q 426 1261 401 1222 q 463 1324 450 1300 l 503 1324 l 503 1314 m 350 1314 q 324 1272 342 1299 q 283 1213 306 1244 q 236 1151 260 1181 q 193 1101 213 1122 l 171 1101 l 171 1113 q 223 1185 196 1144 q 273 1263 250 1225 q 310 1324 296 1300 l 350 1324 l 350 1314 z "},"ű":{"ha":567,"x_min":96,"x_max":468,"o":"m 468 732 l 468 0 l 440 0 l 439 156 l 436 156 q 406 76 426 115 q 350 12 386 38 q 254 -14 314 -14 q 165 12 200 -14 q 113 90 131 38 q 96 221 96 142 l 96 732 l 132 732 l 132 232 q 165 71 132 121 q 257 21 197 21 q 349 53 310 21 q 410 150 389 85 q 432 317 432 215 l 432 732 l 468 732 m 449 1054 q 422 1012 440 1039 q 381 953 404 985 q 335 892 358 921 q 292 842 311 863 l 269 842 l 269 853 q 320 922 293 882 q 372 1001 347 963 q 408 1064 396 1040 l 449 1064 l 449 1054 m 296 1054 q 269 1012 288 1039 q 228 953 251 985 q 182 892 206 921 q 139 842 158 863 l 117 842 l 117 853 q 169 925 142 885 q 219 1003 196 965 q 256 1064 242 1040 l 296 1064 l 296 1054 z "},"Ų":{"ha":675,"x_min":100,"x_max":575,"o":"m 353 -193 q 372 -249 353 -229 q 428 -268 390 -268 q 457 -265 443 -268 q 476 -261 471 -262 l 476 -293 q 455 -299 468 -296 q 426 -301 442 -301 q 348 -275 379 -301 q 317 -194 317 -249 q 331 -121 317 -158 q 374 -47 346 -83 q 443 19 403 -11 l 489 38 q 423 -34 454 4 q 372 -112 392 -72 q 353 -193 353 -153 m 575 301 q 543 112 575 181 q 458 15 511 43 q 338 -14 404 -14 q 162 62 224 -14 q 100 301 100 138 l 100 992 l 136 992 l 136 307 q 190 86 136 151 q 338 21 243 21 q 442 47 397 21 q 513 135 488 72 q 539 307 539 197 l 539 992 l 575 992 l 575 301 z "},"ų":{"ha":567,"x_min":96,"x_max":469,"o":"m 468 732 l 468 0 l 440 0 l 439 156 l 436 156 q 406 76 426 115 q 350 12 386 38 q 254 -14 314 -14 q 165 12 200 -14 q 113 90 131 38 q 96 221 96 142 l 96 732 l 132 732 l 132 232 q 165 71 132 121 q 257 21 197 21 q 349 53 310 21 q 410 150 389 85 q 432 317 432 215 l 432 732 l 468 732 m 360 -189 q 376 -248 360 -228 q 422 -268 392 -268 q 449 -265 435 -268 q 469 -261 464 -262 l 469 -293 q 449 -299 461 -296 q 421 -301 436 -301 q 349 -274 375 -301 q 322 -194 322 -246 q 336 -121 322 -157 q 376 -51 350 -85 q 438 13 403 -18 l 465 0 q 385 -94 411 -50 q 360 -189 360 -139 z "},"Ŵ":{"ha":899,"x_min":7,"x_max":892,"o":"m 892 992 l 674 0 l 624 0 l 469 779 q 463 814 465 799 q 458 844 460 829 q 453 877 456 860 q 447 918 450 894 q 442 877 444 894 q 438 844 440 860 q 432 814 435 829 q 425 779 429 799 l 271 0 l 218 0 l 7 992 l 44 992 l 213 210 q 224 151 219 178 q 233 103 229 124 q 240 66 238 82 q 244 40 243 50 q 253 90 249 64 q 263 140 258 117 q 270 183 267 164 q 275 210 274 201 l 429 992 l 465 992 l 619 210 q 628 165 624 185 q 635 125 632 144 q 641 84 638 106 q 649 36 644 63 q 660 97 654 68 q 672 154 665 126 q 683 210 678 182 l 853 992 l 892 992 m 471 1319 q 515 1243 489 1288 q 563 1162 540 1199 q 594 1111 586 1125 l 594 1101 l 574 1101 q 511 1187 544 1138 q 450 1278 478 1236 q 390 1188 424 1239 q 328 1101 356 1136 l 306 1101 l 306 1111 q 343 1171 321 1133 q 389 1249 365 1208 q 429 1319 413 1289 l 471 1319 z "},"ŵ":{"ha":711,"x_min":14,"x_max":697,"o":"m 386 542 q 379 575 382 558 q 373 608 376 592 q 367 639 369 624 q 361 669 364 654 l 360 669 q 354 638 357 654 q 349 606 351 622 q 342 574 346 590 q 335 542 339 558 l 218 0 l 178 0 l 14 732 l 49 732 l 164 218 q 176 166 171 192 q 186 116 181 140 q 197 67 192 92 l 200 67 q 205 99 201 79 q 213 140 208 118 q 222 185 217 163 q 231 226 226 207 l 340 732 l 381 732 l 490 217 q 501 166 496 192 q 510 115 506 140 q 518 65 515 90 l 521 65 q 532 128 528 106 q 540 167 536 150 q 549 210 543 185 l 663 732 l 697 732 l 536 0 l 500 0 l 386 542 m 376 1060 q 420 983 394 1028 q 469 902 446 939 q 500 851 492 865 l 500 842 l 479 842 q 417 927 450 878 q 356 1018 383 976 q 295 928 329 979 q 233 842 261 876 l 211 842 l 211 851 q 249 911 226 874 q 294 989 271 949 q 335 1060 318 1029 l 376 1060 z "},"Ŷ":{"ha":438,"x_min":0,"x_max":438,"o":"m 219 438 l 400 992 l 438 992 l 238 386 l 238 0 l 201 0 l 201 386 l 0 992 l 38 992 l 219 438 m 240 1319 q 284 1243 258 1288 q 333 1162 310 1199 q 364 1111 356 1125 l 364 1101 l 343 1101 q 281 1187 314 1138 q 219 1278 247 1236 q 159 1188 193 1239 q 97 1101 125 1136 l 75 1101 l 75 1111 q 113 1171 90 1133 q 158 1249 135 1208 q 199 1319 182 1289 l 240 1319 z "},"ŷ":{"ha":439,"x_min":14,"x_max":425,"o":"m 32 732 l 68 732 l 201 194 q 217 130 213 150 q 222 101 221 110 q 225 82 224 92 l 228 82 q 242 149 236 124 q 254 197 249 175 l 389 732 l 425 732 l 197 -174 q 162 -270 182 -235 q 117 -321 142 -306 q 63 -336 92 -336 q 38 -333 49 -336 q 14 -325 26 -331 l 14 -286 q 38 -296 25 -292 q 63 -300 51 -300 q 98 -290 81 -300 q 132 -251 115 -279 q 161 -169 149 -222 l 208 18 l 32 732 m 240 1060 q 284 983 258 1028 q 333 902 310 939 q 364 851 356 865 l 364 842 l 343 842 q 281 927 314 878 q 219 1018 247 976 q 159 928 193 979 q 97 842 125 876 l 75 842 l 75 851 q 113 911 90 874 q 158 989 135 949 q 199 1060 182 1029 l 240 1060 z "},"Ÿ":{"ha":438,"x_min":0,"x_max":438,"o":"m 219 438 l 400 992 l 438 992 l 238 386 l 238 0 l 201 0 l 201 386 l 0 992 l 38 992 l 219 438 m 88 1181 q 97 1213 88 1199 q 122 1226 106 1226 q 147 1213 138 1226 q 156 1181 156 1200 q 147 1149 156 1161 q 122 1136 138 1136 q 97 1149 106 1136 q 88 1181 88 1163 m 283 1182 q 293 1213 283 1200 q 318 1226 303 1226 q 343 1214 333 1226 q 353 1182 353 1201 q 343 1149 353 1163 q 318 1136 333 1136 q 293 1150 303 1136 q 283 1182 283 1164 z "},"Ź":{"ha":449,"x_min":39,"x_max":421,"o":"m 421 0 l 39 0 l 39 33 l 374 957 l 56 957 l 56 992 l 411 992 l 411 957 l 79 35 l 421 35 l 421 0 m 365 1310 q 326 1256 349 1285 q 280 1199 304 1228 q 233 1146 256 1171 q 189 1101 210 1121 l 169 1101 l 169 1118 q 227 1188 201 1156 q 276 1251 253 1219 q 324 1319 300 1283 l 365 1319 l 365 1310 z "},"ź":{"ha":358,"x_min":40,"x_max":326,"o":"m 326 0 l 40 0 l 40 33 l 285 697 l 60 697 l 60 732 l 322 732 l 322 700 l 78 35 l 326 35 l 326 0 m 319 1050 q 281 997 303 1025 q 234 940 258 968 q 187 886 210 911 q 143 842 164 861 l 124 842 l 124 858 q 181 928 156 896 q 231 992 207 960 q 278 1060 254 1024 l 319 1060 l 319 1050 z "},"Ż":{"ha":449,"x_min":39,"x_max":421,"o":"m 421 0 l 39 0 l 39 33 l 374 957 l 56 957 l 56 992 l 411 992 l 411 957 l 79 35 l 421 35 l 421 0 m 226 1265 q 253 1251 246 1265 q 261 1219 261 1236 q 251 1184 261 1197 q 225 1171 242 1171 q 199 1185 207 1171 q 190 1218 190 1200 q 198 1250 190 1235 q 226 1265 206 1265 z "},"ż":{"ha":358,"x_min":40,"x_max":326,"o":"m 326 0 l 40 0 l 40 33 l 285 697 l 60 697 l 60 732 l 322 732 l 322 700 l 78 35 l 326 35 l 326 0 m 181 1006 q 208 991 200 1006 q 215 960 215 976 q 206 924 215 938 q 179 911 196 911 q 153 926 161 911 q 144 958 144 940 q 152 990 144 975 q 181 1006 160 1006 z "},"Ž":{"ha":449,"x_min":39,"x_max":421,"o":"m 421 0 l 39 0 l 39 33 l 374 957 l 56 957 l 56 992 l 411 992 l 411 957 l 79 35 l 421 35 l 421 0 m 208 1101 q 167 1176 190 1136 q 123 1253 144 1217 q 86 1310 101 1289 l 86 1319 l 108 1319 q 168 1238 136 1285 q 225 1144 200 1190 q 281 1231 253 1190 q 343 1319 308 1272 l 365 1319 l 365 1310 q 324 1244 346 1281 q 281 1172 301 1208 q 242 1101 260 1135 l 208 1101 z "},"ž":{"ha":358,"x_min":40,"x_max":326,"o":"m 326 0 l 40 0 l 40 33 l 285 697 l 60 697 l 60 732 l 322 732 l 322 700 l 78 35 l 326 35 l 326 0 m 163 842 q 122 917 144 876 q 77 993 99 957 q 40 1050 56 1029 l 40 1060 l 63 1060 q 122 978 90 1025 q 179 885 154 931 q 235 972 207 931 q 297 1060 263 1013 l 319 1060 l 319 1050 q 278 985 300 1021 q 235 912 256 949 q 196 842 214 875 l 163 842 z "},"ſ":{"ha":236,"x_min":99,"x_max":306,"o":"m 246 1029 q 162 983 190 1029 q 133 807 133 936 l 133 0 l 99 0 l 99 811 q 113 949 99 893 q 158 1034 126 1006 q 246 1063 190 1063 q 278 1060 264 1063 q 306 1051 292 1057 l 297 1019 q 271 1027 283 1025 q 246 1029 258 1029 z "},"ƒ":{"ha":475,"x_min":7,"x_max":510,"o":"m 168 -324 q 51 -277 96 -324 q 7 -146 7 -231 q 9 -114 7 -129 q 15 -85 11 -99 l 50 -93 q 47 -115 49 -100 q 44 -147 44 -129 q 76 -250 44 -211 q 167 -289 108 -289 q 261 -243 229 -289 q 293 -122 293 -197 l 293 697 l 196 697 l 196 726 l 293 733 l 293 840 q 306 966 293 917 q 349 1039 319 1015 q 429 1063 379 1063 q 475 1057 454 1063 q 510 1044 496 1051 l 496 1014 q 463 1026 481 1022 q 428 1029 444 1029 q 351 983 372 1029 q 329 831 329 938 l 329 732 l 436 732 l 436 697 l 329 697 l 329 -121 q 312 -223 329 -176 q 259 -297 294 -269 q 168 -324 224 -324 z "},"Ǻ":{"ha":526,"x_min":0,"x_max":526,"o":"m 240 832 q 170 869 199 839 q 142 950 142 900 q 176 1038 142 1007 q 261 1069 211 1069 q 349 1037 314 1069 q 383 949 383 1004 q 357 870 383 901 q 286 832 331 839 l 526 0 l 490 0 l 399 313 l 126 313 l 38 0 l 0 0 l 240 832 m 136 347 l 390 347 l 285 728 q 275 766 279 751 q 268 792 271 781 q 264 814 265 803 q 260 797 263 806 q 256 780 258 789 q 251 759 254 771 q 243 731 247 747 l 136 347 m 264 860 q 328 885 304 860 q 353 949 353 910 q 328 1015 353 989 q 261 1040 303 1040 q 195 1015 218 1040 q 172 950 172 989 q 196 887 172 914 q 264 860 219 860 m 204 1118 q 262 1188 236 1156 q 311 1251 288 1219 q 358 1319 335 1283 l 400 1319 l 400 1310 q 361 1256 383 1285 q 315 1199 339 1228 q 267 1146 290 1171 q 224 1101 244 1121 l 204 1101 l 204 1118 z "},"ǻ":{"ha":504,"x_min":53,"x_max":413,"o":"m 246 746 q 373 690 333 746 q 413 497 413 633 l 413 0 l 383 0 l 382 129 l 379 129 q 353 62 371 94 q 303 8 336 29 q 218 -14 271 -14 q 124 13 160 -14 q 70 85 88 40 q 53 179 53 129 q 115 344 53 289 q 292 413 178 399 l 376 422 l 376 493 q 346 665 376 618 q 246 711 315 711 q 188 703 221 711 q 115 671 154 694 l 100 701 q 172 734 133 722 q 246 746 211 746 m 290 381 q 138 320 188 369 q 89 179 89 271 q 124 59 89 101 q 218 17 158 17 q 342 97 306 17 q 378 306 378 178 l 378 390 l 290 381 m 258 999 q 192 973 215 999 q 169 908 169 947 q 193 845 169 872 q 261 818 217 818 q 326 843 301 818 q 350 907 350 868 q 325 973 350 947 q 258 999 300 999 m 258 1028 q 321 1013 293 1028 q 365 972 349 999 q 381 907 381 944 q 347 821 381 853 q 261 789 314 789 q 175 820 211 789 q 139 908 139 851 q 174 997 139 965 q 258 1028 208 1028 m 406 1268 q 351 1196 382 1235 q 288 1122 319 1157 q 229 1060 256 1086 l 210 1060 l 210 1076 q 267 1146 242 1114 q 317 1210 293 1178 q 364 1278 340 1242 l 406 1278 l 406 1268 z "},"Ǽ":{"ha":792,"x_min":0,"x_max":725,"o":"m 725 0 l 315 0 l 315 389 l 149 389 l 40 0 l 0 0 l 281 992 l 725 992 l 725 957 l 351 957 l 351 539 l 707 539 l 707 504 l 351 504 l 351 35 l 725 35 l 725 0 m 156 424 l 315 424 l 315 956 l 306 956 l 156 424 m 536 1310 q 497 1256 519 1285 q 451 1199 475 1228 q 403 1146 426 1171 q 360 1101 381 1121 l 340 1101 l 340 1118 q 398 1188 372 1156 q 447 1251 424 1219 q 494 1319 471 1283 l 536 1319 l 536 1310 z "},"ǽ":{"ha":844,"x_min":53,"x_max":779,"o":"m 589 746 q 700 700 658 746 q 760 581 742 654 q 779 421 779 507 l 779 381 l 414 381 q 467 113 415 204 q 610 21 518 21 q 682 32 642 21 q 757 68 722 43 l 757 29 q 689 -2 729 10 q 610 -14 649 -14 q 505 15 547 -14 q 438 90 463 43 q 403 189 414 136 q 372 81 396 126 q 310 11 349 36 q 217 -14 271 -14 q 125 12 161 -14 q 71 81 89 38 q 53 181 53 125 q 83 304 53 256 q 167 379 113 353 q 297 410 222 406 l 378 415 l 378 528 q 345 665 378 619 q 254 711 313 711 q 195 703 232 711 q 119 671 158 694 l 104 703 q 174 734 133 722 q 253 746 214 746 q 363 701 324 746 q 407 563 401 656 q 467 692 422 638 q 589 746 513 746 m 297 376 q 139 318 188 369 q 90 181 90 267 q 121 66 90 111 q 217 21 151 21 q 308 52 272 21 q 360 135 343 83 q 378 249 378 188 l 378 382 l 297 376 m 588 711 q 467 635 515 711 q 414 415 418 560 l 744 415 q 729 567 746 500 q 678 672 713 633 q 588 711 643 711 m 563 1050 q 524 997 546 1025 q 477 940 501 968 q 430 886 453 911 q 386 842 407 861 l 367 842 l 367 858 q 424 928 399 896 q 474 992 450 960 q 521 1060 497 1024 l 563 1060 l 563 1050 z "},"Ǿ":{"ha":747,"x_min":67,"x_max":690,"o":"m 667 497 q 654 305 667 397 q 610 141 642 213 q 526 28 579 69 q 389 -14 472 -14 q 274 15 322 -14 q 193 93 225 44 l 97 -86 l 67 -69 l 172 129 q 122 299 136 203 q 107 497 107 396 q 140 780 107 667 q 235 949 172 893 q 389 1006 299 1006 q 501 978 454 1006 q 582 901 549 950 l 658 1044 l 690 1029 l 603 865 q 651 703 636 797 q 667 497 667 608 m 631 497 q 582 825 631 704 l 214 133 q 290 49 246 78 q 389 21 333 21 q 524 76 471 21 q 604 237 578 131 q 631 497 631 343 m 143 497 q 156 314 143 396 q 194 172 169 232 l 563 864 q 489 944 532 917 q 389 971 446 971 q 251 915 306 971 q 170 753 197 860 q 143 497 143 647 m 514 1310 q 475 1256 497 1285 q 428 1199 453 1228 q 381 1146 404 1171 q 338 1101 358 1121 l 318 1101 l 318 1118 q 376 1188 350 1156 q 425 1251 401 1219 q 472 1319 449 1283 l 514 1319 l 514 1310 z "},"ǿ":{"ha":608,"x_min":46,"x_max":561,"o":"m 533 367 q 510 153 533 238 q 439 27 486 68 q 321 -14 392 -14 q 234 6 272 -14 q 168 64 196 25 l 74 -111 l 46 -94 l 149 97 q 113 213 125 144 q 101 369 101 281 q 155 651 101 556 q 318 746 208 746 q 401 729 365 746 q 461 681 436 713 l 532 813 l 561 797 l 482 650 q 522 528 510 600 q 533 367 533 457 m 138 369 q 146 239 138 297 q 169 136 154 181 l 443 646 q 390 694 421 678 q 318 711 360 711 q 180 623 222 711 q 138 369 138 535 m 497 368 q 489 506 497 444 q 461 611 481 568 l 188 100 q 243 41 210 61 q 319 21 276 21 q 420 58 381 21 q 478 173 460 96 q 497 368 497 250 m 444 1050 q 406 997 428 1025 q 359 940 383 968 q 312 886 335 911 q 268 842 289 861 l 249 842 l 249 858 q 306 928 281 896 q 356 992 332 960 q 403 1060 379 1024 l 444 1060 l 444 1050 z "},"Ș":{"ha":540,"x_min":58,"x_max":481,"o":"m 481 257 q 453 109 481 169 q 371 17 425 49 q 239 -14 317 -14 q 181 -10 213 -14 q 117 1 149 -7 q 58 21 86 10 l 58 61 q 144 33 94 44 q 239 22 194 22 q 353 51 308 22 q 421 133 399 81 q 443 257 443 186 q 424 363 443 324 q 364 431 404 403 q 263 492 324 460 q 188 535 224 513 q 124 586 151 557 q 81 656 97 615 q 65 757 65 697 q 96 894 65 839 q 180 978 126 950 q 304 1006 233 1006 q 396 994 351 1006 q 468 967 440 982 l 453 936 q 372 964 413 957 q 304 971 332 971 q 194 945 239 971 q 126 872 149 919 q 103 757 103 824 q 127 647 103 689 q 192 576 151 604 q 279 522 232 549 q 388 458 343 489 q 456 382 432 428 q 481 257 481 336 m 321 -99 q 301 -167 313 -131 q 274 -239 289 -203 q 239 -307 258 -275 l 221 -307 l 221 -293 q 243 -230 231 -268 q 266 -152 256 -192 q 279 -85 276 -112 l 321 -85 l 321 -99 z "},"ș":{"ha":433,"x_min":50,"x_max":386,"o":"m 386 171 q 366 74 386 115 q 306 9 346 32 q 204 -14 265 -14 q 113 0 153 -14 q 50 29 74 14 l 50 72 q 121 36 81 50 q 204 22 161 22 q 313 62 278 22 q 349 174 349 101 q 333 252 349 222 q 289 305 318 282 q 218 353 260 328 q 134 410 171 382 q 76 476 97 439 q 54 567 54 513 q 100 693 54 640 q 243 746 146 746 q 319 736 283 746 q 382 708 356 726 l 364 676 q 308 702 342 693 q 242 711 275 711 q 132 674 174 711 q 90 565 90 636 q 106 496 90 525 q 151 442 121 467 q 225 389 181 417 q 307 334 271 361 q 365 269 343 307 q 386 171 386 232 m 267 -99 q 247 -167 258 -131 q 219 -239 235 -203 q 185 -307 204 -275 l 167 -307 l 167 -293 q 189 -230 176 -268 q 212 -152 201 -192 q 225 -85 222 -112 l 267 -85 l 267 -99 z "},"ˆ":{"ha":400,"x_min":56,"x_max":344,"o":"m 221 1060 q 265 983 239 1028 q 313 902 290 939 q 344 851 336 865 l 344 842 l 324 842 q 261 927 294 878 q 200 1018 228 976 q 140 928 174 979 q 78 842 106 876 l 56 842 l 56 851 q 93 911 71 874 q 139 989 115 949 q 179 1060 163 1029 l 221 1060 z "},"ˇ":{"ha":390,"x_min":56,"x_max":335,"o":"m 178 842 q 137 917 160 876 q 92 993 114 957 q 56 1050 71 1029 l 56 1060 l 78 1060 q 138 978 106 1025 q 194 885 169 931 q 250 972 222 931 q 313 1060 278 1013 l 335 1060 l 335 1050 q 293 985 315 1021 q 250 912 271 949 q 211 842 229 875 l 178 842 z "},"ˉ":{"ha":392,"x_min":56,"x_max":336,"o":"m 336 890 l 336 857 l 56 857 l 56 890 l 336 890 z "},"˘":{"ha":388,"x_min":56,"x_max":332,"o":"m 332 992 q 313 916 331 949 q 265 865 296 883 q 193 847 235 847 q 98 883 138 847 q 56 992 58 919 l 88 992 q 102 933 89 958 q 139 894 115 908 q 194 881 163 881 q 251 894 228 881 q 286 934 274 908 q 300 992 299 960 l 332 992 z "},"˙":{"ha":182,"x_min":56,"x_max":126,"o":"m 92 1006 q 119 991 111 1006 q 126 960 126 976 q 117 924 126 938 q 90 911 107 911 q 64 926 72 911 q 56 958 56 940 q 63 990 56 975 q 92 1006 71 1006 z "},"˚":{"ha":353,"x_min":56,"x_max":297,"o":"m 178 857 q 92 888 128 857 q 56 976 56 919 q 90 1065 56 1033 q 175 1096 125 1096 q 263 1063 228 1096 q 297 975 297 1031 q 264 889 297 921 q 178 857 231 857 m 178 888 q 242 912 218 888 q 265 975 265 936 q 241 1040 265 1015 q 175 1065 217 1065 q 110 1040 132 1065 q 88 976 88 1015 q 110 914 88 940 q 178 888 133 888 z "},"˛":{"ha":258,"x_min":56,"x_max":203,"o":"m 93 -189 q 109 -248 93 -228 q 156 -268 125 -268 q 183 -265 168 -268 q 203 -261 197 -262 l 203 -293 q 182 -299 194 -296 q 154 -301 169 -301 q 82 -274 108 -301 q 56 -194 56 -246 q 69 -121 56 -157 q 110 -51 83 -85 q 171 13 136 -18 l 199 0 q 119 -94 144 -50 q 93 -189 93 -139 z "},"˜":{"ha":472,"x_min":56,"x_max":417,"o":"m 56 857 q 67 913 58 890 q 88 951 75 936 q 117 972 101 965 q 151 979 133 979 q 202 965 181 979 q 242 934 224 951 q 278 903 260 917 q 319 889 297 889 q 365 913 347 889 q 386 981 383 938 l 417 981 q 387 887 415 917 q 319 857 358 857 q 269 871 290 857 q 228 902 247 885 q 192 933 210 919 q 151 947 174 947 q 109 926 128 947 q 88 857 90 904 l 56 857 z "},"˝":{"ha":443,"x_min":56,"x_max":388,"o":"m 388 1054 q 361 1012 379 1039 q 320 953 343 985 q 274 892 297 921 q 231 842 250 863 l 208 842 l 208 853 q 259 922 232 882 q 310 1001 286 963 q 347 1064 335 1040 l 388 1064 l 388 1054 m 235 1054 q 208 1012 226 1039 q 167 953 190 985 q 121 892 144 921 q 78 842 97 863 l 56 842 l 56 853 q 108 925 81 885 q 158 1003 135 965 q 194 1064 181 1040 l 235 1064 l 235 1054 z "},"΄":{"ha":219,"x_min":56,"x_max":164,"o":"m 56 842 l 56 858 l 122 1074 l 164 1074 l 164 1064 l 76 842 l 56 842 z "},"΅":{"ha":733,"x_min":233,"x_max":499,"o":"m 328 842 l 328 858 l 388 1074 l 429 1074 l 429 1064 l 349 842 l 328 842 m 268 876 q 242 890 251 876 q 233 921 233 903 q 242 953 233 939 q 268 967 251 967 q 292 953 283 967 q 301 921 301 940 q 292 889 301 901 q 268 876 283 876 m 464 876 q 439 890 449 876 q 429 922 429 904 q 439 953 429 940 q 464 967 449 967 q 489 954 479 967 q 499 922 499 942 q 489 890 499 903 q 464 876 479 876 z "},"Ά":{"ha":538,"x_min":14,"x_max":538,"o":"m 501 0 l 408 390 l 144 390 l 50 0 l 14 0 l 250 992 l 303 992 l 538 0 l 501 0 m 303 850 q 293 892 297 874 q 285 928 289 910 q 276 965 281 946 q 268 928 272 946 q 260 892 264 911 q 250 850 256 874 l 153 425 l 400 425 l 303 850 m 14 760 l 14 776 l 81 992 l 122 992 l 122 982 l 35 760 l 14 760 z "},"·":{"ha":250,"x_min":90,"x_max":161,"o":"m 90 690 q 97 724 90 710 q 125 739 104 739 q 153 726 144 739 q 161 690 161 714 q 153 653 161 667 q 125 640 144 640 q 97 654 104 640 q 90 690 90 668 z "},"Έ":{"ha":651,"x_min":14,"x_max":585,"o":"m 585 0 l 231 0 l 231 992 l 585 992 l 585 957 l 267 957 l 267 539 l 567 539 l 567 504 l 267 504 l 267 35 l 585 35 l 585 0 m 14 760 l 14 776 l 81 992 l 122 992 l 122 982 l 35 760 l 14 760 z "},"Ή":{"ha":797,"x_min":14,"x_max":689,"o":"m 689 0 l 653 0 l 653 504 l 267 504 l 267 0 l 231 0 l 231 992 l 267 992 l 267 539 l 653 539 l 653 992 l 689 992 l 689 0 m 14 760 l 14 776 l 81 992 l 122 992 l 122 982 l 35 760 l 14 760 z "},"Ί":{"ha":454,"x_min":14,"x_max":401,"o":"m 401 0 l 203 0 l 203 26 l 286 31 l 286 960 l 203 965 l 203 992 l 401 992 l 401 965 l 321 960 l 321 31 l 401 26 l 401 0 m 14 760 l 14 776 l 81 992 l 122 992 l 122 982 l 35 760 l 14 760 z "},"Ό":{"ha":763,"x_min":14,"x_max":688,"o":"m 688 497 q 675 305 688 397 q 631 141 663 213 q 547 28 600 69 q 410 -14 493 -14 q 272 29 326 -14 q 185 145 217 72 q 141 310 154 218 q 128 497 128 401 q 160 780 128 667 q 256 949 193 893 q 410 1006 319 1006 q 573 940 513 1006 q 660 759 633 874 q 688 497 688 644 m 164 497 q 192 240 164 347 q 276 77 221 133 q 410 21 331 21 q 545 76 492 21 q 625 237 599 131 q 651 497 651 343 q 592 848 651 725 q 410 971 532 971 q 272 915 326 971 q 190 753 217 860 q 164 497 164 647 m 14 760 l 14 776 l 81 992 l 122 992 l 122 982 l 35 760 l 14 760 z "},"Ύ":{"ha":629,"x_min":14,"x_max":629,"o":"m 411 438 l 592 992 l 629 992 l 429 386 l 429 0 l 393 0 l 393 386 l 192 992 l 229 992 l 411 438 m 14 760 l 14 776 l 81 992 l 122 992 l 122 982 l 35 760 l 14 760 z "},"Ώ":{"ha":686,"x_min":14,"x_max":660,"o":"m 93 0 l 93 35 l 268 35 q 176 149 215 81 q 117 312 138 218 q 97 522 97 406 q 131 792 97 685 q 227 952 164 899 q 379 1006 290 1006 q 529 953 468 1006 q 623 793 590 901 q 656 518 656 685 q 638 304 656 397 q 582 144 619 211 q 486 35 544 78 l 660 35 l 660 0 l 428 0 l 428 22 q 540 137 499 65 q 601 305 582 208 q 619 519 619 401 q 591 771 619 671 q 509 921 563 871 q 381 971 456 971 q 249 919 304 971 q 163 769 193 868 q 132 522 132 669 q 156 302 132 401 q 223 132 181 203 q 321 22 265 61 l 321 0 l 93 0 m 14 760 l 14 776 l 81 992 l 122 992 l 122 982 l 35 760 l 14 760 z "},"ΐ":{"ha":258,"x_min":18,"x_max":283,"o":"m 200 -14 q 148 1 171 -14 q 112 51 125 15 q 99 149 99 86 l 99 732 l 135 732 l 135 160 q 149 56 135 90 q 201 22 164 22 q 223 25 213 22 q 240 32 233 28 l 240 -6 q 225 -11 235 -8 q 200 -14 215 -14 m 113 842 l 113 858 l 172 1074 l 214 1074 l 214 1064 l 133 842 l 113 842 m 53 876 q 27 890 36 876 q 18 921 18 903 q 27 953 18 939 q 53 967 36 967 q 77 953 68 967 q 86 921 86 940 q 77 889 86 901 q 53 876 68 876 m 249 876 q 224 890 233 876 q 214 922 214 904 q 224 953 214 940 q 249 967 233 967 q 274 954 264 967 q 283 922 283 942 q 274 890 283 903 q 249 876 264 876 z "},"Α":{"ha":524,"x_min":0,"x_max":524,"o":"m 488 0 l 394 390 l 131 390 l 36 0 l 0 0 l 236 992 l 289 992 l 524 0 l 488 0 m 289 850 q 279 892 283 874 q 271 928 275 910 q 263 965 267 946 q 254 928 258 946 q 246 892 250 911 q 236 850 242 874 l 139 425 l 386 425 l 289 850 z "},"Β":{"ha":597,"x_min":108,"x_max":543,"o":"m 301 992 q 467 935 413 992 q 522 764 522 878 q 506 649 522 700 q 458 566 489 599 q 381 524 426 533 l 381 522 q 473 475 438 508 q 526 391 508 442 q 543 274 543 340 q 517 128 543 189 q 438 33 490 67 q 311 0 386 0 l 108 0 l 108 992 l 301 992 m 292 539 q 435 594 386 539 q 485 764 485 650 q 441 910 485 863 q 282 957 397 957 l 144 957 l 144 539 l 292 539 m 144 504 l 144 35 l 301 35 q 451 94 396 35 q 506 275 506 153 q 478 411 506 361 q 404 483 451 461 q 296 504 357 504 l 144 504 z "},"Γ":{"ha":475,"x_min":108,"x_max":450,"o":"m 108 0 l 108 992 l 450 992 l 450 957 l 144 957 l 144 0 l 108 0 z "},"Δ":{"ha":565,"x_min":14,"x_max":551,"o":"m 14 0 l 14 28 l 257 992 l 310 992 l 551 28 l 551 0 l 14 0 m 51 35 l 514 35 l 311 850 q 301 892 306 874 q 292 928 296 910 q 283 965 288 946 q 275 928 279 946 q 266 892 271 911 q 256 850 261 874 l 51 35 z "},"Ε":{"ha":529,"x_min":108,"x_max":463,"o":"m 463 0 l 108 0 l 108 992 l 463 992 l 463 957 l 144 957 l 144 539 l 444 539 l 444 504 l 144 504 l 144 35 l 463 35 l 463 0 z "},"Ζ":{"ha":449,"x_min":39,"x_max":421,"o":"m 421 0 l 39 0 l 39 33 l 374 957 l 56 957 l 56 992 l 411 992 l 411 957 l 79 35 l 421 35 l 421 0 z "},"Η":{"ha":675,"x_min":108,"x_max":567,"o":"m 567 0 l 531 0 l 531 504 l 144 504 l 144 0 l 108 0 l 108 992 l 144 992 l 144 539 l 531 539 l 531 992 l 567 992 l 567 0 z "},"Θ":{"ha":710,"x_min":75,"x_max":635,"o":"m 203 483 l 203 518 l 507 518 l 507 483 l 203 483 m 635 497 q 622 305 635 397 q 578 141 610 213 q 494 28 547 69 q 357 -14 440 -14 q 219 29 274 -14 q 133 145 164 72 q 88 310 101 218 q 75 497 75 401 q 108 780 75 667 q 203 949 140 893 q 357 1006 267 1006 q 520 940 460 1006 q 608 759 581 874 q 635 497 635 644 m 111 497 q 140 240 111 347 q 223 77 168 133 q 357 21 278 21 q 492 76 439 21 q 572 237 546 131 q 599 497 599 343 q 539 848 599 725 q 357 971 479 971 q 219 915 274 971 q 138 753 164 860 q 111 497 111 647 z "},"Ι":{"ha":304,"x_min":53,"x_max":251,"o":"m 251 0 l 53 0 l 53 26 l 136 31 l 136 960 l 53 965 l 53 992 l 251 992 l 251 965 l 171 960 l 171 31 l 251 26 l 251 0 z "},"Κ":{"ha":526,"x_min":108,"x_max":528,"o":"m 528 0 l 489 0 l 229 522 l 144 392 l 144 0 l 108 0 l 108 992 l 144 992 l 144 442 q 173 494 153 461 q 222 575 193 528 l 472 992 l 513 992 l 253 557 l 528 0 z "},"Λ":{"ha":524,"x_min":0,"x_max":524,"o":"m 0 0 l 236 992 l 289 992 l 524 0 l 488 0 l 289 850 q 279 892 283 874 q 271 928 275 910 q 263 965 267 946 q 254 928 258 946 q 246 892 250 911 q 236 850 242 874 l 36 0 l 0 0 z "},"Μ":{"ha":906,"x_min":108,"x_max":799,"o":"m 425 0 l 144 928 l 142 928 q 144 861 143 886 q 144 824 144 836 q 144 804 144 811 l 144 0 l 108 0 l 108 992 l 161 992 l 450 44 l 454 44 l 743 992 l 799 992 l 799 0 l 763 0 l 763 799 q 763 819 763 806 q 763 858 763 832 q 763 926 763 885 l 760 926 l 479 0 l 425 0 z "},"Ν":{"ha":700,"x_min":108,"x_max":593,"o":"m 593 0 l 551 0 l 146 922 l 143 922 q 144 881 144 904 q 144 829 144 858 q 144 761 144 800 l 144 0 l 108 0 l 108 992 l 151 992 l 556 75 l 558 75 q 558 140 558 107 q 558 202 558 172 q 557 251 557 232 l 557 992 l 593 992 l 593 0 z "},"Ξ":{"ha":578,"x_min":67,"x_max":511,"o":"m 67 0 l 67 38 l 511 38 l 511 0 l 67 0 m 106 503 l 106 540 l 472 540 l 472 503 l 106 503 m 81 954 l 81 992 l 497 992 l 497 954 l 81 954 z "},"Ο":{"ha":710,"x_min":75,"x_max":635,"o":"m 635 497 q 622 305 635 397 q 578 141 610 213 q 494 28 547 69 q 357 -14 440 -14 q 219 29 274 -14 q 133 145 164 72 q 88 310 101 218 q 75 497 75 401 q 108 780 75 667 q 203 949 140 893 q 357 1006 267 1006 q 520 940 460 1006 q 608 759 581 874 q 635 497 635 644 m 111 497 q 140 240 111 347 q 223 77 168 133 q 357 21 278 21 q 492 76 439 21 q 572 237 546 131 q 599 497 599 343 q 539 848 599 725 q 357 971 479 971 q 219 915 274 971 q 138 753 164 860 q 111 497 111 647 z "},"Π":{"ha":675,"x_min":108,"x_max":567,"o":"m 108 0 l 108 992 l 567 992 l 567 0 l 531 0 l 531 957 l 144 957 l 144 0 l 108 0 z "},"Ρ":{"ha":549,"x_min":108,"x_max":503,"o":"m 239 992 q 438 931 372 992 q 503 721 503 871 q 487 585 503 642 q 439 494 471 529 q 357 442 407 458 q 239 425 307 425 l 144 425 l 144 0 l 108 0 l 108 992 l 239 992 m 238 957 l 144 957 l 144 460 l 247 460 q 370 486 322 460 q 442 571 418 513 q 465 722 465 629 q 409 905 465 853 q 238 957 353 957 z "},"Σ":{"ha":449,"x_min":39,"x_max":421,"o":"m 39 0 l 39 31 l 239 517 l 49 967 l 49 992 l 404 992 l 404 957 l 169 957 q 133 957 153 957 q 92 958 114 957 l 276 531 l 276 517 l 74 32 q 117 34 89 33 q 193 35 146 35 l 421 35 l 421 0 l 39 0 z "},"Τ":{"ha":467,"x_min":10,"x_max":456,"o":"m 250 0 l 214 0 l 214 957 l 10 957 l 10 992 l 456 992 l 456 957 l 250 957 l 250 0 z "},"Υ":{"ha":438,"x_min":0,"x_max":438,"o":"m 219 438 l 400 992 l 438 992 l 238 386 l 238 0 l 201 0 l 201 386 l 0 992 l 38 992 l 219 438 z "},"Φ":{"ha":818,"x_min":61,"x_max":757,"o":"m 390 0 l 390 124 q 258 151 318 124 q 153 228 197 178 q 85 352 110 279 q 61 518 61 425 q 84 677 61 607 q 149 796 107 747 q 253 871 192 844 q 390 899 314 897 l 390 992 l 426 992 l 426 899 q 567 872 506 897 q 671 799 629 847 q 735 679 713 750 q 757 515 757 608 q 735 351 757 424 q 672 229 714 279 q 567 153 629 179 q 426 124 506 126 l 426 0 l 390 0 m 390 160 l 390 864 q 232 822 297 863 q 133 703 167 781 q 99 517 99 626 q 135 324 99 404 q 237 203 171 244 q 390 160 303 161 m 426 160 q 588 204 522 163 q 686 324 653 246 q 719 518 719 403 q 686 709 719 633 q 588 824 653 785 q 426 864 524 863 l 426 160 z "},"Χ":{"ha":460,"x_min":14,"x_max":446,"o":"m 446 0 l 407 0 l 242 479 l 53 0 l 14 0 l 221 518 l 47 992 l 86 992 l 243 557 l 407 992 l 446 992 l 264 518 l 446 0 z "},"Ψ":{"ha":703,"x_min":100,"x_max":603,"o":"m 333 0 l 333 271 q 238 293 281 278 q 164 342 194 308 q 117 435 133 375 q 100 596 100 496 l 100 992 l 136 992 l 136 603 q 153 440 136 506 q 213 342 169 375 q 333 304 256 308 l 333 992 l 369 992 l 369 304 q 483 336 440 308 q 547 426 526 364 q 567 599 567 489 l 567 992 l 603 992 l 603 589 q 576 403 603 468 q 498 309 550 338 q 369 271 446 281 l 369 0 l 333 0 z "},"Ω":{"ha":619,"x_min":26,"x_max":593,"o":"m 26 0 l 26 35 l 201 35 q 110 149 149 81 q 51 312 71 218 q 31 522 31 406 q 64 792 31 685 q 160 952 97 899 q 313 1006 224 1006 q 463 953 401 1006 q 556 793 524 901 q 589 518 589 685 q 571 304 589 397 q 515 144 553 211 q 419 35 478 78 l 593 35 l 593 0 l 361 0 l 361 22 q 474 137 432 65 q 534 305 515 208 q 553 519 553 401 q 524 771 553 671 q 442 921 496 871 q 314 971 389 971 q 182 919 238 971 q 96 769 126 868 q 65 522 65 669 q 90 302 65 401 q 156 132 114 203 q 254 22 199 61 l 254 0 l 26 0 z "},"Ϊ":{"ha":304,"x_min":21,"x_max":286,"o":"m 251 0 l 53 0 l 53 26 l 136 31 l 136 960 l 53 965 l 53 992 l 251 992 l 251 965 l 171 960 l 171 31 l 251 26 l 251 0 m 21 1181 q 30 1213 21 1199 q 56 1226 39 1226 q 80 1213 71 1226 q 89 1181 89 1200 q 80 1149 89 1161 q 56 1136 71 1136 q 30 1149 39 1136 q 21 1181 21 1163 m 217 1182 q 226 1213 217 1200 q 251 1226 236 1226 q 276 1214 267 1226 q 286 1182 286 1201 q 276 1149 286 1163 q 251 1136 267 1136 q 226 1150 236 1136 q 217 1182 217 1164 z "},"Ϋ":{"ha":438,"x_min":0,"x_max":438,"o":"m 219 438 l 400 992 l 438 992 l 238 386 l 238 0 l 201 0 l 201 386 l 0 992 l 38 992 l 219 438 m 88 1181 q 97 1213 88 1199 q 122 1226 106 1226 q 147 1213 138 1226 q 156 1181 156 1200 q 147 1149 156 1161 q 122 1136 138 1136 q 97 1149 106 1136 q 88 1181 88 1163 m 283 1182 q 293 1213 283 1200 q 318 1226 303 1226 q 343 1214 333 1226 q 353 1182 353 1201 q 343 1149 353 1163 q 318 1136 333 1136 q 293 1150 303 1136 q 283 1182 283 1164 z "},"ά":{"ha":619,"x_min":64,"x_max":601,"o":"m 275 -14 q 161 28 208 -14 q 89 153 114 71 q 64 357 64 236 q 124 653 64 560 q 282 746 185 746 q 356 730 321 746 q 417 681 392 714 q 454 593 443 647 l 457 593 l 461 732 l 489 732 l 489 175 q 503 53 489 86 q 553 21 518 21 q 576 23 563 21 q 601 31 590 25 l 601 -4 q 588 -8 596 -6 q 571 -12 581 -11 q 547 -14 561 -14 q 477 23 500 -14 q 453 146 454 60 l 450 146 q 420 73 440 110 q 365 11 400 36 q 275 -14 329 -14 m 276 21 q 359 50 318 21 q 426 142 400 79 q 453 308 453 206 l 453 443 q 408 638 453 567 q 282 710 364 710 q 145 617 190 710 q 100 357 100 525 q 148 105 100 189 q 276 21 196 21 m 278 842 l 278 858 l 344 1074 l 386 1074 l 386 1064 l 299 842 l 278 842 z "},"έ":{"ha":421,"x_min":51,"x_max":393,"o":"m 264 -14 q 101 44 151 -14 q 51 193 51 103 q 68 281 51 243 q 115 344 85 319 q 181 376 144 368 l 181 379 q 95 446 121 399 q 69 553 69 493 q 96 662 69 619 q 165 725 122 704 q 257 746 207 746 q 332 735 296 746 q 393 707 368 725 l 379 675 q 328 701 360 690 q 258 711 296 711 q 140 667 175 711 q 106 553 106 622 q 143 438 106 481 q 249 396 181 396 l 317 396 l 317 363 l 249 363 q 163 343 200 363 q 107 287 126 324 q 88 196 88 250 q 131 65 88 108 q 263 21 175 21 q 341 28 310 21 q 392 44 372 35 l 392 8 q 338 -8 369 -1 q 264 -14 306 -14 m 231 842 l 231 858 l 297 1074 l 339 1074 l 339 1064 l 251 842 l 231 842 z "},"ή":{"ha":553,"x_min":99,"x_max":457,"o":"m 421 -322 l 421 507 q 388 665 421 618 q 300 713 356 713 q 223 683 261 713 q 160 592 185 653 q 135 439 135 532 l 135 0 l 99 0 l 99 732 l 125 732 l 129 576 l 132 576 q 163 654 142 615 q 219 719 183 693 q 304 746 254 746 q 385 722 350 746 q 438 649 419 699 q 457 521 457 600 l 457 -322 l 421 -322 m 201 842 l 201 858 l 268 1074 l 310 1074 l 310 1064 l 222 842 l 201 842 z "},"ί":{"ha":258,"x_min":99,"x_max":240,"o":"m 200 -14 q 148 1 171 -14 q 112 51 125 15 q 99 149 99 86 l 99 732 l 135 732 l 135 160 q 149 56 135 90 q 201 22 164 22 q 223 25 213 22 q 240 32 233 28 l 240 -6 q 225 -11 235 -8 q 200 -14 215 -14 m 107 842 l 107 858 l 174 1074 l 215 1074 l 215 1064 l 128 842 l 107 842 z "},"ΰ":{"ha":543,"x_min":96,"x_max":458,"o":"m 251 -14 q 186 -3 215 -14 q 137 33 157 8 q 106 99 117 57 q 96 203 96 140 l 96 732 l 132 732 l 132 203 q 143 101 132 142 q 181 40 154 60 q 253 21 207 21 q 353 61 317 21 q 406 179 390 101 q 422 367 422 257 q 413 540 422 444 q 381 732 404 636 l 418 732 q 440 612 431 668 q 453 499 449 556 q 458 378 458 442 q 408 79 458 172 q 251 -14 358 -14 m 247 842 l 247 858 l 307 1074 l 349 1074 l 349 1064 l 268 842 l 247 842 m 188 876 q 162 890 171 876 q 153 921 153 903 q 162 953 153 939 q 188 967 171 967 q 212 953 203 967 q 221 921 221 940 q 212 889 221 901 q 188 876 203 876 m 383 876 q 358 890 368 876 q 349 922 349 904 q 358 953 349 940 q 383 967 368 967 q 408 954 399 967 q 418 922 418 942 q 408 890 418 903 q 383 876 399 876 z "},"α":{"ha":619,"x_min":64,"x_max":601,"o":"m 275 -14 q 161 28 208 -14 q 89 153 114 71 q 64 357 64 236 q 124 653 64 560 q 282 746 185 746 q 356 730 321 746 q 417 681 392 714 q 454 593 443 647 l 457 593 l 461 732 l 489 732 l 489 175 q 503 53 489 86 q 553 21 518 21 q 576 23 563 21 q 601 31 590 25 l 601 -4 q 588 -8 596 -6 q 571 -12 581 -11 q 547 -14 561 -14 q 477 23 500 -14 q 453 146 454 60 l 450 146 q 420 73 440 110 q 365 11 400 36 q 275 -14 329 -14 m 276 21 q 359 50 318 21 q 426 142 400 79 q 453 308 453 206 l 453 443 q 408 638 453 567 q 282 710 364 710 q 145 617 190 710 q 100 357 100 525 q 148 105 100 189 q 276 21 196 21 z "},"β":{"ha":586,"x_min":99,"x_max":524,"o":"m 99 -322 l 99 800 q 122 941 99 882 q 189 1031 144 1000 q 297 1063 233 1063 q 403 1033 360 1063 q 469 946 447 1003 q 492 810 492 889 q 474 678 492 732 q 425 596 456 625 q 357 560 394 567 l 357 556 q 446 515 408 549 q 503 423 483 481 q 524 282 524 365 q 499 128 524 196 q 424 24 474 61 q 299 -14 374 -14 q 232 -6 263 -14 q 177 17 201 3 q 135 47 153 31 l 135 -322 l 99 -322 m 299 21 q 440 94 392 21 q 488 286 488 168 q 467 422 488 365 q 402 510 447 479 q 283 540 357 540 l 218 540 l 218 574 l 286 574 q 378 599 340 574 q 435 677 415 625 q 456 808 456 729 q 413 973 456 918 q 297 1028 371 1028 q 208 1001 244 1028 q 153 922 172 974 q 135 794 135 869 l 135 85 q 207 40 163 58 q 299 21 251 21 z "},"γ":{"ha":454,"x_min":7,"x_max":406,"o":"m 160 -281 l 160 7 l 7 732 l 44 732 l 153 213 q 161 174 156 201 q 173 116 167 147 q 182 58 179 85 l 186 58 q 276 248 235 146 q 343 470 318 350 q 368 732 368 590 l 406 732 q 378 459 406 586 q 304 221 351 332 q 196 13 257 110 l 196 -281 l 160 -281 z "},"δ":{"ha":553,"x_min":50,"x_max":489,"o":"m 271 -14 q 147 28 196 -14 q 74 140 97 71 q 50 289 50 210 q 74 442 50 371 q 147 566 97 513 q 272 644 196 619 q 203 718 233 681 q 154 797 172 756 q 136 886 136 839 q 158 981 136 942 q 221 1041 181 1019 q 314 1063 261 1063 q 370 1056 343 1063 q 421 1039 397 1050 q 460 1010 444 1028 l 442 978 q 380 1017 414 1006 q 314 1028 346 1028 q 231 1009 261 1028 q 188 958 200 990 q 175 886 175 926 q 192 806 175 844 q 240 730 208 767 q 314 654 271 693 q 411 552 372 604 q 469 435 450 500 q 489 283 489 371 q 465 137 489 204 q 394 28 442 69 q 271 -14 346 -14 m 271 21 q 371 56 331 21 q 432 149 411 90 q 453 282 453 208 q 441 405 453 347 q 396 516 429 463 q 299 622 363 569 q 188 564 231 601 q 124 480 146 526 q 94 384 101 433 q 86 289 86 335 q 107 154 86 215 q 169 57 128 93 q 271 21 210 21 z "},"ε":{"ha":421,"x_min":51,"x_max":393,"o":"m 264 -14 q 101 44 151 -14 q 51 193 51 103 q 68 281 51 243 q 115 344 85 319 q 181 376 144 368 l 181 379 q 95 446 121 399 q 69 553 69 493 q 96 662 69 619 q 165 725 122 704 q 257 746 207 746 q 332 735 296 746 q 393 707 368 725 l 379 675 q 328 701 360 690 q 258 711 296 711 q 140 667 175 711 q 106 553 106 622 q 143 438 106 481 q 249 396 181 396 l 317 396 l 317 363 l 249 363 q 163 343 200 363 q 107 287 126 324 q 88 196 88 250 q 131 65 88 108 q 263 21 175 21 q 341 28 310 21 q 392 44 372 35 l 392 8 q 338 -8 369 -1 q 264 -14 306 -14 z "},"ζ":{"ha":393,"x_min":65,"x_max":407,"o":"m 325 -281 q 358 -210 344 -249 q 372 -125 372 -172 q 364 -70 372 -93 q 331 -29 356 -47 q 260 6 307 -11 q 152 60 196 29 q 87 141 108 92 q 65 267 65 190 q 83 399 65 329 q 144 562 101 468 q 256 793 186 656 l 374 1025 q 346 1024 361 1025 q 317 1023 331 1024 q 293 1022 304 1022 l 100 1022 l 100 1056 l 407 1056 l 407 1028 l 281 778 q 182 571 222 661 q 122 407 142 481 q 101 267 101 333 q 117 167 101 210 q 170 92 132 124 q 276 35 208 60 q 353 -3 325 18 q 394 -54 382 -25 q 407 -125 407 -83 q 402 -177 407 -151 q 388 -228 397 -203 q 361 -281 378 -254 l 325 -281 z "},"η":{"ha":553,"x_min":99,"x_max":457,"o":"m 421 -322 l 421 507 q 388 665 421 618 q 300 713 356 713 q 223 683 261 713 q 160 592 185 653 q 135 439 135 532 l 135 0 l 99 0 l 99 732 l 125 732 l 129 576 l 132 576 q 163 654 142 615 q 219 719 183 693 q 304 746 254 746 q 385 722 350 746 q 438 649 419 699 q 457 521 457 600 l 457 -322 l 421 -322 z "},"θ":{"ha":560,"x_min":64,"x_max":496,"o":"m 281 -14 q 161 41 210 -14 q 88 220 113 96 q 64 550 64 344 q 90 853 64 740 q 164 1014 115 965 q 283 1063 213 1063 q 402 1013 356 1063 q 472 850 449 963 q 496 550 496 738 q 472 220 496 344 q 401 41 449 96 q 281 -14 354 -14 m 282 21 q 381 70 342 21 q 439 231 419 119 q 460 531 458 343 l 100 531 q 122 239 103 351 q 180 74 140 126 q 282 21 219 21 m 100 565 l 460 565 q 442 825 460 722 q 385 978 424 928 q 283 1028 347 1028 q 183 982 224 1028 q 122 835 142 936 q 100 565 101 733 z "},"ι":{"ha":258,"x_min":99,"x_max":240,"o":"m 200 -14 q 148 1 171 -14 q 112 51 125 15 q 99 149 99 86 l 99 732 l 135 732 l 135 160 q 149 56 135 90 q 201 22 164 22 q 223 25 213 22 q 240 32 233 28 l 240 -6 q 225 -11 235 -8 q 200 -14 215 -14 z "},"κ":{"ha":450,"x_min":99,"x_max":440,"o":"m 425 732 l 254 454 l 440 0 l 404 0 l 231 422 l 135 275 l 135 0 l 99 0 l 99 732 l 135 732 l 135 492 q 134 411 135 454 q 132 325 133 368 l 133 325 q 155 364 144 346 q 179 403 165 382 l 385 732 l 425 732 z "},"λ":{"ha":481,"x_min":7,"x_max":474,"o":"m 440 -14 q 387 0 408 -14 q 351 45 365 14 q 325 131 336 76 l 242 536 q 228 599 233 578 q 222 630 224 621 q 220 644 221 639 q 217 661 219 650 l 211 661 q 204 626 208 643 q 194 589 200 608 l 44 0 l 7 0 l 197 740 l 163 925 q 129 1006 151 986 q 75 1026 107 1026 q 49 1023 63 1026 q 24 1013 35 1019 l 24 1051 q 35 1056 28 1054 q 53 1060 43 1058 q 76 1063 64 1063 q 127 1052 104 1063 q 168 1015 150 1042 q 196 939 186 989 l 363 131 q 383 64 372 88 q 408 31 393 40 q 442 21 422 21 q 461 23 453 21 q 474 26 469 25 l 474 -8 q 465 -11 469 -10 q 456 -13 461 -12 q 440 -14 450 -14 z "},"μ":{"ha":601,"x_min":99,"x_max":583,"o":"m 99 -322 l 99 732 l 135 732 l 135 232 q 164 74 135 128 q 264 21 193 21 q 388 93 342 21 q 435 317 435 165 l 435 732 l 471 732 l 471 175 q 485 53 471 86 q 535 21 500 21 q 558 23 544 21 q 583 31 572 25 l 583 -4 q 570 -8 578 -6 q 553 -12 563 -11 q 529 -14 543 -14 q 463 28 482 -14 q 442 156 443 69 l 439 156 q 411 83 432 124 q 353 15 390 43 q 261 -14 317 -14 q 183 4 215 -14 q 131 63 150 22 l 128 63 q 132 10 131 35 q 133 -35 133 -14 q 133 -75 133 -56 l 133 -322 l 99 -322 z "},"ν":{"ha":454,"x_min":7,"x_max":406,"o":"m 161 0 l 7 732 l 44 732 l 153 213 q 161 174 156 201 q 173 116 167 147 q 182 58 179 85 l 186 58 q 276 248 235 146 q 343 470 318 350 q 368 732 368 590 l 406 732 q 377 453 406 583 q 299 211 349 324 q 188 0 250 99 l 161 0 z "},"ξ":{"ha":449,"x_min":65,"x_max":421,"o":"m 339 -281 q 372 -210 358 -249 q 386 -125 386 -172 q 377 -70 386 -93 q 341 -29 368 -47 q 260 6 314 -11 q 153 60 196 29 q 88 144 110 92 q 65 278 65 196 q 88 418 65 357 q 153 515 111 479 q 254 554 196 551 l 254 557 q 174 583 211 561 q 113 652 136 604 q 89 782 89 700 q 113 908 89 857 q 176 987 138 958 q 257 1025 215 1015 q 210 1023 226 1024 q 183 1022 193 1022 q 157 1022 172 1022 l 100 1022 l 100 1056 l 421 1056 l 421 1022 l 383 1022 q 276 1008 324 1022 q 194 964 228 993 q 144 890 161 935 q 126 782 126 844 q 151 658 126 704 q 221 593 175 613 q 328 574 267 574 l 392 574 l 392 540 l 328 540 q 203 514 254 540 q 128 432 153 488 q 101 289 103 376 q 117 172 101 219 q 171 92 132 124 q 276 35 210 60 q 363 -3 332 18 q 408 -54 394 -25 q 421 -125 421 -83 q 416 -177 421 -151 q 401 -228 411 -203 q 375 -281 392 -254 l 339 -281 z "},"ο":{"ha":560,"x_min":64,"x_max":496,"o":"m 496 367 q 483 198 496 269 q 443 79 469 126 q 376 9 417 32 q 283 -14 336 -14 q 188 10 229 -14 q 119 81 147 33 q 78 201 92 129 q 64 369 64 272 q 88 577 64 493 q 159 703 111 661 q 281 746 207 746 q 407 700 360 746 q 475 569 454 654 q 496 367 496 485 m 100 369 q 119 178 100 256 q 179 60 139 100 q 282 21 219 21 q 383 58 343 21 q 441 173 422 96 q 460 368 460 250 q 442 551 460 475 q 386 669 425 628 q 281 711 347 711 q 142 623 185 711 q 100 369 100 535 z "},"π":{"ha":582,"x_min":29,"x_max":564,"o":"m 517 -8 q 435 25 461 -8 q 410 126 410 58 l 410 699 l 168 699 l 168 0 l 132 0 l 132 699 l 29 699 l 29 732 l 553 732 l 553 699 l 446 699 l 446 135 q 463 51 446 75 q 524 26 479 26 q 544 28 535 26 q 564 31 554 29 l 564 -3 q 547 -6 560 -4 q 517 -8 535 -8 z "},"ρ":{"ha":567,"x_min":78,"x_max":504,"o":"m 78 -322 l 78 394 q 100 587 78 508 q 169 706 122 665 q 288 746 215 746 q 408 706 360 746 q 480 583 456 665 q 504 374 504 500 q 480 165 504 251 q 406 32 456 78 q 278 -14 356 -14 q 187 5 229 -14 q 114 54 144 24 l 111 54 q 114 -39 114 1 q 114 -114 114 -79 l 114 -322 l 78 -322 m 278 21 q 385 60 343 21 q 448 178 428 100 q 468 374 468 257 q 425 624 468 538 q 288 711 382 711 q 154 624 194 711 q 114 383 114 536 l 114 93 q 184 43 138 65 q 278 21 231 21 z "},"σ":{"ha":579,"x_min":64,"x_max":547,"o":"m 276 -14 q 158 28 206 -14 q 88 153 111 71 q 64 356 64 236 q 92 557 64 472 q 186 687 121 642 q 360 732 251 732 l 547 732 l 547 699 l 394 699 q 458 606 436 661 q 487 485 479 550 q 494 351 494 419 q 479 188 494 257 q 435 74 464 119 q 367 8 407 29 q 276 -14 326 -14 m 276 21 q 376 58 336 21 q 438 168 417 94 q 460 351 460 242 q 453 483 460 418 q 426 603 447 547 q 361 699 406 658 l 353 699 q 203 657 258 699 q 124 539 147 615 q 100 356 100 463 q 117 171 100 246 q 174 58 135 96 q 276 21 213 21 z "},"τ":{"ha":382,"x_min":29,"x_max":350,"o":"m 269 -14 q 196 10 221 -14 q 162 80 171 33 q 153 194 153 126 l 153 699 l 29 699 l 29 732 l 350 732 l 350 699 l 188 699 l 188 201 q 195 96 188 136 q 222 38 203 56 q 274 19 240 19 q 311 24 290 19 q 347 35 332 28 l 347 1 q 316 -9 338 -4 q 269 -14 294 -14 z "},"υ":{"ha":543,"x_min":96,"x_max":458,"o":"m 251 -14 q 186 -3 215 -14 q 137 33 157 8 q 106 99 117 57 q 96 203 96 140 l 96 732 l 132 732 l 132 203 q 143 101 132 142 q 181 40 154 60 q 253 21 207 21 q 353 61 317 21 q 406 179 390 101 q 422 367 422 257 q 413 540 422 444 q 381 732 404 636 l 418 732 q 440 612 431 668 q 453 499 449 556 q 458 378 458 442 q 408 79 458 172 q 251 -14 358 -14 z "},"φ":{"ha":611,"x_min":64,"x_max":547,"o":"m 286 -322 l 286 -17 q 165 38 214 -10 q 90 169 115 85 q 64 372 64 254 q 85 556 64 472 q 156 690 107 639 q 286 746 204 742 l 286 1056 l 322 1056 l 322 746 q 452 688 403 742 q 524 551 501 635 q 547 368 547 467 q 526 187 547 272 q 456 46 506 101 q 322 -17 407 -10 l 322 -322 l 286 -322 m 286 19 l 286 713 q 185 666 226 708 q 122 549 143 624 q 101 371 101 474 q 120 201 101 279 q 179 75 139 124 q 286 19 219 26 m 322 19 q 434 78 393 26 q 492 208 475 131 q 510 368 510 286 q 460 613 510 521 q 322 713 411 706 l 322 19 z "},"χ":{"ha":519,"x_min":24,"x_max":510,"o":"m 479 -333 q 447 -327 461 -333 q 422 -305 432 -321 q 403 -261 411 -289 l 129 624 q 103 689 115 669 q 61 708 90 708 q 40 706 49 708 q 24 700 31 703 l 24 735 q 42 740 29 738 q 68 743 54 743 q 112 733 96 743 q 139 701 128 722 q 160 646 150 679 l 435 -244 q 447 -275 440 -262 q 463 -294 454 -287 q 486 -300 472 -300 q 499 -298 493 -300 q 510 -294 506 -296 l 510 -326 q 501 -330 506 -328 q 492 -333 497 -332 q 479 -333 486 -333 m 63 -322 l 267 218 l 279 163 l 100 -322 l 63 -322 m 292 186 l 279 242 l 458 732 l 496 732 l 292 186 z "},"ψ":{"ha":628,"x_min":96,"x_max":543,"o":"m 296 -322 l 296 -8 q 174 30 218 -6 q 113 137 131 65 q 96 318 96 208 l 96 732 l 132 732 l 132 315 q 144 161 132 225 q 191 63 156 97 q 296 25 226 29 l 296 1056 l 332 1056 l 332 25 q 439 73 401 28 q 492 202 476 118 q 507 404 507 286 q 494 582 507 507 q 458 732 482 657 l 496 732 q 531 578 519 651 q 543 401 543 504 q 524 180 543 271 q 460 42 506 89 q 332 -8 414 -6 l 332 -322 l 296 -322 z "},"ω":{"ha":650,"x_min":78,"x_max":572,"o":"m 215 -14 q 141 17 172 -14 q 94 119 110 47 q 78 314 78 192 q 99 554 78 440 q 165 732 119 668 l 203 732 q 151 619 171 686 q 123 473 132 551 q 114 314 114 394 q 138 88 114 154 q 214 21 161 21 q 266 50 246 21 q 297 135 286 79 q 307 268 307 190 l 307 483 l 343 483 l 343 268 q 353 131 343 186 q 385 48 364 75 q 438 21 407 21 q 495 51 474 21 q 526 147 517 82 q 536 314 536 211 q 527 473 536 394 q 499 619 518 551 q 447 732 479 686 l 485 732 q 535 622 517 688 q 563 478 554 557 q 572 314 572 400 q 559 133 572 206 q 516 23 546 60 q 436 -14 486 -14 q 363 26 392 -14 q 325 122 333 65 l 324 122 q 305 53 319 85 q 267 4 290 22 q 215 -14 244 -14 z "},"ϊ":{"ha":258,"x_min":-12,"x_max":253,"o":"m 200 -14 q 148 1 171 -14 q 112 51 125 15 q 99 149 99 86 l 99 732 l 135 732 l 135 160 q 149 56 135 90 q 201 22 164 22 q 223 25 213 22 q 240 32 233 28 l 240 -6 q 225 -11 235 -8 q 200 -14 215 -14 m -12 921 q -3 953 -12 939 q 22 967 6 967 q 47 953 38 967 q 56 921 56 940 q 47 889 56 901 q 22 876 38 876 q -3 890 6 876 q -12 921 -12 903 m 183 922 q 193 953 183 940 q 218 967 203 967 q 243 954 233 967 q 253 922 253 942 q 243 890 253 903 q 218 876 233 876 q 193 890 203 876 q 183 922 183 904 z "},"ϋ":{"ha":543,"x_min":96,"x_max":458,"o":"m 251 -14 q 186 -3 215 -14 q 137 33 157 8 q 106 99 117 57 q 96 203 96 140 l 96 732 l 132 732 l 132 203 q 143 101 132 142 q 181 40 154 60 q 253 21 207 21 q 353 61 317 21 q 406 179 390 101 q 422 367 422 257 q 413 540 422 444 q 381 732 404 636 l 418 732 q 440 612 431 668 q 453 499 449 556 q 458 378 458 442 q 408 79 458 172 q 251 -14 358 -14 m 122 921 q 131 953 122 939 q 157 967 140 967 q 181 953 172 967 q 190 921 190 940 q 181 889 190 901 q 157 876 172 876 q 131 890 140 876 q 122 921 122 903 m 318 922 q 328 953 318 940 q 353 967 338 967 q 378 954 368 967 q 388 922 388 942 q 378 890 388 903 q 353 876 368 876 q 328 890 338 876 q 318 922 318 904 z "},"ό":{"ha":560,"x_min":64,"x_max":496,"o":"m 496 367 q 483 198 496 269 q 443 79 469 126 q 376 9 417 32 q 283 -14 336 -14 q 188 10 229 -14 q 119 81 147 33 q 78 201 92 129 q 64 369 64 272 q 88 577 64 493 q 159 703 111 661 q 281 746 207 746 q 407 700 360 746 q 475 569 454 654 q 496 367 496 485 m 100 369 q 119 178 100 256 q 179 60 139 100 q 282 21 219 21 q 383 58 343 21 q 441 173 422 96 q 460 368 460 250 q 442 551 460 475 q 386 669 425 628 q 281 711 347 711 q 142 623 185 711 q 100 369 100 535 m 268 842 l 268 858 l 335 1074 l 376 1074 l 376 1064 l 289 842 l 268 842 z "},"ύ":{"ha":543,"x_min":96,"x_max":458,"o":"m 251 -14 q 186 -3 215 -14 q 137 33 157 8 q 106 99 117 57 q 96 203 96 140 l 96 732 l 132 732 l 132 203 q 143 101 132 142 q 181 40 154 60 q 253 21 207 21 q 353 61 317 21 q 406 179 390 101 q 422 367 422 257 q 413 540 422 444 q 381 732 404 636 l 418 732 q 440 612 431 668 q 453 499 449 556 q 458 378 458 442 q 408 79 458 172 q 251 -14 358 -14 m 242 842 l 242 858 l 308 1074 l 350 1074 l 350 1064 l 263 842 l 242 842 z "},"ώ":{"ha":650,"x_min":78,"x_max":572,"o":"m 215 -14 q 141 17 172 -14 q 94 119 110 47 q 78 314 78 192 q 99 554 78 440 q 165 732 119 668 l 203 732 q 151 619 171 686 q 123 473 132 551 q 114 314 114 394 q 138 88 114 154 q 214 21 161 21 q 266 50 246 21 q 297 135 286 79 q 307 268 307 190 l 307 483 l 343 483 l 343 268 q 353 131 343 186 q 385 48 364 75 q 438 21 407 21 q 495 51 474 21 q 526 147 517 82 q 536 314 536 211 q 527 473 536 394 q 499 619 518 551 q 447 732 479 686 l 485 732 q 535 622 517 688 q 563 478 554 557 q 572 314 572 400 q 559 133 572 206 q 516 23 546 60 q 436 -14 486 -14 q 363 26 392 -14 q 325 122 333 65 l 324 122 q 305 53 319 85 q 267 4 290 22 q 215 -14 244 -14 m 313 842 l 313 858 l 379 1074 l 421 1074 l 421 1064 l 333 842 l 313 842 z "},"Ё":{"ha":529,"x_min":108,"x_max":463,"o":"m 108 0 l 108 992 l 463 992 l 463 957 l 144 957 l 144 539 l 444 539 l 444 504 l 144 504 l 144 35 l 463 35 l 463 0 l 108 0 m 204 1131 q 180 1142 188 1131 q 172 1178 172 1154 q 180 1212 172 1200 q 204 1224 188 1224 q 227 1212 219 1224 q 235 1178 235 1200 q 227 1142 235 1154 q 204 1131 219 1131 m 385 1131 q 362 1142 369 1131 q 354 1176 354 1154 q 362 1212 354 1200 q 386 1224 369 1224 q 409 1212 401 1224 q 417 1176 417 1200 q 409 1142 417 1154 q 385 1131 401 1131 z "},"Ђ":{"ha":636,"x_min":10,"x_max":578,"o":"m 367 -14 q 323 -10 344 -14 q 286 0 301 -6 l 286 36 q 324 26 304 31 q 367 21 344 21 q 494 88 449 21 q 540 281 540 154 l 540 281 q 490 476 540 413 q 342 540 440 540 q 269 533 306 540 q 192 504 233 525 l 206 518 l 204 0 l 168 0 l 169 957 l 10 957 l 10 992 l 456 992 l 456 957 l 206 957 l 206 528 l 193 540 q 269 567 232 560 q 344 575 307 575 q 519 501 460 575 q 578 283 578 426 l 578 283 q 553 124 578 190 q 481 22 528 57 q 367 -14 433 -14 z "},"Ѓ":{"ha":475,"x_min":108,"x_max":447,"o":"m 108 0 l 108 992 l 447 992 l 447 957 l 144 957 l 144 0 l 108 0 m 244 1088 l 244 1104 l 399 1306 l 440 1306 l 440 1296 l 264 1088 l 244 1088 z "},"Є":{"ha":579,"x_min":75,"x_max":546,"o":"m 393 -14 q 221 45 292 -14 q 113 215 150 104 q 75 482 75 326 q 114 762 75 644 q 225 942 153 879 q 397 1006 297 1006 q 474 997 436 1006 q 546 968 511 988 l 532 933 q 466 962 499 953 q 399 971 433 971 q 251 917 314 971 q 153 763 189 863 q 114 524 118 663 l 97 539 l 439 539 l 439 504 l 96 504 l 113 521 q 142 245 108 357 q 240 77 175 133 q 393 21 304 21 q 469 31 431 21 q 539 58 508 40 l 539 21 q 472 -5 511 4 q 393 -14 433 -14 z "},"Ѕ":{"ha":540,"x_min":58,"x_max":481,"o":"m 239 -14 q 181 -10 213 -14 q 117 1 149 -7 q 58 21 86 10 l 58 61 q 144 33 94 44 q 239 22 194 22 q 353 51 308 22 q 421 133 399 81 q 443 257 443 186 q 424 363 443 324 q 364 431 404 403 q 263 492 324 460 q 188 535 224 513 q 124 586 151 557 q 81 656 97 615 q 65 757 65 697 q 96 894 65 839 q 180 978 126 950 q 304 1006 233 1006 q 396 994 351 1006 q 468 967 440 982 l 453 936 q 372 964 413 957 q 304 971 332 971 q 194 945 239 971 q 126 872 149 919 q 103 757 103 824 q 127 647 103 689 q 192 576 151 604 q 279 522 232 549 q 388 458 343 489 q 456 382 432 428 q 481 257 481 336 q 453 109 481 169 q 371 17 425 49 q 239 -14 317 -14 z "},"І":{"ha":251,"x_min":108,"x_max":143,"o":"m 108 0 l 108 992 l 143 992 l 143 0 l 108 0 z "},"Ї":{"ha":300,"x_min":42,"x_max":258,"o":"m 132 0 l 132 992 l 167 992 l 167 0 l 132 0 m 74 1131 q 49 1142 57 1131 q 42 1178 42 1154 q 49 1212 42 1200 q 74 1224 57 1224 q 97 1212 89 1224 q 104 1178 104 1200 q 97 1142 104 1154 q 74 1131 89 1131 m 226 1131 q 203 1142 211 1131 q 196 1176 196 1154 q 203 1212 196 1200 q 228 1224 211 1224 q 251 1212 243 1224 q 258 1176 258 1200 q 251 1142 258 1154 q 226 1131 243 1131 z "},"Ј":{"ha":258,"x_min":-62,"x_max":153,"o":"m 18 -243 q -24 -239 -4 -243 q -62 -226 -44 -235 l -62 -192 q -23 -202 -43 -197 q 18 -207 -3 -207 q 80 -186 58 -207 q 109 -126 101 -165 q 117 -32 117 -86 l 117 992 l 153 992 l 153 -42 q 140 -155 153 -110 q 97 -222 126 -200 q 18 -243 68 -243 z "},"Љ":{"ha":983,"x_min":4,"x_max":928,"o":"m 56 -14 q 27 -11 40 -14 q 4 -4 14 -8 l 4 31 q 26 24 14 26 q 53 21 39 21 q 107 42 85 21 q 143 114 129 63 q 163 256 157 165 q 172 416 168 340 q 181 573 176 492 q 189 756 185 654 q 199 992 193 857 l 569 992 l 569 567 l 682 567 q 865 497 803 567 q 928 286 928 428 q 865 76 928 151 q 681 0 801 0 l 533 0 l 533 957 l 231 957 q 222 742 225 836 q 215 569 218 649 q 207 412 211 489 q 196 246 203 335 q 172 92 189 149 q 127 11 156 36 q 56 -14 99 -14 m 569 35 l 676 35 q 838 99 785 35 q 890 285 890 163 q 838 473 890 414 q 679 532 786 532 l 569 532 l 569 35 z "},"Њ":{"ha":940,"x_min":108,"x_max":885,"o":"m 108 0 l 108 992 l 144 992 l 143 557 l 501 557 l 501 992 l 538 992 l 538 557 l 639 557 q 822 488 760 557 q 885 281 885 419 q 822 75 885 150 q 638 0 758 0 l 501 0 l 501 522 l 143 522 l 144 0 l 108 0 m 538 36 l 633 36 q 794 99 742 36 q 847 279 847 163 q 795 464 847 406 q 636 522 743 522 l 538 522 l 538 36 z "},"Ћ":{"ha":661,"x_min":10,"x_max":578,"o":"m 169 0 l 169 957 l 10 957 l 10 992 l 456 992 l 456 957 l 206 957 l 206 525 l 193 540 q 279 567 238 558 q 361 575 321 575 q 523 519 468 575 q 578 354 578 464 l 578 0 l 542 0 l 542 351 q 497 493 542 446 q 357 540 451 540 q 274 531 315 540 q 192 504 232 522 l 206 515 l 206 0 l 169 0 z "},"Ќ":{"ha":535,"x_min":108,"x_max":535,"o":"m 496 0 l 260 503 l 260 536 l 478 992 l 517 992 l 281 501 l 278 546 l 535 0 l 496 0 m 108 0 l 108 992 l 144 992 l 144 0 l 108 0 m 135 501 l 135 536 l 269 536 l 269 501 l 135 501 m 278 1088 l 278 1104 l 432 1306 l 474 1306 l 474 1296 l 297 1088 l 278 1088 z "},"Ў":{"ha":461,"x_min":1,"x_max":461,"o":"m 83 -14 q 53 -11 65 -14 q 32 -6 40 -8 l 32 29 q 56 23 43 25 q 81 21 68 21 q 142 48 119 21 q 185 134 165 75 q 233 286 206 193 l 231 231 l 1 992 l 38 992 l 210 418 q 220 383 215 400 q 230 350 225 367 q 239 314 235 333 l 244 314 q 253 350 249 333 q 261 383 257 367 q 269 415 265 400 l 424 992 l 461 992 l 267 279 q 213 106 238 169 q 158 14 188 42 q 83 -14 129 -14 m 239 1079 q 144 1115 183 1079 q 101 1224 104 1150 l 135 1224 q 165 1138 138 1168 q 240 1108 193 1108 q 315 1138 288 1108 q 344 1224 343 1168 l 378 1224 q 338 1117 376 1154 q 239 1079 300 1079 z "},"Џ":{"ha":665,"x_min":108,"x_max":557,"o":"m 315 -201 l 315 0 l 108 0 l 108 992 l 144 992 l 144 35 l 521 35 l 521 992 l 557 992 l 557 0 l 351 0 l 351 -201 l 315 -201 z "},"А":{"ha":524,"x_min":0,"x_max":524,"o":"m 488 0 l 394 390 l 131 390 l 36 0 l 0 0 l 236 992 l 289 992 l 524 0 l 488 0 m 289 850 q 279 892 283 874 q 271 928 275 910 q 263 965 267 946 q 254 928 258 946 q 246 892 250 911 q 236 850 242 874 l 139 425 l 386 425 l 289 850 z "},"Б":{"ha":572,"x_min":108,"x_max":517,"o":"m 108 0 l 108 992 l 476 992 l 476 957 l 144 957 l 144 561 l 269 561 q 455 492 393 561 q 517 285 517 424 q 453 75 517 150 q 269 0 390 0 l 108 0 m 144 35 l 265 35 q 425 97 371 35 q 479 282 479 160 q 428 467 479 408 q 265 526 376 526 l 144 526 l 144 35 z "},"В":{"ha":599,"x_min":108,"x_max":543,"o":"m 108 0 l 108 992 l 301 992 q 467 935 413 992 q 522 764 522 878 q 506 649 522 700 q 458 566 489 599 q 381 524 426 533 l 381 522 q 473 475 438 508 q 526 391 508 442 q 543 274 543 340 q 517 128 543 189 q 438 33 490 67 q 311 0 386 0 l 108 0 m 144 35 l 301 35 q 451 94 396 35 q 506 275 506 153 q 478 411 506 361 q 404 483 451 461 q 296 504 357 504 l 144 504 l 144 35 m 144 539 l 292 539 q 435 594 386 539 q 485 764 485 650 q 441 910 485 863 q 282 957 397 957 l 144 957 l 144 539 z "},"Г":{"ha":475,"x_min":108,"x_max":447,"o":"m 108 0 l 108 992 l 447 992 l 447 957 l 144 957 l 144 0 l 108 0 z "},"Д":{"ha":724,"x_min":14,"x_max":710,"o":"m 14 -201 l 14 35 l 86 35 q 145 159 124 100 q 178 288 167 218 q 199 453 190 357 q 206 554 203 500 q 214 674 210 608 q 222 819 218 740 q 229 992 225 897 l 608 992 l 608 35 l 710 35 l 710 -201 l 674 -201 l 674 0 l 50 0 l 50 -201 l 14 -201 m 128 35 l 572 35 l 572 957 l 263 957 q 252 740 257 831 q 243 579 247 649 q 233 446 239 510 q 213 276 226 349 q 178 147 199 204 q 128 35 157 89 z "},"Е":{"ha":529,"x_min":108,"x_max":463,"o":"m 108 0 l 108 992 l 463 992 l 463 957 l 144 957 l 144 539 l 444 539 l 444 504 l 144 504 l 144 35 l 463 35 l 463 0 l 108 0 z "},"Ж":{"ha":761,"x_min":0,"x_max":761,"o":"m 722 0 l 500 503 l 500 536 l 703 992 l 740 992 l 522 501 l 518 547 l 761 0 l 722 0 m 0 0 l 243 547 l 239 501 l 21 992 l 58 992 l 261 536 l 261 503 l 39 0 l 0 0 m 364 0 l 364 992 l 399 992 l 399 0 l 364 0 m 251 501 l 251 536 l 510 536 l 510 501 l 251 501 z "},"З":{"ha":500,"x_min":44,"x_max":444,"o":"m 197 -14 q 117 -6 158 -14 q 44 17 76 3 l 44 54 q 119 30 81 39 q 196 21 158 21 q 353 84 299 21 q 408 263 408 147 q 350 442 408 381 q 182 504 292 504 l 108 504 l 108 539 l 182 539 q 333 599 281 539 q 386 769 386 660 q 339 919 386 867 q 206 971 292 971 q 134 961 171 971 q 63 935 97 951 l 50 968 q 126 996 83 986 q 208 1006 168 1006 q 366 942 310 1006 q 422 768 422 879 q 383 613 422 675 q 268 525 343 550 l 268 522 q 399 438 354 504 q 444 264 444 372 q 416 113 444 175 q 333 19 388 51 q 197 -14 278 -14 z "}}}
